M48
METRIC,LZ,000.000
;FILE_FORMAT=3:3
;TYPE=PLATED
;Layer: PTH_Through
;EasyEDA v6.5.3, 2022-05-09 22:00:40
;d9374f8db1c04431a46586793fd7dc8a,036ae6e9a2b24cebb23d0048bde98d7c,10
;Gerber Generator version 0.2
;Holesize 1 = 0.305 mm
T01C0.305
;Holesize 2 = 0.306 mm
T02C0.306
;Holesize 3 = 0.650 mm
T03C0.650
;Holesize 4 = 1.050 mm
T04C1.050
%
G05
G90
T01
X038227Y052324
X038481Y049784
T02
X045466Y048133
X036322Y047625
X048227Y049131
X041529Y048260
X046551Y060979
X044203Y054041
X043759Y052037
X038391Y055080
X044339Y060246
X047611Y051093
X046705Y057154
X047445Y049622
X046844Y047785
X037365Y041875
X038239Y041197
X049798Y059686
X063994Y038818
X049281Y041108
X035299Y056703
X049818Y042583
X049553Y046590
X049054Y044757
X043668Y061583
X052775Y049276
T03
X028576Y055740G85X029626Y055740
X028576Y044590G85X029626Y044590
X032726Y044585G85X033476Y044585
X032726Y055745G85X033476Y055745
T04
X029591Y063246
X032131Y063246
X034671Y063246
X037211Y063246
X039751Y063246
X042291Y063246
X044831Y063246
X047371Y063246
X049911Y063246
X052451Y063246
X054991Y063246
X057531Y063246
X060071Y063246
X062611Y063246
X065151Y063246
X067691Y063246
X070231Y063246
X072771Y063246
X075311Y063246
X029591Y037211
X032131Y037211
X034671Y037211
X037211Y037211
X039751Y037211
X042291Y037211
X044831Y037211
X047371Y037211
X049911Y037211
X052451Y037211
X054991Y037211
X057531Y037211
X060071Y037211
X062611Y037211
X065151Y037211
X067691Y037211
X070231Y037211
X072771Y037211
X075311Y037211
M30
