G04 Layer: TopPasteMaskLayer*
G04 EasyEDA v6.5.3, 2022-05-09 22:00:40*
G04 d9374f8db1c04431a46586793fd7dc8a,036ae6e9a2b24cebb23d0048bde98d7c,10*
G04 Gerber Generator version 0.2*
G04 Scale: 100 percent, Rotated: No, Reflected: No *
G04 Dimensions in millimeters *
G04 leading zeros omitted , absolute positions ,4 integer and 5 decimal *
%FSLAX45Y45*%
%MOMM*%

%ADD12C,0.5600*%
%ADD20R,0.9800X2.4700*%
%ADD22R,0.9500X2.1000*%
%ADD23R,2.1000X0.9500*%

%LPD*%
G36*
X4498695Y4345178D02*
G01*
X4493717Y4340199D01*
X4493717Y4292193D01*
X4498695Y4285183D01*
X4543704Y4285183D01*
X4548682Y4292193D01*
X4548682Y4340199D01*
X4543704Y4345178D01*
G37*
G36*
X4498695Y4249216D02*
G01*
X4493717Y4242206D01*
X4493717Y4194200D01*
X4498695Y4189222D01*
X4543704Y4189222D01*
X4548682Y4194200D01*
X4548682Y4242206D01*
X4543704Y4249216D01*
G37*
G36*
X4816195Y5475478D02*
G01*
X4811217Y5470499D01*
X4811217Y5422493D01*
X4816195Y5415483D01*
X4861204Y5415483D01*
X4866182Y5422493D01*
X4866182Y5470499D01*
X4861204Y5475478D01*
G37*
G36*
X4816195Y5379516D02*
G01*
X4811217Y5372506D01*
X4811217Y5324500D01*
X4816195Y5319522D01*
X4861204Y5319522D01*
X4866182Y5324500D01*
X4866182Y5372506D01*
X4861204Y5379516D01*
G37*
G36*
X4663795Y5938316D02*
G01*
X4658817Y5931306D01*
X4658817Y5883300D01*
X4663795Y5878322D01*
X4708804Y5878322D01*
X4713782Y5883300D01*
X4713782Y5931306D01*
X4708804Y5938316D01*
G37*
G36*
X4663795Y6034278D02*
G01*
X4658817Y6029299D01*
X4658817Y5981293D01*
X4663795Y5974283D01*
X4708804Y5974283D01*
X4713782Y5981293D01*
X4713782Y6029299D01*
X4708804Y6034278D01*
G37*
G36*
X4498695Y6034278D02*
G01*
X4493717Y6029299D01*
X4493717Y5981293D01*
X4498695Y5974283D01*
X4543704Y5974283D01*
X4548682Y5981293D01*
X4548682Y6029299D01*
X4543704Y6034278D01*
G37*
G36*
X4498695Y5938316D02*
G01*
X4493717Y5931306D01*
X4493717Y5883300D01*
X4498695Y5878322D01*
X4543704Y5878322D01*
X4548682Y5883300D01*
X4548682Y5931306D01*
X4543704Y5938316D01*
G37*
G36*
X3482695Y4147616D02*
G01*
X3477717Y4140606D01*
X3477717Y4092600D01*
X3482695Y4087622D01*
X3527704Y4087622D01*
X3532682Y4092600D01*
X3532682Y4140606D01*
X3527704Y4147616D01*
G37*
G36*
X3482695Y4243578D02*
G01*
X3477717Y4238599D01*
X3477717Y4190593D01*
X3482695Y4183583D01*
X3527704Y4183583D01*
X3532682Y4190593D01*
X3532682Y4238599D01*
X3527704Y4243578D01*
G37*
G36*
X4498695Y4700778D02*
G01*
X4493717Y4695799D01*
X4493717Y4647793D01*
X4498695Y4640783D01*
X4543704Y4640783D01*
X4548682Y4647793D01*
X4548682Y4695799D01*
X4543704Y4700778D01*
G37*
G36*
X4498695Y4604816D02*
G01*
X4493717Y4597806D01*
X4493717Y4549800D01*
X4498695Y4544822D01*
X4543704Y4544822D01*
X4548682Y4549800D01*
X4548682Y4597806D01*
X4543704Y4604816D01*
G37*
G36*
X4828387Y5930087D02*
G01*
X4824374Y5926124D01*
X4824374Y5876036D01*
X4828387Y5872022D01*
X4874412Y5872022D01*
X4878425Y5876036D01*
X4878425Y5926124D01*
X4874412Y5930087D01*
G37*
G36*
X4828387Y6015177D02*
G01*
X4824374Y6011164D01*
X4824374Y5961075D01*
X4828387Y5957112D01*
X4874412Y5957112D01*
X4878425Y5961075D01*
X4878425Y6011164D01*
X4874412Y6015177D01*
G37*
G36*
X4754626Y4141825D02*
G01*
X4750612Y4137812D01*
X4750612Y4091787D01*
X4754626Y4087774D01*
X4804664Y4087774D01*
X4808677Y4091787D01*
X4808677Y4137812D01*
X4804664Y4141825D01*
G37*
G36*
X4669536Y4141825D02*
G01*
X4665522Y4137812D01*
X4665522Y4091787D01*
X4669536Y4087774D01*
X4719574Y4087774D01*
X4723587Y4091787D01*
X4723587Y4137812D01*
X4719574Y4141825D01*
G37*
G36*
X3634587Y4224477D02*
G01*
X3630574Y4220464D01*
X3630574Y4170375D01*
X3634587Y4166412D01*
X3680612Y4166412D01*
X3684625Y4170375D01*
X3684625Y4220464D01*
X3680612Y4224477D01*
G37*
G36*
X3634587Y4139387D02*
G01*
X3630574Y4135424D01*
X3630574Y4085336D01*
X3634587Y4081322D01*
X3680612Y4081322D01*
X3684625Y4085336D01*
X3684625Y4135424D01*
X3680612Y4139387D01*
G37*
G36*
X4669536Y4560925D02*
G01*
X4665522Y4556912D01*
X4665522Y4510887D01*
X4669536Y4506874D01*
X4719574Y4506874D01*
X4723587Y4510887D01*
X4723587Y4556912D01*
X4719574Y4560925D01*
G37*
G36*
X4754626Y4560925D02*
G01*
X4750612Y4556912D01*
X4750612Y4510887D01*
X4754626Y4506874D01*
X4804664Y4506874D01*
X4808677Y4510887D01*
X4808677Y4556912D01*
X4804664Y4560925D01*
G37*
G36*
X4805426Y4726025D02*
G01*
X4801412Y4722012D01*
X4801412Y4675987D01*
X4805426Y4671974D01*
X4855464Y4671974D01*
X4859477Y4675987D01*
X4859477Y4722012D01*
X4855464Y4726025D01*
G37*
G36*
X4720336Y4726025D02*
G01*
X4716322Y4722012D01*
X4716322Y4675987D01*
X4720336Y4671974D01*
X4770374Y4671974D01*
X4774387Y4675987D01*
X4774387Y4722012D01*
X4770374Y4726025D01*
G37*
G36*
X4669536Y4281525D02*
G01*
X4665522Y4277512D01*
X4665522Y4231487D01*
X4669536Y4227474D01*
X4719574Y4227474D01*
X4723587Y4231487D01*
X4723587Y4277512D01*
X4719574Y4281525D01*
G37*
G36*
X4754626Y4281525D02*
G01*
X4750612Y4277512D01*
X4750612Y4231487D01*
X4754626Y4227474D01*
X4804664Y4227474D01*
X4808677Y4231487D01*
X4808677Y4277512D01*
X4804664Y4281525D01*
G37*
G36*
X4856226Y5653125D02*
G01*
X4852212Y5649112D01*
X4852212Y5603087D01*
X4856226Y5599074D01*
X4906264Y5599074D01*
X4910277Y5603087D01*
X4910277Y5649112D01*
X4906264Y5653125D01*
G37*
G36*
X4771136Y5653125D02*
G01*
X4767122Y5649112D01*
X4767122Y5603087D01*
X4771136Y5599074D01*
X4821174Y5599074D01*
X4825187Y5603087D01*
X4825187Y5649112D01*
X4821174Y5653125D01*
G37*
G36*
X4466336Y5361025D02*
G01*
X4462322Y5357012D01*
X4462322Y5310987D01*
X4466336Y5306974D01*
X4516374Y5306974D01*
X4520387Y5310987D01*
X4520387Y5357012D01*
X4516374Y5361025D01*
G37*
G36*
X4551426Y5361025D02*
G01*
X4547412Y5357012D01*
X4547412Y5310987D01*
X4551426Y5306974D01*
X4601464Y5306974D01*
X4605477Y5310987D01*
X4605477Y5357012D01*
X4601464Y5361025D01*
G37*
G36*
X4754626Y4421225D02*
G01*
X4750612Y4417212D01*
X4750612Y4371187D01*
X4754626Y4367174D01*
X4804664Y4367174D01*
X4808677Y4371187D01*
X4808677Y4417212D01*
X4804664Y4421225D01*
G37*
G36*
X4669536Y4421225D02*
G01*
X4665522Y4417212D01*
X4665522Y4371187D01*
X4669536Y4367174D01*
X4719574Y4367174D01*
X4723587Y4371187D01*
X4723587Y4417212D01*
X4719574Y4421225D01*
G37*
G36*
X4805426Y4865725D02*
G01*
X4801412Y4861712D01*
X4801412Y4815687D01*
X4805426Y4811674D01*
X4855464Y4811674D01*
X4859477Y4815687D01*
X4859477Y4861712D01*
X4855464Y4865725D01*
G37*
G36*
X4720336Y4865725D02*
G01*
X4716322Y4861712D01*
X4716322Y4815687D01*
X4720336Y4811674D01*
X4770374Y4811674D01*
X4774387Y4815687D01*
X4774387Y4861712D01*
X4770374Y4865725D01*
G37*
G36*
X2850083Y5633974D02*
G01*
X2843022Y5633466D01*
X2836113Y5632145D01*
X2829356Y5630011D01*
X2826105Y5628690D01*
X2819857Y5625388D01*
X2814015Y5621426D01*
X2808732Y5616803D01*
X2803956Y5611571D01*
X2799892Y5605780D01*
X2796489Y5599582D01*
X2793847Y5593080D01*
X2792018Y5586222D01*
X2791002Y5579262D01*
X2790799Y5572201D01*
X2791409Y5565190D01*
X2792831Y5558282D01*
X2795066Y5551576D01*
X2798114Y5545175D01*
X2801823Y5539232D01*
X2806242Y5533694D01*
X2811322Y5528767D01*
X2816860Y5524449D01*
X2822956Y5520791D01*
X2829356Y5517896D01*
X2836113Y5515813D01*
X2843022Y5514492D01*
X2850083Y5513984D01*
X2970072Y5513984D01*
X2977134Y5514492D01*
X2984042Y5515813D01*
X2990799Y5517896D01*
X2997200Y5520791D01*
X3003296Y5524449D01*
X3008833Y5528767D01*
X3013913Y5533694D01*
X3018332Y5539232D01*
X3022041Y5545175D01*
X3025089Y5551576D01*
X3027324Y5558282D01*
X3028746Y5565190D01*
X3029356Y5572201D01*
X3029153Y5579262D01*
X3028137Y5586222D01*
X3026308Y5593080D01*
X3023666Y5599582D01*
X3020263Y5605780D01*
X3016199Y5611571D01*
X3011424Y5616803D01*
X3006140Y5621426D01*
X3000298Y5625388D01*
X2994050Y5628690D01*
X2987446Y5631180D01*
X2980588Y5632907D01*
X2973628Y5633821D01*
X2970072Y5633974D01*
G37*
G36*
X2850083Y4518964D02*
G01*
X2846527Y4518863D01*
X2839516Y4517948D01*
X2836062Y4517237D01*
X2829306Y4515104D01*
X2826004Y4513783D01*
X2819755Y4510532D01*
X2813862Y4506518D01*
X2808528Y4501896D01*
X2803753Y4496663D01*
X2799638Y4490872D01*
X2796235Y4484674D01*
X2793593Y4478121D01*
X2791764Y4471263D01*
X2791104Y4467809D01*
X2790494Y4460748D01*
X2790698Y4453686D01*
X2791104Y4450130D01*
X2792577Y4443222D01*
X2794812Y4436516D01*
X2797860Y4430115D01*
X2801620Y4424121D01*
X2806090Y4418634D01*
X2811119Y4413656D01*
X2816758Y4409338D01*
X2822803Y4405731D01*
X2829306Y4402836D01*
X2832658Y4401667D01*
X2839516Y4399991D01*
X2846527Y4399127D01*
X2850083Y4398975D01*
X2970072Y4398975D01*
X2977134Y4399432D01*
X2984093Y4400753D01*
X2987497Y4401667D01*
X2994152Y4404207D01*
X3000400Y4407458D01*
X3006293Y4411421D01*
X3011627Y4416044D01*
X3016402Y4421327D01*
X3020517Y4427067D01*
X3023920Y4433265D01*
X3026562Y4439818D01*
X3028391Y4446676D01*
X3029051Y4450130D01*
X3029661Y4457192D01*
X3029458Y4464304D01*
X3029051Y4467809D01*
X3027578Y4474718D01*
X3025343Y4481423D01*
X3022295Y4487824D01*
X3018536Y4493818D01*
X3014065Y4499356D01*
X3009036Y4504283D01*
X3003397Y4508601D01*
X2997352Y4512208D01*
X2994152Y4513783D01*
X2987497Y4516272D01*
X2984093Y4517237D01*
X2977134Y4518507D01*
X2973628Y4518863D01*
G37*
G36*
X3270097Y4518456D02*
G01*
X3262985Y4518050D01*
X3255975Y4516780D01*
X3249168Y4514748D01*
X3242665Y4511852D01*
X3236569Y4508246D01*
X3230880Y4503928D01*
X3225800Y4499000D01*
X3221329Y4493463D01*
X3217519Y4487468D01*
X3214471Y4481017D01*
X3212185Y4474311D01*
X3210712Y4467352D01*
X3210102Y4460240D01*
X3210306Y4453128D01*
X3211372Y4446117D01*
X3212185Y4442663D01*
X3214471Y4435906D01*
X3217519Y4429506D01*
X3221329Y4423511D01*
X3225800Y4417974D01*
X3230880Y4413046D01*
X3233674Y4410760D01*
X3239566Y4406798D01*
X3245866Y4403547D01*
X3252571Y4401108D01*
X3255975Y4400143D01*
X3262985Y4398873D01*
X3270097Y4398467D01*
X3353663Y4398568D01*
X3360724Y4399432D01*
X3367633Y4401108D01*
X3374288Y4403547D01*
X3380587Y4406798D01*
X3386480Y4410760D01*
X3391865Y4415434D01*
X3396691Y4420666D01*
X3400806Y4426458D01*
X3404260Y4432655D01*
X3406952Y4439259D01*
X3408781Y4446117D01*
X3409848Y4453128D01*
X3410051Y4460240D01*
X3409442Y4467352D01*
X3407968Y4474311D01*
X3406952Y4477715D01*
X3404260Y4484268D01*
X3400806Y4490516D01*
X3396691Y4496308D01*
X3391865Y4501540D01*
X3386480Y4506163D01*
X3380587Y4510125D01*
X3374288Y4513376D01*
X3370986Y4514748D01*
X3364179Y4516780D01*
X3360724Y4517542D01*
X3353663Y4518355D01*
G37*
G36*
X3270097Y5634482D02*
G01*
X3262985Y5634075D01*
X3256026Y5632805D01*
X3249218Y5630722D01*
X3242716Y5627878D01*
X3236569Y5624220D01*
X3233674Y5622188D01*
X3228289Y5617514D01*
X3223514Y5612282D01*
X3219348Y5606491D01*
X3215944Y5600293D01*
X3214471Y5597042D01*
X3212236Y5590286D01*
X3211372Y5586831D01*
X3210356Y5579821D01*
X3210102Y5572709D01*
X3210763Y5565597D01*
X3211372Y5562092D01*
X3213252Y5555234D01*
X3214471Y5551932D01*
X3217570Y5545531D01*
X3221329Y5539486D01*
X3225850Y5533999D01*
X3228289Y5531408D01*
X3233674Y5526786D01*
X3239566Y5522823D01*
X3245916Y5519572D01*
X3252571Y5517083D01*
X3259480Y5515406D01*
X3266541Y5514594D01*
X3350107Y5514492D01*
X3357168Y5514898D01*
X3360724Y5515406D01*
X3367633Y5517083D01*
X3374288Y5519572D01*
X3380587Y5522823D01*
X3383635Y5524703D01*
X3389274Y5529021D01*
X3394354Y5533999D01*
X3398824Y5539486D01*
X3402634Y5545531D01*
X3405682Y5551932D01*
X3406952Y5555234D01*
X3408832Y5562092D01*
X3409848Y5569153D01*
X3410051Y5576265D01*
X3409442Y5583326D01*
X3408832Y5586831D01*
X3406952Y5593689D01*
X3404260Y5600293D01*
X3400806Y5606491D01*
X3396691Y5612282D01*
X3391865Y5617514D01*
X3386480Y5622188D01*
X3380587Y5626150D01*
X3374288Y5629402D01*
X3367633Y5631840D01*
X3360724Y5633516D01*
X3353663Y5634380D01*
G37*
G36*
X3331565Y5206441D02*
G01*
X3331565Y5176469D01*
X3446576Y5176469D01*
X3446576Y5206441D01*
G37*
G36*
X3331565Y5156454D02*
G01*
X3331565Y5126482D01*
X3446576Y5126482D01*
X3446576Y5156454D01*
G37*
G36*
X3331413Y5106466D02*
G01*
X3331413Y5076494D01*
X3446424Y5076494D01*
X3446424Y5106466D01*
G37*
G36*
X3331565Y5056479D02*
G01*
X3331565Y5026456D01*
X3446576Y5026456D01*
X3446576Y5056479D01*
G37*
G36*
X3331413Y5006441D02*
G01*
X3331413Y4976469D01*
X3446424Y4976469D01*
X3446424Y5006441D01*
G37*
G36*
X3331565Y4956454D02*
G01*
X3331565Y4926482D01*
X3446576Y4926482D01*
X3446576Y4956454D01*
G37*
G36*
X3331565Y4906467D02*
G01*
X3331565Y4876495D01*
X3446576Y4876495D01*
X3446576Y4906467D01*
G37*
G36*
X3331565Y4856480D02*
G01*
X3331565Y4826457D01*
X3446576Y4826457D01*
X3446576Y4856480D01*
G37*
G36*
X3331565Y4805476D02*
G01*
X3331565Y4745482D01*
X3446576Y4745482D01*
X3446576Y4805476D01*
G37*
G36*
X3331565Y4725466D02*
G01*
X3331565Y4665472D01*
X3446576Y4665472D01*
X3446576Y4725466D01*
G37*
G36*
X3331565Y5287467D02*
G01*
X3331565Y5227472D01*
X3446576Y5227472D01*
X3446576Y5287467D01*
G37*
G36*
X3331565Y5367477D02*
G01*
X3331565Y5307482D01*
X3446576Y5307482D01*
X3446576Y5367477D01*
G37*
D12*
X3696301Y5867400D02*
G01*
X3577800Y5867400D01*
X3696301Y5740400D02*
G01*
X3577800Y5740400D01*
X3696301Y5613400D02*
G01*
X3577800Y5613400D01*
X3696301Y5486400D02*
G01*
X3577800Y5486400D01*
X3696301Y5359400D02*
G01*
X3577800Y5359400D01*
X3696301Y5232400D02*
G01*
X3577800Y5232400D01*
X3696301Y5105400D02*
G01*
X3577800Y5105400D01*
X3696301Y4978400D02*
G01*
X3577800Y4978400D01*
X4270799Y5867400D02*
G01*
X4152298Y5867400D01*
X4270799Y5740400D02*
G01*
X4152298Y5740400D01*
X4270799Y5613400D02*
G01*
X4152298Y5613400D01*
X4270799Y5486400D02*
G01*
X4152298Y5486400D01*
X4270799Y5359400D02*
G01*
X4152298Y5359400D01*
X4270799Y5232400D02*
G01*
X4152298Y5232400D01*
X4270799Y5105400D02*
G01*
X4152298Y5105400D01*
X4270799Y4978400D02*
G01*
X4152298Y4978400D01*
G36*
X4481200Y5218899D02*
G01*
X4561199Y5218899D01*
X4561199Y5118900D01*
X4481200Y5118900D01*
G37*
G36*
X4547240Y5015699D02*
G01*
X4627239Y5015699D01*
X4627239Y4915700D01*
X4547240Y4915700D01*
G37*
G36*
X4415160Y5015699D02*
G01*
X4495159Y5015699D01*
X4495159Y4915700D01*
X4415160Y4915700D01*
G37*
G36*
X4493900Y5777699D02*
G01*
X4573899Y5777699D01*
X4573899Y5677700D01*
X4493900Y5677700D01*
G37*
G36*
X4559940Y5574499D02*
G01*
X4639939Y5574499D01*
X4639939Y5474500D01*
X4559940Y5474500D01*
G37*
G36*
X4427860Y5574499D02*
G01*
X4507859Y5574499D01*
X4507859Y5474500D01*
X4427860Y5474500D01*
G37*
G36*
X2818803Y4278299D02*
G01*
X2918802Y4278299D01*
X2918802Y4078300D01*
X2818803Y4078300D01*
G37*
G36*
X3278802Y4278299D02*
G01*
X3378801Y4278299D01*
X3378801Y4078300D01*
X3278802Y4078300D01*
G37*
G36*
X2818803Y5967399D02*
G01*
X2918802Y5967399D01*
X2918802Y5767400D01*
X2818803Y5767400D01*
G37*
G36*
X3278802Y5967399D02*
G01*
X3378801Y5967399D01*
X3378801Y5767400D01*
X3278802Y5767400D01*
G37*
D20*
G01*
X4281297Y4703089D03*
G01*
X4051300Y4703089D03*
G01*
X3821302Y4703089D03*
G36*
X3871300Y4259600D02*
G01*
X4231299Y4259600D01*
X4231299Y4012600D01*
X3871300Y4012600D01*
G37*
D22*
G01*
X6907352Y5929198D03*
G01*
X6780352Y5929198D03*
G01*
X6653352Y5929198D03*
G01*
X6526352Y5929198D03*
G01*
X6399352Y5929198D03*
G01*
X6272352Y5929198D03*
G01*
X6145352Y5929198D03*
G01*
X6018352Y5929198D03*
G01*
X5891352Y5929198D03*
G01*
X5764352Y5929198D03*
G01*
X5637352Y5929198D03*
G01*
X5510352Y5929198D03*
G01*
X5383352Y5929198D03*
G01*
X5256352Y5929198D03*
D23*
G01*
X5106847Y5600674D03*
G01*
X5106847Y5473674D03*
G01*
X5106847Y5346674D03*
G01*
X5106847Y5219674D03*
G01*
X5106847Y5092674D03*
G01*
X5106847Y4965674D03*
G01*
X5106847Y4838674D03*
G01*
X5106847Y4711674D03*
G01*
X5106847Y4584674D03*
G01*
X5106847Y4457674D03*
D22*
G01*
X5256352Y4129201D03*
G01*
X5383352Y4129201D03*
G01*
X5510352Y4129201D03*
G01*
X5637352Y4129201D03*
G01*
X5764352Y4129201D03*
G01*
X5891352Y4129201D03*
G01*
X6018352Y4129201D03*
G01*
X6145352Y4129201D03*
G01*
X6272352Y4129201D03*
G01*
X6399352Y4129201D03*
G01*
X6526352Y4129201D03*
G01*
X6653352Y4129201D03*
G01*
X6780352Y4129201D03*
G01*
X6907352Y4129201D03*
G36*
X6090810Y5195704D02*
G01*
X6223812Y5195704D01*
X6223812Y5062705D01*
X6090810Y5062705D01*
G37*
G36*
X6090848Y5379191D02*
G01*
X6223850Y5379191D01*
X6223850Y5246192D01*
X6090848Y5246192D01*
G37*
G36*
X6090848Y5012192D02*
G01*
X6223850Y5012192D01*
X6223850Y4879192D01*
X6090848Y4879192D01*
G37*
G36*
X6274348Y5012192D02*
G01*
X6407350Y5012192D01*
X6407350Y4879192D01*
X6274348Y4879192D01*
G37*
G36*
X6274348Y5195691D02*
G01*
X6407350Y5195691D01*
X6407350Y5062692D01*
X6274348Y5062692D01*
G37*
G36*
X6274348Y5379191D02*
G01*
X6407350Y5379191D01*
X6407350Y5246192D01*
X6274348Y5246192D01*
G37*
G36*
X5907349Y5379191D02*
G01*
X6040351Y5379191D01*
X6040351Y5246192D01*
X5907349Y5246192D01*
G37*
G36*
X5907349Y5195691D02*
G01*
X6040351Y5195691D01*
X6040351Y5062692D01*
X5907349Y5062692D01*
G37*
G36*
X5907349Y5012194D02*
G01*
X6040351Y5012194D01*
X6040351Y4879195D01*
X5907349Y4879195D01*
G37*
M02*
