G04 Layer: TopLayer*
G04 EasyEDA v6.5.3, 2022-05-09 22:00:40*
G04 d9374f8db1c04431a46586793fd7dc8a,036ae6e9a2b24cebb23d0048bde98d7c,10*
G04 Gerber Generator version 0.2*
G04 Scale: 100 percent, Rotated: No, Reflected: No *
G04 Dimensions in millimeters *
G04 leading zeros omitted , absolute positions ,4 integer and 5 decimal *
%FSLAX45Y45*%
%MOMM*%

%ADD10C,0.2540*%
%ADD11C,0.1500*%
%ADD12C,0.5600*%
%ADD13C,0.6100*%
%ADD14C,0.6096*%
%ADD15R,0.5400X0.7901*%
%ADD17R,0.5400X0.5657*%
%ADD20R,0.9800X2.4700*%
%ADD22R,0.9500X2.1000*%
%ADD23R,2.1000X0.9500*%
%ADD25R,1.1500X0.3000*%
%ADD26R,1.1500X0.6000*%
%ADD27C,1.6000*%
%ADD28R,1.6000X1.6000*%
%ADD29C,1.2000*%

%LPD*%
D11*
X4704735Y4636973D02*
G01*
X4719746Y4651984D01*
X4744613Y4651984D01*
X4570902Y4212691D02*
G01*
X4608367Y4250156D01*
X4608367Y4540605D01*
X4704735Y4636973D01*
X4704730Y4636975D02*
G01*
X4546600Y4795105D01*
X4546600Y4813300D01*
X4744613Y4699000D02*
G01*
X4744613Y4651984D01*
X4822743Y4913121D02*
G01*
X4822743Y4896840D01*
X4831176Y4888407D01*
X4051294Y4703089D02*
G01*
X4051294Y4556887D01*
X4051300Y4556887D02*
G01*
X4051114Y4556706D01*
X3762857Y4556706D01*
X3632200Y4687366D01*
X3632200Y4762500D01*
X4831176Y4838700D02*
G01*
X4831176Y4888407D01*
X4744613Y4748707D02*
G01*
X4784897Y4788992D01*
X4831176Y4788992D01*
X4521194Y4212691D02*
G01*
X4570902Y4212691D01*
X4744613Y4699000D02*
G01*
X4744613Y4748707D01*
X4831176Y4838700D02*
G01*
X4831176Y4788992D01*
X6780347Y5993079D02*
G01*
X6780347Y5929223D01*
X6780347Y5993079D02*
G01*
X6780347Y6056934D01*
X7531094Y6324600D02*
G01*
X7428377Y6324600D01*
X6780347Y6056934D02*
G01*
X6784842Y6061430D01*
X7165207Y6061430D01*
X7428377Y6324600D01*
X4152900Y4826000D02*
G01*
X4275813Y4703086D01*
X4281289Y4703086D01*
X4471487Y4321708D02*
G01*
X4429678Y4321708D01*
X4281291Y4470095D01*
X4780376Y4376089D02*
G01*
X4780376Y4254500D01*
X4281291Y4470095D02*
G01*
X4281291Y4556887D01*
X4281291Y4470095D02*
G01*
X3513500Y4470095D01*
X3505194Y4461789D01*
X3469304Y5337505D02*
G01*
X3469304Y5666181D01*
X3382030Y5753455D01*
X3337808Y5753455D01*
X3329045Y5744692D01*
X3328791Y5744692D01*
X4576084Y5901791D02*
G01*
X4576084Y6059220D01*
X4310705Y6324600D01*
X4229094Y6324600D01*
X4576084Y5901791D02*
G01*
X4686294Y5901791D01*
X4471487Y5901791D02*
G01*
X4409409Y5963869D01*
X3637046Y5963869D01*
X5884641Y5600700D02*
G01*
X5106842Y5600700D01*
X6598025Y4533137D02*
G01*
X6631122Y4533137D01*
X6907347Y4256912D01*
X4780376Y4376089D02*
G01*
X6440977Y4376089D01*
X6598025Y4533137D01*
X6598025Y4533137D02*
G01*
X6598025Y4599330D01*
X6340850Y4856505D01*
X4780376Y4394200D02*
G01*
X4780376Y4376089D01*
X3328791Y5990107D02*
G01*
X3610808Y5990107D01*
X3637046Y5963869D01*
X3637046Y5867400D02*
G01*
X3637046Y5963869D01*
X4521194Y5901791D02*
G01*
X4471487Y5901791D01*
X3505194Y4461789D02*
G01*
X3469304Y4497679D01*
X3469304Y4695520D01*
X3505194Y4461789D02*
G01*
X3505194Y4282312D01*
X4521194Y5901791D02*
G01*
X4576084Y5901791D01*
X4521194Y4321708D02*
G01*
X4471487Y4321708D01*
X6907347Y5801512D02*
G01*
X6706534Y5600700D01*
X5884641Y5600700D01*
X5884641Y5312714D02*
G01*
X5884641Y5600700D01*
X3328791Y5867400D02*
G01*
X3328791Y5744692D01*
X3389091Y5337505D02*
G01*
X3469304Y5337505D01*
X6907347Y4129201D02*
G01*
X6907347Y4256912D01*
X4281291Y4556887D02*
G01*
X4351065Y4556887D01*
X4471487Y4677308D01*
X3505194Y4220108D02*
G01*
X3455487Y4220108D01*
X3328791Y4178300D02*
G01*
X3328791Y4301007D01*
X3328791Y4301007D02*
G01*
X3399429Y4301007D01*
X3455487Y4244949D01*
X3455487Y4220108D01*
X3328791Y5867400D02*
G01*
X3328791Y5990107D01*
X4281291Y4703089D02*
G01*
X4281291Y4556887D01*
X4521194Y4677308D02*
G01*
X4471487Y4677308D01*
X6340850Y4945710D02*
G01*
X6340850Y4856505D01*
X6907347Y4065346D02*
G01*
X6907347Y4129201D01*
X6907347Y4065346D02*
G01*
X6907347Y4001490D01*
X6907347Y5929223D02*
G01*
X6907347Y5801512D01*
X7531094Y3721100D02*
G01*
X7428377Y3721100D01*
X6907347Y4001490D02*
G01*
X7147986Y4001490D01*
X7428377Y3721100D01*
X5973846Y5312714D02*
G01*
X5884641Y5312714D01*
X6157361Y5312714D02*
G01*
X5973846Y5312714D01*
X6246515Y5312714D02*
G01*
X6157361Y5312714D01*
X6340850Y5312714D02*
G01*
X6246515Y5312714D01*
X6246515Y5312714D02*
G01*
X6246515Y5129225D01*
X6249106Y5129199D02*
G01*
X6246515Y5129199D01*
X6246515Y5129225D01*
X6340850Y5129199D02*
G01*
X6249106Y5129199D01*
X6249106Y4945710D02*
G01*
X6157361Y4945710D01*
X6340850Y4945710D02*
G01*
X6249106Y4945710D01*
X6249106Y4945710D02*
G01*
X6249106Y5129199D01*
X6157310Y5129225D02*
G01*
X6246515Y5129225D01*
X6157310Y5129225D02*
G01*
X6068105Y5129225D01*
X5973846Y5129199D02*
G01*
X6068105Y5129199D01*
X6068105Y5129225D01*
X5973846Y4945710D02*
G01*
X6157361Y4945710D01*
X3505194Y4220108D02*
G01*
X3505194Y4282312D01*
X3389091Y4695520D02*
G01*
X3469304Y4695520D01*
X4662723Y5469254D02*
G01*
X4662647Y5469331D01*
X4662647Y5524500D01*
X4796480Y5342991D02*
G01*
X4788987Y5342991D01*
X4662723Y5469254D01*
X4577176Y5383707D02*
G01*
X4662723Y5469254D01*
X4577176Y5334000D02*
G01*
X4577176Y5383707D01*
X4599934Y5524500D02*
G01*
X4662647Y5524500D01*
X4838694Y5342991D02*
G01*
X4796480Y5342991D01*
X4838694Y5452008D02*
G01*
X4888402Y5452008D01*
X4211543Y5486400D02*
G01*
X4190055Y5486400D01*
X4100418Y5576036D01*
X4100418Y5633465D01*
X4154571Y5687618D01*
X4315454Y5687618D01*
X4428434Y5800597D01*
X4808240Y5800597D01*
X4933690Y5675147D01*
X4933690Y5497296D01*
X4888402Y5452008D01*
X4375881Y5203697D02*
G01*
X4375881Y5359755D01*
X4420255Y5404129D01*
X4686294Y6010808D02*
G01*
X4686294Y6073012D01*
X4655052Y6097879D02*
G01*
X4679919Y6073012D01*
X4686294Y6073012D01*
X3637046Y5486400D02*
G01*
X3658661Y5508015D01*
X3839077Y5508015D01*
X4693813Y4533900D02*
G01*
X4693813Y4484192D01*
X4433895Y6024626D02*
G01*
X4457669Y6024626D01*
X4471487Y6010808D01*
X2868797Y5990107D02*
G01*
X2903316Y6024626D01*
X4433895Y6024626D01*
X4693813Y4484192D02*
G01*
X4702347Y4475657D01*
X4820914Y4475657D01*
X4901026Y4555769D01*
X4901026Y4697298D01*
X4929652Y4725923D01*
X4929652Y4944668D01*
X4765009Y5109311D01*
X4761072Y5109311D01*
X4521194Y6010808D02*
G01*
X4471487Y6010808D01*
X2868797Y5867400D02*
G01*
X2868797Y5990107D01*
X3505194Y4111091D02*
G01*
X3455487Y4111091D01*
X2868797Y4178300D02*
G01*
X2868797Y4055592D01*
X2868797Y4055592D02*
G01*
X2904815Y4019575D01*
X3363970Y4019575D01*
X3455487Y4111091D01*
X3657594Y4196181D02*
G01*
X3607887Y4196181D01*
X3505194Y4111091D02*
G01*
X3554902Y4111091D01*
X3607887Y4196181D02*
G01*
X3607887Y4164076D01*
X3554902Y4111091D01*
X3820764Y5414213D02*
G01*
X3892443Y5485892D01*
X3892443Y5569254D01*
X4190588Y5867400D01*
X4211543Y5867400D01*
X3469304Y5257520D02*
G01*
X3515227Y5303443D01*
X3515227Y5386527D01*
X3542913Y5414213D01*
X3820764Y5414213D01*
X4521194Y4568291D02*
G01*
X4570902Y4568291D01*
X3389091Y5257520D02*
G01*
X3469304Y5257520D01*
X3821297Y4776215D02*
G01*
X3821297Y4703089D01*
X3821297Y4776215D02*
G01*
X3821297Y4849317D01*
X3389091Y4775504D02*
G01*
X3461837Y4775504D01*
X4707707Y5123637D02*
G01*
X4707707Y5087213D01*
X4738974Y5055946D01*
X4775398Y5055946D01*
X4885786Y4945557D01*
X4885786Y4778476D01*
X4856017Y4748707D01*
X4831176Y4748707D01*
X6653347Y5801512D02*
G01*
X6624670Y5772835D01*
X5083728Y5772835D01*
X4977632Y5666739D01*
X4977632Y5375503D01*
X4764806Y5162677D01*
X4738974Y5162677D01*
X4707707Y5131409D01*
X4707707Y5123637D01*
X4707707Y5123637D02*
G01*
X4662444Y5168900D01*
X4521194Y5168900D01*
X6653347Y5929223D02*
G01*
X6653347Y5801512D01*
X4780376Y4533900D02*
G01*
X4780376Y4583607D01*
X4831176Y4699000D02*
G01*
X4831176Y4634407D01*
X4780376Y4583607D01*
X4831176Y4723866D02*
G01*
X4831176Y4699000D01*
X4831176Y4723866D02*
G01*
X4831176Y4748707D01*
X6653347Y5993079D02*
G01*
X6653347Y5929223D01*
X6653347Y5993079D02*
G01*
X6653347Y6056934D01*
X6653347Y6056934D02*
G01*
X6729445Y6133033D01*
X7085528Y6133033D01*
X7277094Y6324600D01*
X4322516Y5510860D02*
G01*
X4322516Y5175097D01*
X4459015Y5038597D01*
X4514336Y5038597D01*
X4524522Y5028412D01*
X4524522Y4965700D01*
X4211543Y5613400D02*
G01*
X4219976Y5613400D01*
X4322516Y5510860D01*
X4322516Y5510860D02*
G01*
X4441743Y5630087D01*
X4740447Y5630087D01*
X4744435Y5626100D01*
X4795413Y5626100D02*
G01*
X4744435Y5626100D01*
X4587234Y4965700D02*
G01*
X4524522Y4965700D01*
X4490613Y5284292D02*
G01*
X4443394Y5237073D01*
X4443394Y5109845D01*
X4479970Y5073269D01*
X4612838Y5073269D01*
X4651065Y5035042D01*
X4651065Y4895392D01*
X4635520Y4879847D01*
X4541006Y4879847D01*
X4455154Y4965700D01*
X4490613Y5334000D02*
G01*
X4490613Y5284292D01*
X4744511Y4838700D02*
G01*
X4744511Y4962220D01*
X4533894Y5727700D02*
G01*
X4596607Y5727700D01*
X4670521Y5715355D02*
G01*
X4608951Y5715355D01*
X4596607Y5727700D01*
X4744613Y4838700D02*
G01*
X4744511Y4838700D01*
X4736993Y4838700D02*
G01*
X4744511Y4838700D01*
X4736993Y4838700D02*
G01*
X4693635Y4838700D01*
X4684440Y4778527D02*
G01*
X4684440Y4829505D01*
X4693635Y4838700D01*
X3736461Y4119676D02*
G01*
X3823939Y4119676D01*
X3707302Y4109618D02*
G01*
X3717361Y4119676D01*
X3736461Y4119676D01*
X3736461Y4119676D02*
G01*
X3736461Y4187545D01*
X3657594Y4109618D02*
G01*
X3707302Y4109618D01*
X4229094Y3721100D02*
G01*
X4564095Y4056100D01*
X5183245Y4056100D01*
X5256347Y4129201D01*
X4530567Y5524500D02*
G01*
X4530567Y5587212D01*
X4541514Y5598160D01*
X4667143Y5598160D01*
X4698182Y5567121D01*
X4872705Y5567121D01*
X4881976Y5576392D01*
X4467854Y5524500D02*
G01*
X4530567Y5524500D01*
X4881976Y5626100D02*
G01*
X4881976Y5576392D01*
X4851394Y5900318D02*
G01*
X4801687Y5900318D01*
X3637046Y5740400D02*
G01*
X3938671Y5740400D01*
X4126148Y5927877D01*
X4396277Y5927877D01*
X4484720Y5839434D01*
X4740803Y5839434D01*
X4801687Y5900318D01*
X4851394Y5986881D02*
G01*
X4901102Y5986881D01*
X4979766Y5968593D02*
G01*
X4919390Y5968593D01*
X4901102Y5986881D01*
X6399347Y3881754D02*
G01*
X6399347Y3836847D01*
X6515094Y3721100D01*
X6399347Y4129201D02*
G01*
X6399347Y3881754D01*
X4928077Y4110786D02*
G01*
X4835392Y4110786D01*
X4831379Y4114800D01*
X3637046Y5613400D02*
G01*
X3586881Y5613400D01*
X3529934Y5670346D01*
X4780376Y4114800D02*
G01*
X4831379Y4114800D01*
X4693813Y4164507D02*
G01*
X4698512Y4169206D01*
X4968133Y4169206D01*
X5056017Y4257090D01*
X6526169Y4257090D01*
X6526347Y4256912D01*
X4693813Y4114800D02*
G01*
X4693813Y4164507D01*
X6526347Y4129201D02*
G01*
X6526347Y4256912D01*
X6769094Y3721100D02*
G01*
X6526347Y3963847D01*
X6526347Y4129201D01*
X4979156Y4584700D02*
G01*
X4979156Y4635195D01*
X4955306Y4659045D01*
X4981747Y4258310D02*
G01*
X4923022Y4199585D01*
X4729246Y4199585D01*
X4693813Y4235018D01*
X5106842Y4584700D02*
G01*
X4979156Y4584700D01*
X4693813Y4235018D02*
G01*
X4693813Y4210761D01*
X4693813Y4254500D02*
G01*
X4693813Y4235018D01*
X4693813Y4210761D02*
G01*
X4601458Y4118406D01*
X4480910Y4118406D01*
X4195236Y3832732D01*
X3832727Y3832732D01*
X3721094Y3721100D01*
X4905420Y4475734D02*
G01*
X4874966Y4445279D01*
X4695184Y4445279D01*
X4693813Y4443907D01*
X4979156Y4457700D02*
G01*
X4961122Y4475734D01*
X4905420Y4475734D01*
X4693813Y4394200D02*
G01*
X4693813Y4443907D01*
X5106842Y4457700D02*
G01*
X4979156Y4457700D01*
X3389091Y4941519D02*
G01*
X3469304Y4941519D01*
X3483096Y5091506D02*
G01*
X3623990Y5232400D01*
X3637046Y5232400D01*
X3469152Y5091506D02*
G01*
X3483096Y5091506D01*
X3388939Y5091506D02*
G01*
X3469152Y5091506D01*
X4366839Y6158306D02*
G01*
X4141388Y6158306D01*
X3975094Y6324600D01*
X5234553Y5473700D02*
G01*
X5277479Y5430773D01*
X5277479Y4927600D01*
X5106842Y5473700D02*
G01*
X5234553Y5473700D01*
X5256347Y6056934D02*
G01*
X4771486Y6056934D01*
X4503821Y6324600D01*
X4483094Y6324600D01*
X5256347Y5929223D02*
G01*
X5256347Y6056934D01*
X5383347Y5929223D02*
G01*
X5383347Y6056934D01*
X5383347Y6056934D02*
G01*
X5260055Y6180226D01*
X4881468Y6180226D01*
X4737094Y6324600D01*
X5510347Y5929223D02*
G01*
X5510347Y6056934D01*
X5510347Y6056934D02*
G01*
X5356677Y6210604D01*
X5105090Y6210604D01*
X4991094Y6324600D01*
X5637347Y5929223D02*
G01*
X5637347Y6056934D01*
X5637347Y6056934D02*
G01*
X5580247Y6056934D01*
X5312582Y6324600D01*
X5245094Y6324600D01*
X5764347Y5929223D02*
G01*
X5764347Y6059347D01*
X5499094Y6324600D01*
X5891347Y5929223D02*
G01*
X5891347Y6186347D01*
X5753094Y6324600D01*
X6018347Y5929223D02*
G01*
X6018347Y6313347D01*
X6007094Y6324600D01*
X6145347Y5929223D02*
G01*
X6145347Y6208852D01*
X6261094Y6324600D01*
X6272347Y5929223D02*
G01*
X6272347Y6081852D01*
X6515094Y6324600D01*
X6399347Y5929223D02*
G01*
X6399347Y6056934D01*
X6399347Y6056934D02*
G01*
X6667012Y6324600D01*
X6769094Y6324600D01*
X6526347Y5929223D02*
G01*
X6526347Y6056934D01*
X6526347Y6056934D02*
G01*
X6634525Y6165113D01*
X6863608Y6165113D01*
X7023094Y6324600D01*
X5383347Y4129201D02*
G01*
X5383347Y4001490D01*
X4483094Y3721100D02*
G01*
X4757465Y3995470D01*
X5377327Y3995470D01*
X5383347Y4001490D01*
X5510347Y4129201D02*
G01*
X5510347Y4001490D01*
X5510347Y4001490D02*
G01*
X5473948Y3965092D01*
X4981087Y3965092D01*
X4737094Y3721100D01*
X5637347Y4129201D02*
G01*
X5637347Y4001490D01*
X5637347Y4001490D02*
G01*
X5559242Y3923385D01*
X5193380Y3923385D01*
X4991094Y3721100D01*
X5764347Y4129201D02*
G01*
X5764347Y4001490D01*
X5764347Y4001490D02*
G01*
X5649793Y3886936D01*
X5410931Y3886936D01*
X5245094Y3721100D01*
X5891347Y4129201D02*
G01*
X5891347Y4001490D01*
X5891347Y4001490D02*
G01*
X5833943Y4001490D01*
X5553552Y3721100D01*
X5499094Y3721100D01*
X6018347Y4129201D02*
G01*
X6018347Y3986352D01*
X5753094Y3721100D01*
X6272347Y4129201D02*
G01*
X6272347Y3732352D01*
X6261094Y3721100D01*
X6653347Y4129201D02*
G01*
X6653347Y4001490D01*
X6653347Y4001490D02*
G01*
X6933737Y3721100D01*
X7023094Y3721100D01*
X6780347Y4129201D02*
G01*
X6780347Y4001490D01*
X6780347Y4001490D02*
G01*
X6909988Y3871848D01*
X7126345Y3871848D01*
X7277094Y3721100D01*
X4026258Y5703069D02*
G01*
X4026258Y4876063D01*
D10*
X3637048Y5232400D02*
G01*
X3822700Y5232400D01*
D11*
X3821297Y4849317D02*
G01*
X3821175Y4849368D01*
X3821175Y4849368D02*
G01*
X3821175Y4849368D01*
X3708400Y4838700D01*
X3543300Y4813300D01*
X3461765Y4775454D01*
X3469386Y4941570D02*
G01*
X3492500Y4851400D01*
X3746500Y4876800D01*
X3898900Y4889500D01*
X3937000Y4914900D01*
X3937000Y5359400D01*
X3637025Y5359400D01*
X3388941Y4991478D02*
G01*
X3505200Y4991478D01*
X3517900Y4978778D01*
X3517900Y4927600D01*
X3530600Y4914900D01*
X3784600Y4914900D01*
X3848100Y4978400D01*
X3389637Y5041897D02*
G01*
X3746494Y5041897D01*
X3937000Y5124493D01*
X4570984Y4568189D02*
G01*
X4571491Y4727194D01*
X4556252Y4742687D01*
X4523740Y4742687D01*
X4390136Y4876037D01*
X4330700Y4889500D01*
X4102100Y4889500D01*
X4025900Y4876800D01*
X3911600Y4851400D01*
X3821175Y4849368D01*
D10*
X6169541Y3645662D02*
G01*
X5844809Y3645662D01*
X5844809Y3645662D02*
G01*
X5852716Y3656256D01*
X5852716Y3656256D02*
G01*
X5860190Y3669527D01*
X5860190Y3669527D02*
G01*
X5865906Y3683645D01*
X5865906Y3683645D02*
G01*
X5869769Y3698378D01*
X5869769Y3698378D02*
G01*
X5871717Y3713484D01*
X5871717Y3713484D02*
G01*
X5871717Y3728715D01*
X5871717Y3728715D02*
G01*
X5869769Y3743821D01*
X5869769Y3743821D02*
G01*
X5865906Y3758554D01*
X5865906Y3758554D02*
G01*
X5863085Y3765523D01*
X5863085Y3765523D02*
G01*
X6051130Y3953568D01*
X6051130Y3953568D02*
G01*
X6057230Y3961101D01*
X6057230Y3961101D02*
G01*
X6061630Y3969737D01*
X6061630Y3969737D02*
G01*
X6064139Y3979099D01*
X6064139Y3979099D02*
G01*
X6064602Y3985329D01*
X6064602Y3985329D02*
G01*
X6074502Y3986304D01*
X6074502Y3986304D02*
G01*
X6081854Y3988876D01*
X6081854Y3988876D02*
G01*
X6089206Y3986304D01*
X6089206Y3986304D02*
G01*
X6097854Y3985329D01*
X6097854Y3985329D02*
G01*
X6192855Y3985329D01*
X6192855Y3985329D02*
G01*
X6201502Y3986304D01*
X6201502Y3986304D02*
G01*
X6208854Y3988876D01*
X6208854Y3988876D02*
G01*
X6216206Y3986304D01*
X6216206Y3986304D02*
G01*
X6225984Y3985329D01*
X6225984Y3985329D02*
G01*
X6225984Y3834571D01*
X6225984Y3834571D02*
G01*
X6212986Y3829788D01*
X6212986Y3829788D02*
G01*
X6199482Y3822743D01*
X6199482Y3822743D02*
G01*
X6186990Y3814029D01*
X6186990Y3814029D02*
G01*
X6175715Y3803790D01*
X6175715Y3803790D02*
G01*
X6165842Y3792192D01*
X6165842Y3792192D02*
G01*
X6157533Y3779427D01*
X6157533Y3779427D02*
G01*
X6150924Y3765704D01*
X6150924Y3765704D02*
G01*
X6146125Y3751249D01*
X6146125Y3751249D02*
G01*
X6143214Y3736299D01*
X6143214Y3736299D02*
G01*
X6142238Y3721100D01*
X6142238Y3721100D02*
G01*
X6143214Y3705900D01*
X6143214Y3705900D02*
G01*
X6146125Y3690950D01*
X6146125Y3690950D02*
G01*
X6150924Y3676495D01*
X6150924Y3676495D02*
G01*
X6157533Y3662772D01*
X6157533Y3662772D02*
G01*
X6165842Y3650007D01*
X6165842Y3650007D02*
G01*
X6169541Y3645662D01*
X5865575Y3682827D02*
G01*
X5902740Y3645662D01*
X5867405Y3752839D02*
G01*
X5974582Y3645662D01*
X5894824Y3797262D02*
G01*
X6046424Y3645662D01*
X5930745Y3833183D02*
G01*
X6118266Y3645662D01*
X5966665Y3869104D02*
G01*
X6146774Y3688996D01*
X6002587Y3905025D02*
G01*
X6148677Y3758935D01*
X6038508Y3940946D02*
G01*
X6175692Y3803762D01*
X6065844Y3985452D02*
G01*
X6219215Y3832080D01*
X6137808Y3985329D02*
G01*
X6225984Y3897154D01*
X6206817Y3988163D02*
G01*
X6225984Y3968996D01*
X6104858Y3645662D02*
G01*
X6147127Y3687931D01*
X6033016Y3645662D02*
G01*
X6149864Y3762509D01*
X6219563Y3832208D02*
G01*
X6225984Y3838630D01*
X5961174Y3645662D02*
G01*
X6225984Y3910472D01*
X5889332Y3645662D02*
G01*
X6225984Y3982314D01*
X5869614Y3697786D02*
G01*
X6157158Y3985329D01*
X5863783Y3763797D02*
G01*
X6087046Y3987060D01*
X4654730Y4318632D02*
G01*
X4654730Y4330067D01*
X4654730Y4330067D02*
G01*
X4656887Y4329312D01*
X4656887Y4329312D02*
G01*
X4665535Y4328337D01*
X4665535Y4328337D02*
G01*
X4722101Y4328337D01*
X4722101Y4328337D02*
G01*
X4730748Y4329312D01*
X4730748Y4329312D02*
G01*
X4738962Y4332186D01*
X4738962Y4332186D02*
G01*
X4746331Y4336816D01*
X4746331Y4336816D02*
G01*
X4752484Y4342969D01*
X4752484Y4342969D02*
G01*
X4757114Y4350338D01*
X4757114Y4350338D02*
G01*
X4759988Y4358552D01*
X4759988Y4358552D02*
G01*
X4760963Y4367199D01*
X4760963Y4367199D02*
G01*
X4760963Y4398916D01*
X4760963Y4398916D02*
G01*
X4874966Y4398916D01*
X4874966Y4398916D02*
G01*
X4884605Y4399929D01*
X4884605Y4399929D02*
G01*
X4893823Y4402925D01*
X4893823Y4402925D02*
G01*
X4900461Y4406594D01*
X4900461Y4406594D02*
G01*
X4912773Y4406762D01*
X4912773Y4406762D02*
G01*
X4924324Y4408996D01*
X4924324Y4408996D02*
G01*
X4935331Y4413149D01*
X4935331Y4413149D02*
G01*
X4945478Y4419103D01*
X4945478Y4419103D02*
G01*
X4949421Y4422428D01*
X4949421Y4422428D02*
G01*
X4953906Y4418816D01*
X4953906Y4418816D02*
G01*
X4960299Y4415345D01*
X4960299Y4415345D02*
G01*
X4962991Y4414296D01*
X4962991Y4414296D02*
G01*
X4962991Y4410181D01*
X4962991Y4410181D02*
G01*
X4963965Y4401533D01*
X4963965Y4401533D02*
G01*
X4966839Y4393320D01*
X4966839Y4393320D02*
G01*
X4971469Y4385951D01*
X4971469Y4385951D02*
G01*
X4977623Y4379798D01*
X4977623Y4379798D02*
G01*
X4984991Y4375168D01*
X4984991Y4375168D02*
G01*
X4993205Y4372294D01*
X4993205Y4372294D02*
G01*
X5001853Y4371319D01*
X5001853Y4371319D02*
G01*
X5211852Y4371319D01*
X5211852Y4371319D02*
G01*
X5220500Y4372294D01*
X5220500Y4372294D02*
G01*
X5228714Y4375168D01*
X5228714Y4375168D02*
G01*
X5236082Y4379798D01*
X5236082Y4379798D02*
G01*
X5242236Y4385951D01*
X5242236Y4385951D02*
G01*
X5246866Y4393320D01*
X5246866Y4393320D02*
G01*
X5249740Y4401533D01*
X5249740Y4401533D02*
G01*
X5250714Y4410181D01*
X5250714Y4410181D02*
G01*
X5250714Y4505182D01*
X5250714Y4505182D02*
G01*
X5249740Y4513830D01*
X5249740Y4513830D02*
G01*
X5247167Y4521182D01*
X5247167Y4521182D02*
G01*
X5249740Y4528533D01*
X5249740Y4528533D02*
G01*
X5250714Y4537181D01*
X5250714Y4537181D02*
G01*
X5250714Y4632182D01*
X5250714Y4632182D02*
G01*
X5249740Y4640830D01*
X5249740Y4640830D02*
G01*
X5247167Y4648182D01*
X5247167Y4648182D02*
G01*
X5249740Y4655533D01*
X5249740Y4655533D02*
G01*
X5250714Y4664181D01*
X5250714Y4664181D02*
G01*
X5250714Y4759182D01*
X5250714Y4759182D02*
G01*
X5249740Y4767830D01*
X5249740Y4767830D02*
G01*
X5247167Y4775182D01*
X5247167Y4775182D02*
G01*
X5249740Y4782533D01*
X5249740Y4782533D02*
G01*
X5250714Y4791181D01*
X5250714Y4791181D02*
G01*
X5250714Y4863653D01*
X5250714Y4863653D02*
G01*
X5261436Y4860120D01*
X5261436Y4860120D02*
G01*
X5273070Y4858378D01*
X5273070Y4858378D02*
G01*
X5284832Y4858628D01*
X5284832Y4858628D02*
G01*
X5296383Y4860862D01*
X5296383Y4860862D02*
G01*
X5307390Y4865015D01*
X5307390Y4865015D02*
G01*
X5317537Y4870969D01*
X5317537Y4870969D02*
G01*
X5326531Y4878553D01*
X5326531Y4878553D02*
G01*
X5334115Y4887547D01*
X5334115Y4887547D02*
G01*
X5340069Y4897694D01*
X5340069Y4897694D02*
G01*
X5344222Y4908701D01*
X5344222Y4908701D02*
G01*
X5346456Y4920252D01*
X5346456Y4920252D02*
G01*
X5346706Y4932014D01*
X5346706Y4932014D02*
G01*
X5344964Y4943648D01*
X5344964Y4943648D02*
G01*
X5341282Y4954822D01*
X5341282Y4954822D02*
G01*
X5335763Y4965212D01*
X5335763Y4965212D02*
G01*
X5328568Y4974520D01*
X5328568Y4974520D02*
G01*
X5323842Y4978862D01*
X5323842Y4978862D02*
G01*
X5323842Y5430773D01*
X5323842Y5430773D02*
G01*
X5322829Y5440413D01*
X5322829Y5440413D02*
G01*
X5319834Y5449631D01*
X5319834Y5449631D02*
G01*
X5314988Y5458025D01*
X5314988Y5458025D02*
G01*
X5310263Y5463557D01*
X5310263Y5463557D02*
G01*
X5267337Y5506483D01*
X5267337Y5506483D02*
G01*
X5259804Y5512583D01*
X5259804Y5512583D02*
G01*
X5253411Y5516054D01*
X5253411Y5516054D02*
G01*
X5250714Y5517105D01*
X5250714Y5517105D02*
G01*
X5250714Y5521182D01*
X5250714Y5521182D02*
G01*
X5249740Y5529830D01*
X5249740Y5529830D02*
G01*
X5246866Y5538044D01*
X5246866Y5538044D02*
G01*
X5242236Y5545412D01*
X5242236Y5545412D02*
G01*
X5236082Y5551566D01*
X5236082Y5551566D02*
G01*
X5228714Y5556196D01*
X5228714Y5556196D02*
G01*
X5220500Y5559070D01*
X5220500Y5559070D02*
G01*
X5211852Y5560044D01*
X5211852Y5560044D02*
G01*
X5023995Y5560044D01*
X5023995Y5560044D02*
G01*
X5023995Y5647536D01*
X5023995Y5647536D02*
G01*
X5102932Y5726473D01*
X5102932Y5726473D02*
G01*
X6624670Y5726473D01*
X6624670Y5726473D02*
G01*
X6634309Y5727486D01*
X6634309Y5727486D02*
G01*
X6643527Y5730481D01*
X6643527Y5730481D02*
G01*
X6651921Y5735327D01*
X6651921Y5735327D02*
G01*
X6657453Y5740052D01*
X6657453Y5740052D02*
G01*
X6686130Y5768729D01*
X6686130Y5768729D02*
G01*
X6692230Y5776261D01*
X6692230Y5776261D02*
G01*
X6695701Y5782654D01*
X6695701Y5782654D02*
G01*
X6696750Y5785346D01*
X6696750Y5785346D02*
G01*
X6700840Y5785346D01*
X6700840Y5785346D02*
G01*
X6709487Y5786320D01*
X6709487Y5786320D02*
G01*
X6716839Y5788893D01*
X6716839Y5788893D02*
G01*
X6724191Y5786320D01*
X6724191Y5786320D02*
G01*
X6732838Y5785346D01*
X6732838Y5785346D02*
G01*
X6827840Y5785346D01*
X6827840Y5785346D02*
G01*
X6836487Y5786320D01*
X6836487Y5786320D02*
G01*
X6844701Y5789195D01*
X6844701Y5789195D02*
G01*
X6852070Y5793825D01*
X6852070Y5793825D02*
G01*
X6858223Y5799978D01*
X6858223Y5799978D02*
G01*
X6862853Y5807347D01*
X6862853Y5807347D02*
G01*
X6865727Y5815560D01*
X6865727Y5815560D02*
G01*
X6866702Y5824208D01*
X6866702Y5824208D02*
G01*
X6866702Y6015067D01*
X6866702Y6015067D02*
G01*
X7165207Y6015067D01*
X7165207Y6015067D02*
G01*
X7174847Y6016081D01*
X7174847Y6016081D02*
G01*
X7184065Y6019076D01*
X7184065Y6019076D02*
G01*
X7192459Y6023922D01*
X7192459Y6023922D02*
G01*
X7197991Y6028647D01*
X7197991Y6028647D02*
G01*
X7412410Y6243067D01*
X7412410Y6243067D02*
G01*
X7413212Y6235952D01*
X7413212Y6235952D02*
G01*
X7416086Y6227738D01*
X7416086Y6227738D02*
G01*
X7420716Y6220370D01*
X7420716Y6220370D02*
G01*
X7426870Y6214216D01*
X7426870Y6214216D02*
G01*
X7434238Y6209586D01*
X7434238Y6209586D02*
G01*
X7442452Y6206712D01*
X7442452Y6206712D02*
G01*
X7451100Y6205738D01*
X7451100Y6205738D02*
G01*
X7611099Y6205738D01*
X7611099Y6205738D02*
G01*
X7619747Y6206712D01*
X7619747Y6206712D02*
G01*
X7627961Y6209586D01*
X7627961Y6209586D02*
G01*
X7635329Y6214216D01*
X7635329Y6214216D02*
G01*
X7641483Y6220370D01*
X7641483Y6220370D02*
G01*
X7646113Y6227738D01*
X7646113Y6227738D02*
G01*
X7648987Y6235952D01*
X7648987Y6235952D02*
G01*
X7649961Y6244600D01*
X7649961Y6244600D02*
G01*
X7649961Y6400037D01*
X7649961Y6400037D02*
G01*
X7661147Y6400037D01*
X7661147Y6400037D02*
G01*
X7661147Y3645662D01*
X7661147Y3645662D02*
G01*
X7368809Y3645662D01*
X7368809Y3645662D02*
G01*
X7376716Y3656256D01*
X7376716Y3656256D02*
G01*
X7384190Y3669527D01*
X7384190Y3669527D02*
G01*
X7389906Y3683645D01*
X7389906Y3683645D02*
G01*
X7393769Y3698378D01*
X7393769Y3698378D02*
G01*
X7395717Y3713484D01*
X7395717Y3713484D02*
G01*
X7395717Y3728715D01*
X7395717Y3728715D02*
G01*
X7393769Y3743821D01*
X7393769Y3743821D02*
G01*
X7389906Y3758554D01*
X7389906Y3758554D02*
G01*
X7384190Y3772672D01*
X7384190Y3772672D02*
G01*
X7376716Y3785943D01*
X7376716Y3785943D02*
G01*
X7367606Y3798149D01*
X7367606Y3798149D02*
G01*
X7357010Y3809090D01*
X7357010Y3809090D02*
G01*
X7345102Y3818587D01*
X7345102Y3818587D02*
G01*
X7332078Y3826482D01*
X7332078Y3826482D02*
G01*
X7318150Y3832648D01*
X7318150Y3832648D02*
G01*
X7303549Y3836981D01*
X7303549Y3836981D02*
G01*
X7288513Y3839412D01*
X7288513Y3839412D02*
G01*
X7273290Y3839900D01*
X7273290Y3839900D02*
G01*
X7258129Y3838438D01*
X7258129Y3838438D02*
G01*
X7243280Y3835048D01*
X7243280Y3835048D02*
G01*
X7232631Y3831130D01*
X7232631Y3831130D02*
G01*
X7159129Y3904632D01*
X7159129Y3904632D02*
G01*
X7151596Y3910732D01*
X7151596Y3910732D02*
G01*
X7142960Y3915132D01*
X7142960Y3915132D02*
G01*
X7133598Y3917640D01*
X7133598Y3917640D02*
G01*
X7126345Y3918211D01*
X7126345Y3918211D02*
G01*
X6929192Y3918211D01*
X6929192Y3918211D02*
G01*
X6852840Y3994563D01*
X6852840Y3994563D02*
G01*
X6858238Y3999961D01*
X6858238Y3999961D02*
G01*
X6862868Y4007330D01*
X6862868Y4007330D02*
G01*
X6865742Y4015544D01*
X6865742Y4015544D02*
G01*
X6866717Y4024191D01*
X6866717Y4024191D02*
G01*
X6866717Y4234191D01*
X6866717Y4234191D02*
G01*
X6865742Y4242839D01*
X6865742Y4242839D02*
G01*
X6862868Y4251052D01*
X6862868Y4251052D02*
G01*
X6858238Y4258421D01*
X6858238Y4258421D02*
G01*
X6852085Y4264574D01*
X6852085Y4264574D02*
G01*
X6844716Y4269204D01*
X6844716Y4269204D02*
G01*
X6836502Y4272079D01*
X6836502Y4272079D02*
G01*
X6827855Y4273053D01*
X6827855Y4273053D02*
G01*
X6732854Y4273053D01*
X6732854Y4273053D02*
G01*
X6724206Y4272079D01*
X6724206Y4272079D02*
G01*
X6716854Y4269506D01*
X6716854Y4269506D02*
G01*
X6709502Y4272079D01*
X6709502Y4272079D02*
G01*
X6700855Y4273053D01*
X6700855Y4273053D02*
G01*
X6605854Y4273053D01*
X6605854Y4273053D02*
G01*
X6597206Y4272079D01*
X6597206Y4272079D02*
G01*
X6589854Y4269506D01*
X6589854Y4269506D02*
G01*
X6582502Y4272079D01*
X6582502Y4272079D02*
G01*
X6573855Y4273053D01*
X6573855Y4273053D02*
G01*
X6569757Y4273053D01*
X6569757Y4273053D02*
G01*
X6568701Y4275770D01*
X6568701Y4275770D02*
G01*
X6565230Y4282163D01*
X6565230Y4282163D02*
G01*
X6560623Y4288113D01*
X6560623Y4288113D02*
G01*
X6557369Y4291367D01*
X6557369Y4291367D02*
G01*
X6551420Y4295973D01*
X6551420Y4295973D02*
G01*
X6542784Y4300373D01*
X6542784Y4300373D02*
G01*
X6533422Y4302882D01*
X6533422Y4302882D02*
G01*
X6526169Y4303453D01*
X6526169Y4303453D02*
G01*
X5056017Y4303453D01*
X5056017Y4303453D02*
G01*
X5046378Y4302440D01*
X5046378Y4302440D02*
G01*
X5037278Y4299483D01*
X5037278Y4299483D02*
G01*
X5032836Y4305230D01*
X5032836Y4305230D02*
G01*
X5024172Y4313188D01*
X5024172Y4313188D02*
G01*
X5014287Y4319568D01*
X5014287Y4319568D02*
G01*
X5003466Y4324185D01*
X5003466Y4324185D02*
G01*
X4992021Y4326908D01*
X4992021Y4326908D02*
G01*
X4980280Y4327656D01*
X4980280Y4327656D02*
G01*
X4968582Y4326410D01*
X4968582Y4326410D02*
G01*
X4957262Y4323204D01*
X4957262Y4323204D02*
G01*
X4946647Y4318132D01*
X4946647Y4318132D02*
G01*
X4937042Y4311339D01*
X4937042Y4311339D02*
G01*
X4928723Y4303020D01*
X4928723Y4303020D02*
G01*
X4921930Y4293415D01*
X4921930Y4293415D02*
G01*
X4916857Y4282800D01*
X4916857Y4282800D02*
G01*
X4913652Y4271480D01*
X4913652Y4271480D02*
G01*
X4912406Y4259782D01*
X4912406Y4259782D02*
G01*
X4912720Y4254849D01*
X4912720Y4254849D02*
G01*
X4903818Y4245947D01*
X4903818Y4245947D02*
G01*
X4760963Y4245947D01*
X4760963Y4245947D02*
G01*
X4760963Y4281500D01*
X4760963Y4281500D02*
G01*
X4759988Y4290147D01*
X4759988Y4290147D02*
G01*
X4757114Y4298361D01*
X4757114Y4298361D02*
G01*
X4752484Y4305730D01*
X4752484Y4305730D02*
G01*
X4746331Y4311883D01*
X4746331Y4311883D02*
G01*
X4738962Y4316513D01*
X4738962Y4316513D02*
G01*
X4730748Y4319387D01*
X4730748Y4319387D02*
G01*
X4722101Y4320362D01*
X4722101Y4320362D02*
G01*
X4665535Y4320362D01*
X4665535Y4320362D02*
G01*
X4656887Y4319387D01*
X4656887Y4319387D02*
G01*
X4654730Y4318632D01*
X4654730Y4318935D02*
G01*
X4654954Y4318711D01*
X4717170Y4328337D02*
G01*
X4725532Y4319975D01*
X4760576Y4284931D02*
G01*
X4799560Y4245947D01*
X4759680Y4357669D02*
G01*
X4871402Y4245947D01*
X4790275Y4398916D02*
G01*
X4914548Y4274643D01*
X4862117Y4398916D02*
G01*
X4944453Y4316580D01*
X4923952Y4408923D02*
G01*
X5012578Y4320297D01*
X5033398Y4371319D02*
G01*
X5101264Y4303453D01*
X5105240Y4371319D02*
G01*
X5173107Y4303453D01*
X5177082Y4371319D02*
G01*
X5244949Y4303453D01*
X5238264Y4381980D02*
G01*
X5316790Y4303453D01*
X5250714Y4441371D02*
G01*
X5388633Y4303453D01*
X5249547Y4514380D02*
G01*
X5460475Y4303453D01*
X5250714Y4585055D02*
G01*
X5532317Y4303453D01*
X5249977Y4657635D02*
G01*
X5604159Y4303453D01*
X5250714Y4728740D02*
G01*
X5676001Y4303453D01*
X5250714Y4800582D02*
G01*
X5747843Y4303453D01*
X5263297Y4859841D02*
G01*
X5819685Y4303453D01*
X5321049Y4873931D02*
G01*
X5891527Y4303453D01*
X5346459Y4920363D02*
G01*
X5963369Y4303453D01*
X5323842Y5014822D02*
G01*
X6035211Y4303453D01*
X5323842Y5086664D02*
G01*
X6107053Y4303453D01*
X5323842Y5158506D02*
G01*
X6178895Y4303453D01*
X5323842Y5230348D02*
G01*
X6250737Y4303453D01*
X5023995Y5602037D02*
G01*
X5065988Y5560044D01*
X5323842Y5302190D02*
G01*
X6322579Y4303453D01*
X5037167Y5660707D02*
G01*
X5137830Y5560044D01*
X5323842Y5374032D02*
G01*
X6394421Y4303453D01*
X5073088Y5696628D02*
G01*
X5209672Y5560044D01*
X5250714Y5519002D02*
G01*
X5253961Y5515755D01*
X5319490Y5450226D02*
G01*
X6466263Y4303453D01*
X5115086Y5726473D02*
G01*
X6540600Y4300959D01*
X5186928Y5726473D02*
G01*
X6640347Y4273053D01*
X6866717Y4046684D02*
G01*
X6995189Y3918211D01*
X5258770Y5726473D02*
G01*
X6715135Y4270108D01*
X6866717Y4118526D02*
G01*
X7067031Y3918211D01*
X5330612Y5726473D02*
G01*
X6784032Y4273053D01*
X6866717Y4190368D02*
G01*
X7141584Y3915500D01*
X7385160Y3671924D02*
G01*
X7411423Y3645662D01*
X5402454Y5726473D02*
G01*
X7289708Y3839219D01*
X7395052Y3733875D02*
G01*
X7483265Y3645662D01*
X5474296Y5726473D02*
G01*
X7555107Y3645662D01*
X5546138Y5726473D02*
G01*
X7626949Y3645662D01*
X5617980Y5726473D02*
G01*
X7661147Y3683305D01*
X5689822Y5726473D02*
G01*
X7661147Y3755147D01*
X5761664Y5726473D02*
G01*
X7661147Y3826989D01*
X5833506Y5726473D02*
G01*
X7661147Y3898831D01*
X5905348Y5726473D02*
G01*
X7661147Y3970673D01*
X5977190Y5726473D02*
G01*
X7661147Y4042515D01*
X6049032Y5726473D02*
G01*
X7661147Y4114358D01*
X6120874Y5726473D02*
G01*
X7661147Y4186199D01*
X6192716Y5726473D02*
G01*
X7661147Y4258042D01*
X6264558Y5726473D02*
G01*
X7661147Y4329884D01*
X6336401Y5726473D02*
G01*
X7661147Y4401726D01*
X6408242Y5726473D02*
G01*
X7661147Y4473568D01*
X6480085Y5726473D02*
G01*
X7661147Y4545410D01*
X6551927Y5726473D02*
G01*
X7661147Y4617252D01*
X6623769Y5726473D02*
G01*
X7661147Y4689094D01*
X6669742Y5752341D02*
G01*
X7661147Y4760936D01*
X6707796Y5786130D02*
G01*
X7661147Y4832778D01*
X6780422Y5785346D02*
G01*
X7661147Y4904620D01*
X6846982Y5790628D02*
G01*
X7661147Y4976462D01*
X6866702Y5842750D02*
G01*
X7661147Y5048304D01*
X6866702Y5914592D02*
G01*
X7661147Y5120146D01*
X6866702Y5986434D02*
G01*
X7661147Y5191988D01*
X6909910Y6015067D02*
G01*
X7661147Y5263830D01*
X6981752Y6015067D02*
G01*
X7661147Y5335672D01*
X7053594Y6015067D02*
G01*
X7661147Y5407514D01*
X7125436Y6015067D02*
G01*
X7661147Y5479356D01*
X7189901Y6022445D02*
G01*
X7661147Y5551198D01*
X7226766Y6057422D02*
G01*
X7661147Y5623041D01*
X7262687Y6093343D02*
G01*
X7661147Y5694882D01*
X7298608Y6129264D02*
G01*
X7661147Y5766725D01*
X7334529Y6165185D02*
G01*
X7661147Y5838567D01*
X7370450Y6201106D02*
G01*
X7661147Y5910409D01*
X7406371Y6237027D02*
G01*
X7416807Y6226592D01*
X7433092Y6210307D02*
G01*
X7661147Y5982251D01*
X7509503Y6205738D02*
G01*
X7661147Y6054093D01*
X7581345Y6205738D02*
G01*
X7661147Y6125935D01*
X7640019Y6218906D02*
G01*
X7661147Y6197777D01*
X7649961Y6280805D02*
G01*
X7661147Y6269619D01*
X7649961Y6352647D02*
G01*
X7661147Y6341461D01*
X7613541Y3645662D02*
G01*
X7661147Y3693268D01*
X7541699Y3645662D02*
G01*
X7661147Y3765110D01*
X7469857Y3645662D02*
G01*
X7661147Y3836952D01*
X7398015Y3645662D02*
G01*
X7661147Y3908794D01*
X7395717Y3715206D02*
G01*
X7661147Y3980636D01*
X7383164Y3774494D02*
G01*
X7661147Y4052478D01*
X7350839Y3814012D02*
G01*
X7661147Y4124320D01*
X7302187Y3837201D02*
G01*
X7661147Y4196162D01*
X7228452Y3835309D02*
G01*
X7661147Y4268004D01*
X7192531Y3871230D02*
G01*
X7661147Y4339847D01*
X7156345Y3906886D02*
G01*
X7661147Y4411688D01*
X7095828Y3918211D02*
G01*
X7661147Y4483531D01*
X7023986Y3918211D02*
G01*
X7661147Y4555373D01*
X6952144Y3918211D02*
G01*
X7661147Y4627215D01*
X6904747Y3942656D02*
G01*
X7661147Y4699057D01*
X6868826Y3978577D02*
G01*
X7661147Y4770899D01*
X6866717Y4048310D02*
G01*
X7661147Y4842741D01*
X6866717Y4120152D02*
G01*
X7661147Y4914583D01*
X6866717Y4191994D02*
G01*
X7661147Y4986425D01*
X6859420Y4256540D02*
G01*
X7661147Y5058267D01*
X6804092Y4273053D02*
G01*
X7661147Y5130109D01*
X6732173Y4272976D02*
G01*
X7661147Y5201951D01*
X6660407Y4273053D02*
G01*
X7661147Y5273793D01*
X6586272Y4270760D02*
G01*
X7661147Y5345635D01*
X6543619Y4299948D02*
G01*
X7661147Y5417477D01*
X6475281Y4303453D02*
G01*
X7661147Y5489319D01*
X6403439Y4303453D02*
G01*
X7661147Y5561161D01*
X6331597Y4303453D02*
G01*
X7661147Y5633003D01*
X6259755Y4303453D02*
G01*
X7661147Y5704845D01*
X6187913Y4303453D02*
G01*
X7661147Y5776687D01*
X6116071Y4303453D02*
G01*
X7661147Y5848529D01*
X6044229Y4303453D02*
G01*
X7661147Y5920371D01*
X5972387Y4303453D02*
G01*
X7661147Y5992214D01*
X5900545Y4303453D02*
G01*
X7661147Y6064056D01*
X5828703Y4303453D02*
G01*
X7661147Y6135898D01*
X5756861Y4303453D02*
G01*
X7661147Y6207740D01*
X5685019Y4303453D02*
G01*
X7587303Y6205738D01*
X7649961Y6268396D02*
G01*
X7661147Y6279582D01*
X5613177Y4303453D02*
G01*
X7515461Y6205738D01*
X7649961Y6340238D02*
G01*
X7661147Y6351424D01*
X5541335Y4303453D02*
G01*
X7444377Y6206495D01*
X5469492Y4303453D02*
G01*
X7186551Y6020511D01*
X5397650Y4303453D02*
G01*
X7109265Y6015067D01*
X5325809Y4303453D02*
G01*
X6807702Y5785346D01*
X6866702Y5844346D02*
G01*
X7037423Y6015067D01*
X5253966Y4303453D02*
G01*
X6735860Y5785346D01*
X6866702Y5916188D02*
G01*
X6965581Y6015067D01*
X5182124Y4303453D02*
G01*
X6605144Y5726473D01*
X6866702Y5988030D02*
G01*
X6893739Y6015067D01*
X5110282Y4303453D02*
G01*
X5178149Y4371319D01*
X5250714Y4443885D02*
G01*
X6533302Y5726473D01*
X5036054Y4301067D02*
G01*
X5106307Y4371319D01*
X5249501Y4514513D02*
G01*
X6461460Y5726473D01*
X4990171Y4327025D02*
G01*
X5034464Y4371319D01*
X5250714Y4587569D02*
G01*
X6389618Y5726473D01*
X4837250Y4245947D02*
G01*
X4974362Y4383059D01*
X5250108Y4658805D02*
G01*
X6317776Y5726473D01*
X4765409Y4245947D02*
G01*
X4930961Y4411500D01*
X5250714Y4731253D02*
G01*
X6245934Y5726473D01*
X4752818Y4305199D02*
G01*
X4846535Y4398916D01*
X5250714Y4803095D02*
G01*
X5324242Y4876623D01*
X5328461Y4880842D02*
G01*
X6174092Y5726473D01*
X4696139Y4320362D02*
G01*
X4704114Y4328337D01*
X4760963Y4385186D02*
G01*
X4774693Y4398916D01*
X5337576Y4961799D02*
G01*
X6102250Y5726473D01*
X5323842Y5019907D02*
G01*
X6030408Y5726473D01*
X5323842Y5091749D02*
G01*
X5958566Y5726473D01*
X5323842Y5163591D02*
G01*
X5886724Y5726473D01*
X5323842Y5235433D02*
G01*
X5814881Y5726473D01*
X5323842Y5307275D02*
G01*
X5743040Y5726473D01*
X5323842Y5379117D02*
G01*
X5671197Y5726473D01*
X5320491Y5447608D02*
G01*
X5599355Y5726473D01*
X5287430Y5486389D02*
G01*
X5527513Y5726473D01*
X5250680Y5521482D02*
G01*
X5455671Y5726473D01*
X5216839Y5559482D02*
G01*
X5383829Y5726473D01*
X5145559Y5560044D02*
G01*
X5311987Y5726473D01*
X5073717Y5560044D02*
G01*
X5240145Y5726473D01*
X5023995Y5582165D02*
G01*
X5168303Y5726473D01*
X2794761Y5997902D02*
G01*
X2794761Y6400037D01*
X2794761Y6400037D02*
G01*
X2867541Y6400037D01*
X2867541Y6400037D02*
G01*
X2863842Y6395692D01*
X2863842Y6395692D02*
G01*
X2855533Y6382927D01*
X2855533Y6382927D02*
G01*
X2848924Y6369204D01*
X2848924Y6369204D02*
G01*
X2844125Y6354749D01*
X2844125Y6354749D02*
G01*
X2841214Y6339799D01*
X2841214Y6339799D02*
G01*
X2840238Y6324600D01*
X2840238Y6324600D02*
G01*
X2841214Y6309400D01*
X2841214Y6309400D02*
G01*
X2844125Y6294450D01*
X2844125Y6294450D02*
G01*
X2848924Y6279995D01*
X2848924Y6279995D02*
G01*
X2855533Y6266272D01*
X2855533Y6266272D02*
G01*
X2863842Y6253507D01*
X2863842Y6253507D02*
G01*
X2873715Y6241909D01*
X2873715Y6241909D02*
G01*
X2884990Y6231670D01*
X2884990Y6231670D02*
G01*
X2897482Y6222956D01*
X2897482Y6222956D02*
G01*
X2910986Y6215911D01*
X2910986Y6215911D02*
G01*
X2925280Y6210651D01*
X2925280Y6210651D02*
G01*
X2940129Y6207261D01*
X2940129Y6207261D02*
G01*
X2955290Y6205799D01*
X2955290Y6205799D02*
G01*
X2970513Y6206287D01*
X2970513Y6206287D02*
G01*
X2985549Y6208718D01*
X2985549Y6208718D02*
G01*
X3000150Y6213051D01*
X3000150Y6213051D02*
G01*
X3014078Y6219217D01*
X3014078Y6219217D02*
G01*
X3027102Y6227112D01*
X3027102Y6227112D02*
G01*
X3039010Y6236609D01*
X3039010Y6236609D02*
G01*
X3049606Y6247550D01*
X3049606Y6247550D02*
G01*
X3058716Y6259756D01*
X3058716Y6259756D02*
G01*
X3066190Y6273027D01*
X3066190Y6273027D02*
G01*
X3071906Y6287145D01*
X3071906Y6287145D02*
G01*
X3075769Y6301878D01*
X3075769Y6301878D02*
G01*
X3077717Y6316984D01*
X3077717Y6316984D02*
G01*
X3077717Y6332215D01*
X3077717Y6332215D02*
G01*
X3075769Y6347321D01*
X3075769Y6347321D02*
G01*
X3071906Y6362054D01*
X3071906Y6362054D02*
G01*
X3066190Y6376172D01*
X3066190Y6376172D02*
G01*
X3058716Y6389443D01*
X3058716Y6389443D02*
G01*
X3050809Y6400037D01*
X3050809Y6400037D02*
G01*
X3121541Y6400037D01*
X3121541Y6400037D02*
G01*
X3117842Y6395692D01*
X3117842Y6395692D02*
G01*
X3109533Y6382927D01*
X3109533Y6382927D02*
G01*
X3102924Y6369204D01*
X3102924Y6369204D02*
G01*
X3098125Y6354749D01*
X3098125Y6354749D02*
G01*
X3095214Y6339799D01*
X3095214Y6339799D02*
G01*
X3094238Y6324600D01*
X3094238Y6324600D02*
G01*
X3095214Y6309400D01*
X3095214Y6309400D02*
G01*
X3098125Y6294450D01*
X3098125Y6294450D02*
G01*
X3102924Y6279995D01*
X3102924Y6279995D02*
G01*
X3109533Y6266272D01*
X3109533Y6266272D02*
G01*
X3117842Y6253507D01*
X3117842Y6253507D02*
G01*
X3127715Y6241909D01*
X3127715Y6241909D02*
G01*
X3138990Y6231670D01*
X3138990Y6231670D02*
G01*
X3151482Y6222956D01*
X3151482Y6222956D02*
G01*
X3164986Y6215911D01*
X3164986Y6215911D02*
G01*
X3179280Y6210651D01*
X3179280Y6210651D02*
G01*
X3194129Y6207261D01*
X3194129Y6207261D02*
G01*
X3209290Y6205799D01*
X3209290Y6205799D02*
G01*
X3224513Y6206287D01*
X3224513Y6206287D02*
G01*
X3239549Y6208718D01*
X3239549Y6208718D02*
G01*
X3254150Y6213051D01*
X3254150Y6213051D02*
G01*
X3268078Y6219217D01*
X3268078Y6219217D02*
G01*
X3281102Y6227112D01*
X3281102Y6227112D02*
G01*
X3293010Y6236609D01*
X3293010Y6236609D02*
G01*
X3303606Y6247550D01*
X3303606Y6247550D02*
G01*
X3312716Y6259756D01*
X3312716Y6259756D02*
G01*
X3320190Y6273027D01*
X3320190Y6273027D02*
G01*
X3325906Y6287145D01*
X3325906Y6287145D02*
G01*
X3329769Y6301878D01*
X3329769Y6301878D02*
G01*
X3331717Y6316984D01*
X3331717Y6316984D02*
G01*
X3331717Y6332215D01*
X3331717Y6332215D02*
G01*
X3329769Y6347321D01*
X3329769Y6347321D02*
G01*
X3325906Y6362054D01*
X3325906Y6362054D02*
G01*
X3320190Y6376172D01*
X3320190Y6376172D02*
G01*
X3312716Y6389443D01*
X3312716Y6389443D02*
G01*
X3304809Y6400037D01*
X3304809Y6400037D02*
G01*
X3375541Y6400037D01*
X3375541Y6400037D02*
G01*
X3371842Y6395692D01*
X3371842Y6395692D02*
G01*
X3363533Y6382927D01*
X3363533Y6382927D02*
G01*
X3356924Y6369204D01*
X3356924Y6369204D02*
G01*
X3352125Y6354749D01*
X3352125Y6354749D02*
G01*
X3349214Y6339799D01*
X3349214Y6339799D02*
G01*
X3348238Y6324600D01*
X3348238Y6324600D02*
G01*
X3349214Y6309400D01*
X3349214Y6309400D02*
G01*
X3352125Y6294450D01*
X3352125Y6294450D02*
G01*
X3356924Y6279995D01*
X3356924Y6279995D02*
G01*
X3363533Y6266272D01*
X3363533Y6266272D02*
G01*
X3371842Y6253507D01*
X3371842Y6253507D02*
G01*
X3381715Y6241909D01*
X3381715Y6241909D02*
G01*
X3392990Y6231670D01*
X3392990Y6231670D02*
G01*
X3405482Y6222956D01*
X3405482Y6222956D02*
G01*
X3418986Y6215911D01*
X3418986Y6215911D02*
G01*
X3433280Y6210651D01*
X3433280Y6210651D02*
G01*
X3448129Y6207261D01*
X3448129Y6207261D02*
G01*
X3463290Y6205799D01*
X3463290Y6205799D02*
G01*
X3478513Y6206287D01*
X3478513Y6206287D02*
G01*
X3493549Y6208718D01*
X3493549Y6208718D02*
G01*
X3508150Y6213051D01*
X3508150Y6213051D02*
G01*
X3522078Y6219217D01*
X3522078Y6219217D02*
G01*
X3535102Y6227112D01*
X3535102Y6227112D02*
G01*
X3547010Y6236609D01*
X3547010Y6236609D02*
G01*
X3557606Y6247550D01*
X3557606Y6247550D02*
G01*
X3566716Y6259756D01*
X3566716Y6259756D02*
G01*
X3574190Y6273027D01*
X3574190Y6273027D02*
G01*
X3579906Y6287145D01*
X3579906Y6287145D02*
G01*
X3583769Y6301878D01*
X3583769Y6301878D02*
G01*
X3585717Y6316984D01*
X3585717Y6316984D02*
G01*
X3585717Y6332215D01*
X3585717Y6332215D02*
G01*
X3583769Y6347321D01*
X3583769Y6347321D02*
G01*
X3579906Y6362054D01*
X3579906Y6362054D02*
G01*
X3574190Y6376172D01*
X3574190Y6376172D02*
G01*
X3566716Y6389443D01*
X3566716Y6389443D02*
G01*
X3558809Y6400037D01*
X3558809Y6400037D02*
G01*
X3629541Y6400037D01*
X3629541Y6400037D02*
G01*
X3625842Y6395692D01*
X3625842Y6395692D02*
G01*
X3617533Y6382927D01*
X3617533Y6382927D02*
G01*
X3610924Y6369204D01*
X3610924Y6369204D02*
G01*
X3606125Y6354749D01*
X3606125Y6354749D02*
G01*
X3603214Y6339799D01*
X3603214Y6339799D02*
G01*
X3602238Y6324600D01*
X3602238Y6324600D02*
G01*
X3603214Y6309400D01*
X3603214Y6309400D02*
G01*
X3606125Y6294450D01*
X3606125Y6294450D02*
G01*
X3610924Y6279995D01*
X3610924Y6279995D02*
G01*
X3617533Y6266272D01*
X3617533Y6266272D02*
G01*
X3625842Y6253507D01*
X3625842Y6253507D02*
G01*
X3635715Y6241909D01*
X3635715Y6241909D02*
G01*
X3646990Y6231670D01*
X3646990Y6231670D02*
G01*
X3659482Y6222956D01*
X3659482Y6222956D02*
G01*
X3672986Y6215911D01*
X3672986Y6215911D02*
G01*
X3687280Y6210651D01*
X3687280Y6210651D02*
G01*
X3702129Y6207261D01*
X3702129Y6207261D02*
G01*
X3717290Y6205799D01*
X3717290Y6205799D02*
G01*
X3732513Y6206287D01*
X3732513Y6206287D02*
G01*
X3747549Y6208718D01*
X3747549Y6208718D02*
G01*
X3762150Y6213051D01*
X3762150Y6213051D02*
G01*
X3776078Y6219217D01*
X3776078Y6219217D02*
G01*
X3789102Y6227112D01*
X3789102Y6227112D02*
G01*
X3801010Y6236609D01*
X3801010Y6236609D02*
G01*
X3811606Y6247550D01*
X3811606Y6247550D02*
G01*
X3820716Y6259756D01*
X3820716Y6259756D02*
G01*
X3828190Y6273027D01*
X3828190Y6273027D02*
G01*
X3833906Y6287145D01*
X3833906Y6287145D02*
G01*
X3837769Y6301878D01*
X3837769Y6301878D02*
G01*
X3839717Y6316984D01*
X3839717Y6316984D02*
G01*
X3839717Y6332215D01*
X3839717Y6332215D02*
G01*
X3837769Y6347321D01*
X3837769Y6347321D02*
G01*
X3833906Y6362054D01*
X3833906Y6362054D02*
G01*
X3828190Y6376172D01*
X3828190Y6376172D02*
G01*
X3820716Y6389443D01*
X3820716Y6389443D02*
G01*
X3812809Y6400037D01*
X3812809Y6400037D02*
G01*
X3883541Y6400037D01*
X3883541Y6400037D02*
G01*
X3879842Y6395692D01*
X3879842Y6395692D02*
G01*
X3871533Y6382927D01*
X3871533Y6382927D02*
G01*
X3864924Y6369204D01*
X3864924Y6369204D02*
G01*
X3860125Y6354749D01*
X3860125Y6354749D02*
G01*
X3857214Y6339799D01*
X3857214Y6339799D02*
G01*
X3856238Y6324600D01*
X3856238Y6324600D02*
G01*
X3857214Y6309400D01*
X3857214Y6309400D02*
G01*
X3860125Y6294450D01*
X3860125Y6294450D02*
G01*
X3864924Y6279995D01*
X3864924Y6279995D02*
G01*
X3871533Y6266272D01*
X3871533Y6266272D02*
G01*
X3879842Y6253507D01*
X3879842Y6253507D02*
G01*
X3889715Y6241909D01*
X3889715Y6241909D02*
G01*
X3900990Y6231670D01*
X3900990Y6231670D02*
G01*
X3913482Y6222956D01*
X3913482Y6222956D02*
G01*
X3926986Y6215911D01*
X3926986Y6215911D02*
G01*
X3941280Y6210651D01*
X3941280Y6210651D02*
G01*
X3956129Y6207261D01*
X3956129Y6207261D02*
G01*
X3971290Y6205799D01*
X3971290Y6205799D02*
G01*
X3986513Y6206287D01*
X3986513Y6206287D02*
G01*
X4001549Y6208718D01*
X4001549Y6208718D02*
G01*
X4016150Y6213051D01*
X4016150Y6213051D02*
G01*
X4019564Y6214563D01*
X4019564Y6214563D02*
G01*
X4108605Y6125522D01*
X4108605Y6125522D02*
G01*
X4116137Y6119423D01*
X4116137Y6119423D02*
G01*
X4124773Y6115023D01*
X4124773Y6115023D02*
G01*
X4134136Y6112514D01*
X4134136Y6112514D02*
G01*
X4141388Y6111943D01*
X4141388Y6111943D02*
G01*
X4315586Y6111943D01*
X4315586Y6111943D02*
G01*
X4319923Y6107222D01*
X4319923Y6107222D02*
G01*
X4329231Y6100027D01*
X4329231Y6100027D02*
G01*
X4339621Y6094509D01*
X4339621Y6094509D02*
G01*
X4350795Y6090826D01*
X4350795Y6090826D02*
G01*
X4362430Y6089084D01*
X4362430Y6089084D02*
G01*
X4374192Y6089334D01*
X4374192Y6089334D02*
G01*
X4385742Y6091568D01*
X4385742Y6091568D02*
G01*
X4396749Y6095721D01*
X4396749Y6095721D02*
G01*
X4406896Y6101676D01*
X4406896Y6101676D02*
G01*
X4415890Y6109259D01*
X4415890Y6109259D02*
G01*
X4423474Y6118253D01*
X4423474Y6118253D02*
G01*
X4429428Y6128400D01*
X4429428Y6128400D02*
G01*
X4433582Y6139407D01*
X4433582Y6139407D02*
G01*
X4435816Y6150958D01*
X4435816Y6150958D02*
G01*
X4436065Y6162720D01*
X4436065Y6162720D02*
G01*
X4434324Y6174355D01*
X4434324Y6174355D02*
G01*
X4430641Y6185528D01*
X4430641Y6185528D02*
G01*
X4425122Y6195918D01*
X4425122Y6195918D02*
G01*
X4417928Y6205226D01*
X4417928Y6205226D02*
G01*
X4409263Y6213185D01*
X4409263Y6213185D02*
G01*
X4399379Y6219564D01*
X4399379Y6219564D02*
G01*
X4388558Y6224182D01*
X4388558Y6224182D02*
G01*
X4377112Y6226904D01*
X4377112Y6226904D02*
G01*
X4365372Y6227652D01*
X4365372Y6227652D02*
G01*
X4353673Y6226406D01*
X4353673Y6226406D02*
G01*
X4342354Y6223201D01*
X4342354Y6223201D02*
G01*
X4331738Y6218128D01*
X4331738Y6218128D02*
G01*
X4322133Y6211335D01*
X4322133Y6211335D02*
G01*
X4315467Y6204668D01*
X4315467Y6204668D02*
G01*
X4160592Y6204668D01*
X4160592Y6204668D02*
G01*
X4085085Y6280176D01*
X4085085Y6280176D02*
G01*
X4087906Y6287145D01*
X4087906Y6287145D02*
G01*
X4091769Y6301878D01*
X4091769Y6301878D02*
G01*
X4093717Y6316984D01*
X4093717Y6316984D02*
G01*
X4093717Y6332215D01*
X4093717Y6332215D02*
G01*
X4091769Y6347321D01*
X4091769Y6347321D02*
G01*
X4087906Y6362054D01*
X4087906Y6362054D02*
G01*
X4082190Y6376172D01*
X4082190Y6376172D02*
G01*
X4074716Y6389443D01*
X4074716Y6389443D02*
G01*
X4066809Y6400037D01*
X4066809Y6400037D02*
G01*
X4391541Y6400037D01*
X4391541Y6400037D02*
G01*
X4387842Y6395692D01*
X4387842Y6395692D02*
G01*
X4379533Y6382927D01*
X4379533Y6382927D02*
G01*
X4372924Y6369204D01*
X4372924Y6369204D02*
G01*
X4368125Y6354749D01*
X4368125Y6354749D02*
G01*
X4365214Y6339799D01*
X4365214Y6339799D02*
G01*
X4364238Y6324600D01*
X4364238Y6324600D02*
G01*
X4365214Y6309400D01*
X4365214Y6309400D02*
G01*
X4368125Y6294450D01*
X4368125Y6294450D02*
G01*
X4372924Y6279995D01*
X4372924Y6279995D02*
G01*
X4379533Y6266272D01*
X4379533Y6266272D02*
G01*
X4387842Y6253507D01*
X4387842Y6253507D02*
G01*
X4397715Y6241909D01*
X4397715Y6241909D02*
G01*
X4408990Y6231670D01*
X4408990Y6231670D02*
G01*
X4421482Y6222956D01*
X4421482Y6222956D02*
G01*
X4434986Y6215911D01*
X4434986Y6215911D02*
G01*
X4449280Y6210651D01*
X4449280Y6210651D02*
G01*
X4464129Y6207261D01*
X4464129Y6207261D02*
G01*
X4479290Y6205799D01*
X4479290Y6205799D02*
G01*
X4494513Y6206287D01*
X4494513Y6206287D02*
G01*
X4509549Y6208718D01*
X4509549Y6208718D02*
G01*
X4524150Y6213051D01*
X4524150Y6213051D02*
G01*
X4538078Y6219217D01*
X4538078Y6219217D02*
G01*
X4541539Y6221315D01*
X4541539Y6221315D02*
G01*
X4611283Y6151570D01*
X4611283Y6151570D02*
G01*
X4610347Y6150908D01*
X4610347Y6150908D02*
G01*
X4602028Y6142589D01*
X4602028Y6142589D02*
G01*
X4595235Y6132984D01*
X4595235Y6132984D02*
G01*
X4590163Y6122369D01*
X4590163Y6122369D02*
G01*
X4586957Y6111050D01*
X4586957Y6111050D02*
G01*
X4585711Y6099351D01*
X4585711Y6099351D02*
G01*
X4586459Y6087611D01*
X4586459Y6087611D02*
G01*
X4589182Y6076165D01*
X4589182Y6076165D02*
G01*
X4593799Y6065344D01*
X4593799Y6065344D02*
G01*
X4600179Y6055460D01*
X4600179Y6055460D02*
G01*
X4608137Y6046795D01*
X4608137Y6046795D02*
G01*
X4617445Y6039600D01*
X4617445Y6039600D02*
G01*
X4620437Y6038011D01*
X4620437Y6038011D02*
G01*
X4620437Y5971301D01*
X4620437Y5971301D02*
G01*
X4621412Y5962653D01*
X4621412Y5962653D02*
G01*
X4624286Y5954439D01*
X4624286Y5954439D02*
G01*
X4628916Y5947071D01*
X4628916Y5947071D02*
G01*
X4635069Y5940917D01*
X4635069Y5940917D02*
G01*
X4642438Y5936287D01*
X4642438Y5936287D02*
G01*
X4650652Y5933413D01*
X4650652Y5933413D02*
G01*
X4659299Y5932439D01*
X4659299Y5932439D02*
G01*
X4713300Y5932439D01*
X4713300Y5932439D02*
G01*
X4721947Y5933413D01*
X4721947Y5933413D02*
G01*
X4730161Y5936287D01*
X4730161Y5936287D02*
G01*
X4737530Y5940917D01*
X4737530Y5940917D02*
G01*
X4743683Y5947071D01*
X4743683Y5947071D02*
G01*
X4748313Y5954439D01*
X4748313Y5954439D02*
G01*
X4751187Y5962653D01*
X4751187Y5962653D02*
G01*
X4752162Y5971301D01*
X4752162Y5971301D02*
G01*
X4752162Y6015032D01*
X4752162Y6015032D02*
G01*
X4754871Y6013651D01*
X4754871Y6013651D02*
G01*
X4764233Y6011142D01*
X4764233Y6011142D02*
G01*
X4771486Y6010572D01*
X4771486Y6010572D02*
G01*
X4785537Y6010572D01*
X4785537Y6010572D02*
G01*
X4785537Y5958598D01*
X4785537Y5958598D02*
G01*
X4786512Y5949951D01*
X4786512Y5949951D02*
G01*
X4788422Y5944490D01*
X4788422Y5944490D02*
G01*
X4782829Y5942672D01*
X4782829Y5942672D02*
G01*
X4774435Y5937826D01*
X4774435Y5937826D02*
G01*
X4768903Y5933101D01*
X4768903Y5933101D02*
G01*
X4721599Y5885797D01*
X4721599Y5885797D02*
G01*
X4503924Y5885797D01*
X4503924Y5885797D02*
G01*
X4434216Y5955504D01*
X4434216Y5955504D02*
G01*
X4441248Y5955654D01*
X4441248Y5955654D02*
G01*
X4452798Y5957888D01*
X4452798Y5957888D02*
G01*
X4457375Y5959614D01*
X4457375Y5959614D02*
G01*
X4459186Y5954439D01*
X4459186Y5954439D02*
G01*
X4463816Y5947071D01*
X4463816Y5947071D02*
G01*
X4469969Y5940917D01*
X4469969Y5940917D02*
G01*
X4477338Y5936287D01*
X4477338Y5936287D02*
G01*
X4485552Y5933413D01*
X4485552Y5933413D02*
G01*
X4494199Y5932439D01*
X4494199Y5932439D02*
G01*
X4548200Y5932439D01*
X4548200Y5932439D02*
G01*
X4556847Y5933413D01*
X4556847Y5933413D02*
G01*
X4565061Y5936287D01*
X4565061Y5936287D02*
G01*
X4572430Y5940917D01*
X4572430Y5940917D02*
G01*
X4578583Y5947071D01*
X4578583Y5947071D02*
G01*
X4583213Y5954439D01*
X4583213Y5954439D02*
G01*
X4586087Y5962653D01*
X4586087Y5962653D02*
G01*
X4587062Y5971301D01*
X4587062Y5971301D02*
G01*
X4587062Y6050310D01*
X4587062Y6050310D02*
G01*
X4586087Y6058958D01*
X4586087Y6058958D02*
G01*
X4583213Y6067172D01*
X4583213Y6067172D02*
G01*
X4578583Y6074540D01*
X4578583Y6074540D02*
G01*
X4572430Y6080693D01*
X4572430Y6080693D02*
G01*
X4565061Y6085323D01*
X4565061Y6085323D02*
G01*
X4556847Y6088198D01*
X4556847Y6088198D02*
G01*
X4548200Y6089172D01*
X4548200Y6089172D02*
G01*
X4494199Y6089172D01*
X4494199Y6089172D02*
G01*
X4485552Y6088198D01*
X4485552Y6088198D02*
G01*
X4477338Y6085323D01*
X4477338Y6085323D02*
G01*
X4472253Y6082129D01*
X4472253Y6082129D02*
G01*
X4466435Y6085884D01*
X4466435Y6085884D02*
G01*
X4455614Y6090501D01*
X4455614Y6090501D02*
G01*
X4444168Y6093224D01*
X4444168Y6093224D02*
G01*
X4432428Y6093972D01*
X4432428Y6093972D02*
G01*
X4420729Y6092726D01*
X4420729Y6092726D02*
G01*
X4409410Y6089520D01*
X4409410Y6089520D02*
G01*
X4398794Y6084448D01*
X4398794Y6084448D02*
G01*
X4389189Y6077655D01*
X4389189Y6077655D02*
G01*
X4382523Y6070988D01*
X4382523Y6070988D02*
G01*
X2903316Y6070988D01*
X2903316Y6070988D02*
G01*
X2893677Y6069975D01*
X2893677Y6069975D02*
G01*
X2884459Y6066980D01*
X2884459Y6066980D02*
G01*
X2876065Y6062134D01*
X2876065Y6062134D02*
G01*
X2870533Y6057409D01*
X2870533Y6057409D02*
G01*
X2836014Y6022890D01*
X2836014Y6022890D02*
G01*
X2829914Y6015358D01*
X2829914Y6015358D02*
G01*
X2826443Y6008964D01*
X2826443Y6008964D02*
G01*
X2825391Y6006261D01*
X2825391Y6006261D02*
G01*
X2818803Y6006261D01*
X2818803Y6006261D02*
G01*
X2810155Y6005287D01*
X2810155Y6005287D02*
G01*
X2801941Y6002413D01*
X2801941Y6002413D02*
G01*
X2794761Y5997902D01*
X2794761Y6035219D02*
G01*
X2823720Y6006261D01*
X2794761Y6107061D02*
G01*
X2857473Y6044350D01*
X2794761Y6178904D02*
G01*
X2902738Y6070927D01*
X2794761Y6250746D02*
G01*
X2974519Y6070988D01*
X2794761Y6322588D02*
G01*
X2863842Y6253507D01*
X2887269Y6230080D02*
G01*
X3046361Y6070988D01*
X2794761Y6394430D02*
G01*
X2842547Y6346645D01*
X2981180Y6208011D02*
G01*
X3118203Y6070988D01*
X2860996Y6400037D02*
G01*
X2864531Y6396502D01*
X3030896Y6230137D02*
G01*
X3190045Y6070988D01*
X3063905Y6268970D02*
G01*
X3261887Y6070988D01*
X3077717Y6327000D02*
G01*
X3095206Y6309511D01*
X3197811Y6206906D02*
G01*
X3333729Y6070988D01*
X3076522Y6400037D02*
G01*
X3104365Y6372195D01*
X3260637Y6215923D02*
G01*
X3405571Y6070988D01*
X3302251Y6246150D02*
G01*
X3477413Y6070988D01*
X3327400Y6292843D02*
G01*
X3549255Y6070988D01*
X3323100Y6368986D02*
G01*
X3349714Y6342371D01*
X3484785Y6207301D02*
G01*
X3621097Y6070988D01*
X3363890Y6400037D02*
G01*
X3370420Y6393507D01*
X3536055Y6227872D02*
G01*
X3692940Y6070988D01*
X3570066Y6265704D02*
G01*
X3764781Y6070988D01*
X3585717Y6321895D02*
G01*
X3604423Y6303189D01*
X3699824Y6207787D02*
G01*
X3836624Y6070988D01*
X3579416Y6400037D02*
G01*
X3610756Y6368697D01*
X3765098Y6214356D02*
G01*
X3908466Y6070988D01*
X3807739Y6243557D02*
G01*
X3980308Y6070988D01*
X3834340Y6288798D02*
G01*
X4052150Y6070988D01*
X3834254Y6360726D02*
G01*
X3857091Y6337889D01*
X3988390Y6206590D02*
G01*
X4123992Y6070988D01*
X3866785Y6400037D02*
G01*
X3876407Y6390415D01*
X4154879Y6111943D02*
G01*
X4195834Y6070988D01*
X4226721Y6111943D02*
G01*
X4267676Y6070988D01*
X4093695Y6316811D02*
G01*
X4205838Y6204668D01*
X4298563Y6111943D02*
G01*
X4339518Y6070988D01*
X4452648Y5957858D02*
G01*
X4524709Y5885797D01*
X4082311Y6400037D02*
G01*
X4277680Y6204668D01*
X4389400Y6092948D02*
G01*
X4398270Y6084078D01*
X4549736Y5932612D02*
G01*
X4596551Y5885797D01*
X4154153Y6400037D02*
G01*
X4334664Y6219526D01*
X4428083Y6126108D02*
G01*
X4471712Y6082478D01*
X4586639Y5967551D02*
G01*
X4668394Y5885797D01*
X4225995Y6400037D02*
G01*
X4536860Y6089172D01*
X4587062Y6038970D02*
G01*
X4620437Y6005595D01*
X4693593Y5932439D02*
G01*
X4730917Y5895115D01*
X4297837Y6400037D02*
G01*
X4364783Y6333091D01*
X4491678Y6206196D02*
G01*
X4586944Y6110930D01*
X4746431Y5951444D02*
G01*
X4766838Y5931036D01*
X4369679Y6400037D02*
G01*
X4382394Y6387322D01*
X4756502Y6013214D02*
G01*
X4785537Y5984179D01*
X4681049Y5885797D02*
G01*
X4733869Y5938617D01*
X4745983Y5950732D02*
G01*
X4785537Y5990285D01*
X4609207Y5885797D02*
G01*
X4656198Y5932788D01*
X4537365Y5885797D02*
G01*
X4620683Y5969116D01*
X4484723Y5904997D02*
G01*
X4512164Y5932439D01*
X4587062Y6007336D02*
G01*
X4618674Y6038948D01*
X4448802Y5940919D02*
G01*
X4460396Y5952513D01*
X4580065Y6072181D02*
G01*
X4588195Y6080312D01*
X4525214Y6089172D02*
G01*
X4599448Y6163406D01*
X4454877Y6090677D02*
G01*
X4563527Y6199327D01*
X4363346Y6070988D02*
G01*
X4383490Y6091132D01*
X4434018Y6141660D02*
G01*
X4499441Y6207084D01*
X4291504Y6070988D02*
G01*
X4324330Y6103815D01*
X4421335Y6200819D02*
G01*
X4436039Y6215523D01*
X4219662Y6070988D02*
G01*
X4260617Y6111943D01*
X4375669Y6226996D02*
G01*
X4394435Y6245762D01*
X4147820Y6070988D02*
G01*
X4188774Y6111943D01*
X4281500Y6204668D02*
G01*
X4368912Y6292080D01*
X4075978Y6070988D02*
G01*
X4121619Y6116630D01*
X4209658Y6204668D02*
G01*
X4372294Y6367304D01*
X4004136Y6070988D02*
G01*
X4083637Y6150490D01*
X4149204Y6216057D02*
G01*
X4333185Y6400037D01*
X3932293Y6070988D02*
G01*
X4047716Y6186411D01*
X4113283Y6251978D02*
G01*
X4261343Y6400037D01*
X3860452Y6070988D02*
G01*
X3997532Y6208068D01*
X4091833Y6302369D02*
G01*
X4189501Y6400037D01*
X3788609Y6070988D02*
G01*
X3931771Y6214150D01*
X4085534Y6367913D02*
G01*
X4117659Y6400037D01*
X3716767Y6070988D02*
G01*
X3888783Y6243004D01*
X3644925Y6070988D02*
G01*
X3862184Y6288247D01*
X3573083Y6070988D02*
G01*
X3708721Y6206625D01*
X3839100Y6337005D02*
G01*
X3861756Y6359661D01*
X3501241Y6070988D02*
G01*
X3655787Y6225534D01*
X3820280Y6390027D02*
G01*
X3830291Y6400037D01*
X3429399Y6070988D02*
G01*
X3620352Y6261941D01*
X3357557Y6070988D02*
G01*
X3496020Y6209451D01*
X3582107Y6295538D02*
G01*
X3602776Y6316208D01*
X3285715Y6070988D02*
G01*
X3427503Y6212776D01*
X3579005Y6364278D02*
G01*
X3614764Y6400037D01*
X3213873Y6070988D02*
G01*
X3383329Y6240444D01*
X3142031Y6070988D02*
G01*
X3355457Y6284414D01*
X3070189Y6070988D02*
G01*
X3205377Y6206176D01*
X3331683Y6332482D02*
G01*
X3351684Y6352483D01*
X2998347Y6070988D02*
G01*
X3150794Y6223436D01*
X3314188Y6386829D02*
G01*
X3327396Y6400037D01*
X2926505Y6070988D02*
G01*
X3114365Y6258849D01*
X2794761Y6011087D02*
G01*
X2995281Y6211606D01*
X3072292Y6288618D02*
G01*
X3095084Y6311410D01*
X2794761Y6082929D02*
G01*
X2923235Y6211403D01*
X3072317Y6360485D02*
G01*
X3111870Y6400037D01*
X2794761Y6154771D02*
G01*
X2878004Y6238014D01*
X2794761Y6226613D02*
G01*
X2848730Y6280581D01*
X2794761Y6298455D02*
G01*
X2842449Y6346143D01*
X2794761Y6370297D02*
G01*
X2824502Y6400037D01*
X2794761Y5655744D02*
G01*
X2794761Y5736897D01*
X2794761Y5736897D02*
G01*
X2801941Y5732386D01*
X2801941Y5732386D02*
G01*
X2810155Y5729512D01*
X2810155Y5729512D02*
G01*
X2818803Y5728538D01*
X2818803Y5728538D02*
G01*
X2918802Y5728538D01*
X2918802Y5728538D02*
G01*
X2927450Y5729512D01*
X2927450Y5729512D02*
G01*
X2935664Y5732386D01*
X2935664Y5732386D02*
G01*
X2943032Y5737016D01*
X2943032Y5737016D02*
G01*
X2949186Y5743170D01*
X2949186Y5743170D02*
G01*
X2953816Y5750538D01*
X2953816Y5750538D02*
G01*
X2956690Y5758752D01*
X2956690Y5758752D02*
G01*
X2957664Y5767400D01*
X2957664Y5767400D02*
G01*
X2957664Y5967399D01*
X2957664Y5967399D02*
G01*
X2956690Y5976047D01*
X2956690Y5976047D02*
G01*
X2955915Y5978263D01*
X2955915Y5978263D02*
G01*
X3028150Y5978263D01*
X3028150Y5978263D02*
G01*
X3025944Y5969549D01*
X3025944Y5969549D02*
G01*
X3024936Y5957392D01*
X3024936Y5957392D02*
G01*
X3025944Y5945234D01*
X3025944Y5945234D02*
G01*
X3028938Y5933408D01*
X3028938Y5933408D02*
G01*
X3033839Y5922237D01*
X3033839Y5922237D02*
G01*
X3040511Y5912024D01*
X3040511Y5912024D02*
G01*
X3048773Y5903049D01*
X3048773Y5903049D02*
G01*
X3058400Y5895556D01*
X3058400Y5895556D02*
G01*
X3069129Y5889750D01*
X3069129Y5889750D02*
G01*
X3080667Y5885789D01*
X3080667Y5885789D02*
G01*
X3092700Y5883781D01*
X3092700Y5883781D02*
G01*
X3104899Y5883781D01*
X3104899Y5883781D02*
G01*
X3116932Y5885789D01*
X3116932Y5885789D02*
G01*
X3128470Y5889750D01*
X3128470Y5889750D02*
G01*
X3139199Y5895556D01*
X3139199Y5895556D02*
G01*
X3148826Y5903049D01*
X3148826Y5903049D02*
G01*
X3157088Y5912024D01*
X3157088Y5912024D02*
G01*
X3163760Y5922237D01*
X3163760Y5922237D02*
G01*
X3168661Y5933408D01*
X3168661Y5933408D02*
G01*
X3171655Y5945234D01*
X3171655Y5945234D02*
G01*
X3172663Y5957392D01*
X3172663Y5957392D02*
G01*
X3171655Y5969549D01*
X3171655Y5969549D02*
G01*
X3169449Y5978263D01*
X3169449Y5978263D02*
G01*
X4382642Y5978263D01*
X4382642Y5978263D02*
G01*
X4386338Y5974240D01*
X4386338Y5974240D02*
G01*
X4126148Y5974240D01*
X4126148Y5974240D02*
G01*
X4116509Y5973226D01*
X4116509Y5973226D02*
G01*
X4107291Y5970231D01*
X4107291Y5970231D02*
G01*
X4098897Y5965385D01*
X4098897Y5965385D02*
G01*
X4093365Y5960660D01*
X4093365Y5960660D02*
G01*
X3919467Y5786762D01*
X3919467Y5786762D02*
G01*
X3744319Y5786762D01*
X3744319Y5786762D02*
G01*
X3737366Y5793163D01*
X3737366Y5793163D02*
G01*
X3728122Y5799203D01*
X3728122Y5799203D02*
G01*
X3718009Y5803638D01*
X3718009Y5803638D02*
G01*
X3707304Y5806349D01*
X3707304Y5806349D02*
G01*
X3696299Y5807261D01*
X3696299Y5807261D02*
G01*
X3577798Y5807261D01*
X3577798Y5807261D02*
G01*
X3566793Y5806349D01*
X3566793Y5806349D02*
G01*
X3556088Y5803638D01*
X3556088Y5803638D02*
G01*
X3545975Y5799203D01*
X3545975Y5799203D02*
G01*
X3536731Y5793163D01*
X3536731Y5793163D02*
G01*
X3528606Y5785684D01*
X3528606Y5785684D02*
G01*
X3521823Y5776969D01*
X3521823Y5776969D02*
G01*
X3516568Y5767257D01*
X3516568Y5767257D02*
G01*
X3512982Y5756813D01*
X3512982Y5756813D02*
G01*
X3511164Y5745921D01*
X3511164Y5745921D02*
G01*
X3511164Y5736860D01*
X3511164Y5736860D02*
G01*
X3505449Y5735241D01*
X3505449Y5735241D02*
G01*
X3494834Y5730169D01*
X3494834Y5730169D02*
G01*
X3485229Y5723376D01*
X3485229Y5723376D02*
G01*
X3476910Y5715057D01*
X3476910Y5715057D02*
G01*
X3470117Y5705452D01*
X3470117Y5705452D02*
G01*
X3465044Y5694836D01*
X3465044Y5694836D02*
G01*
X3461839Y5683517D01*
X3461839Y5683517D02*
G01*
X3460593Y5671818D01*
X3460593Y5671818D02*
G01*
X3461341Y5660078D01*
X3461341Y5660078D02*
G01*
X3464063Y5648632D01*
X3464063Y5648632D02*
G01*
X3468680Y5637811D01*
X3468680Y5637811D02*
G01*
X3475060Y5627927D01*
X3475060Y5627927D02*
G01*
X3483018Y5619262D01*
X3483018Y5619262D02*
G01*
X3492327Y5612068D01*
X3492327Y5612068D02*
G01*
X3502717Y5606549D01*
X3502717Y5606549D02*
G01*
X3511891Y5603525D01*
X3511891Y5603525D02*
G01*
X3512982Y5596986D01*
X3512982Y5596986D02*
G01*
X3516568Y5586542D01*
X3516568Y5586542D02*
G01*
X3521823Y5576830D01*
X3521823Y5576830D02*
G01*
X3528606Y5568115D01*
X3528606Y5568115D02*
G01*
X3536731Y5560636D01*
X3536731Y5560636D02*
G01*
X3545975Y5554596D01*
X3545975Y5554596D02*
G01*
X3556088Y5550161D01*
X3556088Y5550161D02*
G01*
X3556088Y5549638D01*
X3556088Y5549638D02*
G01*
X3545975Y5545203D01*
X3545975Y5545203D02*
G01*
X3536731Y5539163D01*
X3536731Y5539163D02*
G01*
X3528606Y5531684D01*
X3528606Y5531684D02*
G01*
X3521823Y5522969D01*
X3521823Y5522969D02*
G01*
X3516568Y5513257D01*
X3516568Y5513257D02*
G01*
X3512982Y5502813D01*
X3512982Y5502813D02*
G01*
X3511164Y5491921D01*
X3511164Y5491921D02*
G01*
X3511164Y5480878D01*
X3511164Y5480878D02*
G01*
X3512982Y5469986D01*
X3512982Y5469986D02*
G01*
X3516568Y5459542D01*
X3516568Y5459542D02*
G01*
X3519577Y5453981D01*
X3519577Y5453981D02*
G01*
X3515662Y5451721D01*
X3515662Y5451721D02*
G01*
X3510130Y5446996D01*
X3510130Y5446996D02*
G01*
X3482444Y5419310D01*
X3482444Y5419310D02*
G01*
X3476344Y5411778D01*
X3476344Y5411778D02*
G01*
X3471944Y5403142D01*
X3471944Y5403142D02*
G01*
X3469436Y5393779D01*
X3469436Y5393779D02*
G01*
X3468865Y5386527D01*
X3468865Y5386527D02*
G01*
X3468865Y5322647D01*
X3468865Y5322647D02*
G01*
X3466666Y5320449D01*
X3466666Y5320449D02*
G01*
X3463458Y5322465D01*
X3463458Y5322465D02*
G01*
X3455244Y5325339D01*
X3455244Y5325339D02*
G01*
X3446597Y5326313D01*
X3446597Y5326313D02*
G01*
X3366490Y5326313D01*
X3366490Y5326313D02*
G01*
X3366490Y5466473D01*
X3366490Y5466473D02*
G01*
X3366254Y5470682D01*
X3366254Y5470682D02*
G01*
X3364979Y5476811D01*
X3364979Y5476811D02*
G01*
X3377960Y5479634D01*
X3377960Y5479634D02*
G01*
X3391176Y5484564D01*
X3391176Y5484564D02*
G01*
X3403556Y5491324D01*
X3403556Y5491324D02*
G01*
X3414848Y5499777D01*
X3414848Y5499777D02*
G01*
X3424822Y5509751D01*
X3424822Y5509751D02*
G01*
X3433275Y5521043D01*
X3433275Y5521043D02*
G01*
X3440035Y5533423D01*
X3440035Y5533423D02*
G01*
X3444964Y5546639D01*
X3444964Y5546639D02*
G01*
X3447963Y5560422D01*
X3447963Y5560422D02*
G01*
X3448969Y5574492D01*
X3448969Y5574492D02*
G01*
X3447963Y5588561D01*
X3447963Y5588561D02*
G01*
X3444964Y5602344D01*
X3444964Y5602344D02*
G01*
X3440035Y5615561D01*
X3440035Y5615561D02*
G01*
X3433275Y5627940D01*
X3433275Y5627940D02*
G01*
X3424822Y5639233D01*
X3424822Y5639233D02*
G01*
X3414848Y5649207D01*
X3414848Y5649207D02*
G01*
X3403556Y5657660D01*
X3403556Y5657660D02*
G01*
X3391176Y5664420D01*
X3391176Y5664420D02*
G01*
X3377960Y5669349D01*
X3377960Y5669349D02*
G01*
X3364177Y5672347D01*
X3364177Y5672347D02*
G01*
X3350107Y5673354D01*
X3350107Y5673354D02*
G01*
X3270107Y5673354D01*
X3270107Y5673354D02*
G01*
X3256038Y5672347D01*
X3256038Y5672347D02*
G01*
X3242255Y5669349D01*
X3242255Y5669349D02*
G01*
X3229039Y5664420D01*
X3229039Y5664420D02*
G01*
X3216659Y5657660D01*
X3216659Y5657660D02*
G01*
X3205366Y5649207D01*
X3205366Y5649207D02*
G01*
X3195392Y5639233D01*
X3195392Y5639233D02*
G01*
X3186939Y5627940D01*
X3186939Y5627940D02*
G01*
X3180179Y5615561D01*
X3180179Y5615561D02*
G01*
X3175250Y5602344D01*
X3175250Y5602344D02*
G01*
X3172252Y5588561D01*
X3172252Y5588561D02*
G01*
X3171245Y5574492D01*
X3171245Y5574492D02*
G01*
X3172252Y5560422D01*
X3172252Y5560422D02*
G01*
X3175250Y5546639D01*
X3175250Y5546639D02*
G01*
X3180179Y5533423D01*
X3180179Y5533423D02*
G01*
X3186939Y5521043D01*
X3186939Y5521043D02*
G01*
X3195392Y5509751D01*
X3195392Y5509751D02*
G01*
X3199808Y5505335D01*
X3199808Y5505335D02*
G01*
X3040900Y5505335D01*
X3040900Y5505335D02*
G01*
X3044815Y5509251D01*
X3044815Y5509251D02*
G01*
X3053268Y5520543D01*
X3053268Y5520543D02*
G01*
X3060028Y5532923D01*
X3060028Y5532923D02*
G01*
X3064958Y5546139D01*
X3064958Y5546139D02*
G01*
X3067956Y5559922D01*
X3067956Y5559922D02*
G01*
X3068962Y5573991D01*
X3068962Y5573991D02*
G01*
X3067956Y5588061D01*
X3067956Y5588061D02*
G01*
X3064958Y5601844D01*
X3064958Y5601844D02*
G01*
X3060028Y5615060D01*
X3060028Y5615060D02*
G01*
X3053268Y5627440D01*
X3053268Y5627440D02*
G01*
X3044815Y5638732D01*
X3044815Y5638732D02*
G01*
X3034841Y5648706D01*
X3034841Y5648706D02*
G01*
X3023549Y5657159D01*
X3023549Y5657159D02*
G01*
X3011169Y5663919D01*
X3011169Y5663919D02*
G01*
X2997953Y5668849D01*
X2997953Y5668849D02*
G01*
X2984170Y5671847D01*
X2984170Y5671847D02*
G01*
X2970100Y5672853D01*
X2970100Y5672853D02*
G01*
X2850100Y5672853D01*
X2850100Y5672853D02*
G01*
X2836031Y5671847D01*
X2836031Y5671847D02*
G01*
X2822248Y5668849D01*
X2822248Y5668849D02*
G01*
X2809032Y5663919D01*
X2809032Y5663919D02*
G01*
X2796652Y5657159D01*
X2796652Y5657159D02*
G01*
X2794761Y5655744D01*
X3048773Y5723064D02*
G01*
X3058400Y5715572D01*
X3058400Y5715572D02*
G01*
X3069129Y5709765D01*
X3069129Y5709765D02*
G01*
X3080667Y5705804D01*
X3080667Y5705804D02*
G01*
X3092700Y5703796D01*
X3092700Y5703796D02*
G01*
X3104899Y5703796D01*
X3104899Y5703796D02*
G01*
X3116932Y5705804D01*
X3116932Y5705804D02*
G01*
X3128470Y5709765D01*
X3128470Y5709765D02*
G01*
X3139199Y5715572D01*
X3139199Y5715572D02*
G01*
X3148826Y5723064D01*
X3148826Y5723064D02*
G01*
X3157088Y5732040D01*
X3157088Y5732040D02*
G01*
X3163760Y5742252D01*
X3163760Y5742252D02*
G01*
X3168661Y5753424D01*
X3168661Y5753424D02*
G01*
X3171655Y5765250D01*
X3171655Y5765250D02*
G01*
X3172663Y5777407D01*
X3172663Y5777407D02*
G01*
X3171655Y5789565D01*
X3171655Y5789565D02*
G01*
X3168661Y5801391D01*
X3168661Y5801391D02*
G01*
X3163760Y5812562D01*
X3163760Y5812562D02*
G01*
X3157088Y5822775D01*
X3157088Y5822775D02*
G01*
X3148826Y5831750D01*
X3148826Y5831750D02*
G01*
X3139199Y5839243D01*
X3139199Y5839243D02*
G01*
X3128470Y5845049D01*
X3128470Y5845049D02*
G01*
X3116932Y5849010D01*
X3116932Y5849010D02*
G01*
X3104899Y5851018D01*
X3104899Y5851018D02*
G01*
X3092700Y5851018D01*
X3092700Y5851018D02*
G01*
X3080667Y5849010D01*
X3080667Y5849010D02*
G01*
X3069129Y5845049D01*
X3069129Y5845049D02*
G01*
X3058400Y5839243D01*
X3058400Y5839243D02*
G01*
X3048773Y5831750D01*
X3048773Y5831750D02*
G01*
X3040511Y5822775D01*
X3040511Y5822775D02*
G01*
X3033839Y5812562D01*
X3033839Y5812562D02*
G01*
X3028938Y5801391D01*
X3028938Y5801391D02*
G01*
X3025944Y5789565D01*
X3025944Y5789565D02*
G01*
X3024936Y5777407D01*
X3024936Y5777407D02*
G01*
X3025944Y5765250D01*
X3025944Y5765250D02*
G01*
X3028938Y5753424D01*
X3028938Y5753424D02*
G01*
X3033839Y5742252D01*
X3033839Y5742252D02*
G01*
X3040511Y5732040D01*
X3040511Y5732040D02*
G01*
X3048773Y5723064D01*
X2794761Y5676009D02*
G01*
X2807622Y5663149D01*
X2813475Y5729138D02*
G01*
X2869760Y5672853D01*
X2885917Y5728538D02*
G01*
X2941601Y5672853D01*
X3065558Y5548897D02*
G01*
X3109120Y5505335D01*
X2946157Y5740140D02*
G01*
X3180962Y5505335D01*
X2957664Y5800475D02*
G01*
X3172073Y5586066D01*
X3366490Y5391649D02*
G01*
X3431826Y5326313D01*
X2957664Y5872316D02*
G01*
X3028868Y5801113D01*
X3122325Y5707656D02*
G01*
X3193404Y5636577D01*
X3366490Y5463491D02*
G01*
X3468865Y5361116D01*
X2957664Y5944159D02*
G01*
X3061112Y5840711D01*
X3162105Y5739718D02*
G01*
X3235131Y5666692D01*
X3407527Y5494296D02*
G01*
X3482478Y5419345D01*
X2995402Y5978263D02*
G01*
X3025719Y5947946D01*
X3089320Y5884345D02*
G01*
X3128788Y5844877D01*
X3165837Y5807828D02*
G01*
X3300311Y5673354D01*
X3440091Y5533574D02*
G01*
X3519450Y5454215D01*
X3145245Y5900262D02*
G01*
X3375657Y5669850D01*
X3445465Y5600042D02*
G01*
X3522136Y5523371D01*
X3171690Y5945659D02*
G01*
X3462611Y5654738D01*
X3210928Y5978263D02*
G01*
X3475760Y5713431D01*
X3282770Y5978263D02*
G01*
X3511729Y5749304D01*
X3354612Y5978263D02*
G01*
X3538534Y5794341D01*
X3426454Y5978263D02*
G01*
X3597456Y5807261D01*
X3498297Y5978263D02*
G01*
X3669298Y5807261D01*
X3570139Y5978263D02*
G01*
X3761639Y5786762D01*
X3641981Y5978263D02*
G01*
X3833481Y5786762D01*
X3713823Y5978263D02*
G01*
X3905323Y5786762D01*
X3785665Y5978263D02*
G01*
X3948316Y5815611D01*
X3857507Y5978263D02*
G01*
X3984237Y5851532D01*
X3929349Y5978263D02*
G01*
X4020158Y5887454D01*
X4001191Y5978263D02*
G01*
X4056079Y5923374D01*
X4073033Y5978263D02*
G01*
X4092000Y5959296D01*
X4144875Y5978263D02*
G01*
X4148898Y5974240D01*
X4216717Y5978263D02*
G01*
X4220740Y5974240D01*
X4288559Y5978263D02*
G01*
X4292582Y5974240D01*
X4360401Y5978263D02*
G01*
X4364424Y5974240D01*
X4338439Y5974240D02*
G01*
X4342462Y5978263D01*
X4266597Y5974240D02*
G01*
X4270621Y5978263D01*
X4194755Y5974240D02*
G01*
X4198779Y5978263D01*
X4122533Y5973860D02*
G01*
X4126936Y5978263D01*
X3403145Y5326313D02*
G01*
X3469335Y5392504D01*
X3863593Y5786762D02*
G01*
X4055094Y5978263D01*
X3366490Y5361501D02*
G01*
X3515690Y5510700D01*
X3553487Y5548498D02*
G01*
X3555436Y5550447D01*
X3791752Y5786762D02*
G01*
X3983252Y5978263D01*
X3366490Y5433343D02*
G01*
X3517664Y5584516D01*
X3730679Y5797532D02*
G01*
X3911410Y5978263D01*
X3448090Y5586784D02*
G01*
X3481845Y5620540D01*
X3668566Y5807261D02*
G01*
X3839568Y5978263D01*
X3426480Y5637017D02*
G01*
X3460634Y5671171D01*
X3596725Y5807261D02*
G01*
X3767726Y5978263D01*
X3384523Y5666901D02*
G01*
X3695884Y5978263D01*
X3151114Y5505335D02*
G01*
X3179914Y5534135D01*
X3319133Y5673354D02*
G01*
X3624042Y5978263D01*
X3079272Y5505335D02*
G01*
X3174963Y5601026D01*
X3243573Y5669636D02*
G01*
X3552200Y5978263D01*
X3068413Y5566318D02*
G01*
X3480358Y5978263D01*
X3054831Y5624578D02*
G01*
X3408516Y5978263D01*
X3018388Y5659977D02*
G01*
X3068511Y5710100D01*
X3165959Y5807548D02*
G01*
X3336674Y5978263D01*
X2959422Y5672853D02*
G01*
X3032309Y5745740D01*
X3130513Y5843944D02*
G01*
X3264832Y5978263D01*
X2887580Y5672853D02*
G01*
X3098508Y5883781D01*
X3172621Y5957894D02*
G01*
X3192990Y5978263D01*
X2804125Y5661240D02*
G01*
X2871423Y5728538D01*
X2957664Y5814780D02*
G01*
X3047412Y5904527D01*
X2794761Y5723719D02*
G01*
X2803043Y5732000D01*
X2957664Y5886622D02*
G01*
X3025204Y5954161D01*
X2957664Y5958464D02*
G01*
X2977464Y5978263D01*
X2794761Y3645662D02*
G01*
X2794761Y4047797D01*
X2794761Y4047797D02*
G01*
X2801941Y4043286D01*
X2801941Y4043286D02*
G01*
X2810155Y4040412D01*
X2810155Y4040412D02*
G01*
X2818803Y4039438D01*
X2818803Y4039438D02*
G01*
X2825391Y4039438D01*
X2825391Y4039438D02*
G01*
X2826443Y4036735D01*
X2826443Y4036735D02*
G01*
X2831289Y4028341D01*
X2831289Y4028341D02*
G01*
X2836014Y4022809D01*
X2836014Y4022809D02*
G01*
X2872031Y3986792D01*
X2872031Y3986792D02*
G01*
X2879564Y3980692D01*
X2879564Y3980692D02*
G01*
X2888200Y3976292D01*
X2888200Y3976292D02*
G01*
X2897562Y3973783D01*
X2897562Y3973783D02*
G01*
X2904815Y3973212D01*
X2904815Y3973212D02*
G01*
X3363970Y3973212D01*
X3363970Y3973212D02*
G01*
X3373610Y3974225D01*
X3373610Y3974225D02*
G01*
X3382828Y3977221D01*
X3382828Y3977221D02*
G01*
X3391222Y3982067D01*
X3391222Y3982067D02*
G01*
X3396754Y3986792D01*
X3396754Y3986792D02*
G01*
X3452568Y4042606D01*
X3452568Y4042606D02*
G01*
X3453969Y4041206D01*
X3453969Y4041206D02*
G01*
X3461338Y4036576D01*
X3461338Y4036576D02*
G01*
X3469552Y4033701D01*
X3469552Y4033701D02*
G01*
X3478199Y4032727D01*
X3478199Y4032727D02*
G01*
X3532200Y4032727D01*
X3532200Y4032727D02*
G01*
X3540847Y4033701D01*
X3540847Y4033701D02*
G01*
X3549061Y4036576D01*
X3549061Y4036576D02*
G01*
X3556430Y4041206D01*
X3556430Y4041206D02*
G01*
X3562583Y4047359D01*
X3562583Y4047359D02*
G01*
X3567213Y4054727D01*
X3567213Y4054727D02*
G01*
X3570087Y4062941D01*
X3570087Y4062941D02*
G01*
X3570608Y4067564D01*
X3570608Y4067564D02*
G01*
X3573760Y4068737D01*
X3573760Y4068737D02*
G01*
X3582153Y4073583D01*
X3582153Y4073583D02*
G01*
X3587685Y4078308D01*
X3587685Y4078308D02*
G01*
X3591737Y4082360D01*
X3591737Y4082360D02*
G01*
X3592712Y4072687D01*
X3592712Y4072687D02*
G01*
X3595586Y4064473D01*
X3595586Y4064473D02*
G01*
X3600216Y4057105D01*
X3600216Y4057105D02*
G01*
X3606369Y4050952D01*
X3606369Y4050952D02*
G01*
X3613738Y4046322D01*
X3613738Y4046322D02*
G01*
X3621952Y4043447D01*
X3621952Y4043447D02*
G01*
X3630599Y4042473D01*
X3630599Y4042473D02*
G01*
X3684600Y4042473D01*
X3684600Y4042473D02*
G01*
X3693247Y4043447D01*
X3693247Y4043447D02*
G01*
X3701461Y4046322D01*
X3701461Y4046322D02*
G01*
X3708830Y4050952D01*
X3708830Y4050952D02*
G01*
X3714983Y4057105D01*
X3714983Y4057105D02*
G01*
X3719613Y4064473D01*
X3719613Y4064473D02*
G01*
X3719875Y4065221D01*
X3719875Y4065221D02*
G01*
X3726160Y4067264D01*
X3726160Y4067264D02*
G01*
X3732553Y4070735D01*
X3732553Y4070735D02*
G01*
X3735891Y4073314D01*
X3735891Y4073314D02*
G01*
X3772687Y4073314D01*
X3772687Y4073314D02*
G01*
X3777023Y4068592D01*
X3777023Y4068592D02*
G01*
X3786332Y4061398D01*
X3786332Y4061398D02*
G01*
X3796722Y4055879D01*
X3796722Y4055879D02*
G01*
X3807895Y4052196D01*
X3807895Y4052196D02*
G01*
X3819530Y4050455D01*
X3819530Y4050455D02*
G01*
X3831292Y4050704D01*
X3831292Y4050704D02*
G01*
X3832438Y4050926D01*
X3832438Y4050926D02*
G01*
X3832438Y4012600D01*
X3832438Y4012600D02*
G01*
X3833412Y4003952D01*
X3833412Y4003952D02*
G01*
X3836286Y3995739D01*
X3836286Y3995739D02*
G01*
X3840916Y3988370D01*
X3840916Y3988370D02*
G01*
X3847070Y3982217D01*
X3847070Y3982217D02*
G01*
X3854438Y3977587D01*
X3854438Y3977587D02*
G01*
X3862652Y3974712D01*
X3862652Y3974712D02*
G01*
X3871300Y3973738D01*
X3871300Y3973738D02*
G01*
X4231299Y3973738D01*
X4231299Y3973738D02*
G01*
X4239947Y3974712D01*
X4239947Y3974712D02*
G01*
X4248161Y3977587D01*
X4248161Y3977587D02*
G01*
X4255529Y3982217D01*
X4255529Y3982217D02*
G01*
X4261683Y3988370D01*
X4261683Y3988370D02*
G01*
X4266313Y3995739D01*
X4266313Y3995739D02*
G01*
X4269187Y4003952D01*
X4269187Y4003952D02*
G01*
X4270161Y4012600D01*
X4270161Y4012600D02*
G01*
X4270161Y4259600D01*
X4270161Y4259600D02*
G01*
X4269187Y4268248D01*
X4269187Y4268248D02*
G01*
X4266313Y4276461D01*
X4266313Y4276461D02*
G01*
X4261683Y4283830D01*
X4261683Y4283830D02*
G01*
X4255529Y4289983D01*
X4255529Y4289983D02*
G01*
X4248161Y4294613D01*
X4248161Y4294613D02*
G01*
X4239947Y4297487D01*
X4239947Y4297487D02*
G01*
X4231299Y4298462D01*
X4231299Y4298462D02*
G01*
X3871300Y4298462D01*
X3871300Y4298462D02*
G01*
X3862652Y4297487D01*
X3862652Y4297487D02*
G01*
X3854438Y4294613D01*
X3854438Y4294613D02*
G01*
X3847070Y4289983D01*
X3847070Y4289983D02*
G01*
X3840916Y4283830D01*
X3840916Y4283830D02*
G01*
X3836286Y4276461D01*
X3836286Y4276461D02*
G01*
X3833412Y4268248D01*
X3833412Y4268248D02*
G01*
X3832438Y4259600D01*
X3832438Y4259600D02*
G01*
X3832438Y4188387D01*
X3832438Y4188387D02*
G01*
X3822472Y4189023D01*
X3822472Y4189023D02*
G01*
X3810773Y4187777D01*
X3810773Y4187777D02*
G01*
X3805568Y4186303D01*
X3805568Y4186303D02*
G01*
X3805688Y4191959D01*
X3805688Y4191959D02*
G01*
X3803946Y4203594D01*
X3803946Y4203594D02*
G01*
X3800264Y4214768D01*
X3800264Y4214768D02*
G01*
X3794745Y4225158D01*
X3794745Y4225158D02*
G01*
X3787550Y4234466D01*
X3787550Y4234466D02*
G01*
X3778886Y4242424D01*
X3778886Y4242424D02*
G01*
X3769001Y4248804D01*
X3769001Y4248804D02*
G01*
X3758180Y4253421D01*
X3758180Y4253421D02*
G01*
X3746735Y4256143D01*
X3746735Y4256143D02*
G01*
X3734994Y4256892D01*
X3734994Y4256892D02*
G01*
X3723296Y4255646D01*
X3723296Y4255646D02*
G01*
X3711476Y4252201D01*
X3711476Y4252201D02*
G01*
X3708830Y4254847D01*
X3708830Y4254847D02*
G01*
X3701461Y4259477D01*
X3701461Y4259477D02*
G01*
X3693247Y4262352D01*
X3693247Y4262352D02*
G01*
X3684600Y4263326D01*
X3684600Y4263326D02*
G01*
X3630599Y4263326D01*
X3630599Y4263326D02*
G01*
X3621952Y4262352D01*
X3621952Y4262352D02*
G01*
X3613738Y4259477D01*
X3613738Y4259477D02*
G01*
X3606369Y4254847D01*
X3606369Y4254847D02*
G01*
X3600216Y4248694D01*
X3600216Y4248694D02*
G01*
X3595586Y4241326D01*
X3595586Y4241326D02*
G01*
X3589029Y4238535D01*
X3589029Y4238535D02*
G01*
X3584705Y4236332D01*
X3584705Y4236332D02*
G01*
X3580635Y4233689D01*
X3580635Y4233689D02*
G01*
X3576864Y4230635D01*
X3576864Y4230635D02*
G01*
X3573433Y4227204D01*
X3573433Y4227204D02*
G01*
X3570378Y4223432D01*
X3570378Y4223432D02*
G01*
X3567735Y4219362D01*
X3567735Y4219362D02*
G01*
X3565532Y4215039D01*
X3565532Y4215039D02*
G01*
X3563793Y4210508D01*
X3563793Y4210508D02*
G01*
X3562537Y4205820D01*
X3562537Y4205820D02*
G01*
X3561778Y4201027D01*
X3561778Y4201027D02*
G01*
X3561524Y4196181D01*
X3561524Y4196181D02*
G01*
X3561524Y4183279D01*
X3561524Y4183279D02*
G01*
X3557828Y4179583D01*
X3557828Y4179583D02*
G01*
X3556430Y4180982D01*
X3556430Y4180982D02*
G01*
X3549061Y4185612D01*
X3549061Y4185612D02*
G01*
X3540847Y4188486D01*
X3540847Y4188486D02*
G01*
X3532200Y4189460D01*
X3532200Y4189460D02*
G01*
X3478199Y4189460D01*
X3478199Y4189460D02*
G01*
X3469552Y4188486D01*
X3469552Y4188486D02*
G01*
X3461338Y4185612D01*
X3461338Y4185612D02*
G01*
X3453969Y4180982D01*
X3453969Y4180982D02*
G01*
X3447816Y4174828D01*
X3447816Y4174828D02*
G01*
X3443186Y4167460D01*
X3443186Y4167460D02*
G01*
X3440312Y4159246D01*
X3440312Y4159246D02*
G01*
X3439790Y4154621D01*
X3439790Y4154621D02*
G01*
X3436629Y4153445D01*
X3436629Y4153445D02*
G01*
X3428235Y4148599D01*
X3428235Y4148599D02*
G01*
X3422703Y4143874D01*
X3422703Y4143874D02*
G01*
X3344766Y4065938D01*
X3344766Y4065938D02*
G01*
X3169069Y4065938D01*
X3169069Y4065938D02*
G01*
X3171655Y4076150D01*
X3171655Y4076150D02*
G01*
X3172663Y4088307D01*
X3172663Y4088307D02*
G01*
X3171655Y4100465D01*
X3171655Y4100465D02*
G01*
X3168661Y4112291D01*
X3168661Y4112291D02*
G01*
X3163760Y4123462D01*
X3163760Y4123462D02*
G01*
X3157088Y4133675D01*
X3157088Y4133675D02*
G01*
X3148826Y4142650D01*
X3148826Y4142650D02*
G01*
X3139199Y4150143D01*
X3139199Y4150143D02*
G01*
X3128470Y4155949D01*
X3128470Y4155949D02*
G01*
X3116932Y4159910D01*
X3116932Y4159910D02*
G01*
X3104899Y4161918D01*
X3104899Y4161918D02*
G01*
X3092700Y4161918D01*
X3092700Y4161918D02*
G01*
X3080667Y4159910D01*
X3080667Y4159910D02*
G01*
X3069129Y4155949D01*
X3069129Y4155949D02*
G01*
X3058400Y4150143D01*
X3058400Y4150143D02*
G01*
X3048773Y4142650D01*
X3048773Y4142650D02*
G01*
X3040511Y4133675D01*
X3040511Y4133675D02*
G01*
X3033839Y4123462D01*
X3033839Y4123462D02*
G01*
X3028938Y4112291D01*
X3028938Y4112291D02*
G01*
X3025944Y4100465D01*
X3025944Y4100465D02*
G01*
X3024936Y4088307D01*
X3024936Y4088307D02*
G01*
X3025944Y4076150D01*
X3025944Y4076150D02*
G01*
X3028530Y4065938D01*
X3028530Y4065938D02*
G01*
X2955390Y4065938D01*
X2955390Y4065938D02*
G01*
X2956690Y4069652D01*
X2956690Y4069652D02*
G01*
X2957664Y4078300D01*
X2957664Y4078300D02*
G01*
X2957664Y4278299D01*
X2957664Y4278299D02*
G01*
X2956690Y4286947D01*
X2956690Y4286947D02*
G01*
X2953816Y4295161D01*
X2953816Y4295161D02*
G01*
X2949186Y4302529D01*
X2949186Y4302529D02*
G01*
X2943032Y4308683D01*
X2943032Y4308683D02*
G01*
X2935664Y4313313D01*
X2935664Y4313313D02*
G01*
X2927450Y4316187D01*
X2927450Y4316187D02*
G01*
X2918802Y4317161D01*
X2918802Y4317161D02*
G01*
X2818803Y4317161D01*
X2818803Y4317161D02*
G01*
X2810155Y4316187D01*
X2810155Y4316187D02*
G01*
X2801941Y4313313D01*
X2801941Y4313313D02*
G01*
X2794761Y4308802D01*
X2794761Y4308802D02*
G01*
X2794761Y4377252D01*
X2794761Y4377252D02*
G01*
X2796652Y4375837D01*
X2796652Y4375837D02*
G01*
X2809032Y4369077D01*
X2809032Y4369077D02*
G01*
X2822248Y4364148D01*
X2822248Y4364148D02*
G01*
X2836031Y4361150D01*
X2836031Y4361150D02*
G01*
X2850100Y4360143D01*
X2850100Y4360143D02*
G01*
X2970100Y4360143D01*
X2970100Y4360143D02*
G01*
X2984170Y4361150D01*
X2984170Y4361150D02*
G01*
X2997953Y4364148D01*
X2997953Y4364148D02*
G01*
X3011169Y4369077D01*
X3011169Y4369077D02*
G01*
X3023549Y4375837D01*
X3023549Y4375837D02*
G01*
X3034841Y4384290D01*
X3034841Y4384290D02*
G01*
X3044815Y4394264D01*
X3044815Y4394264D02*
G01*
X3053268Y4405556D01*
X3053268Y4405556D02*
G01*
X3060028Y4417936D01*
X3060028Y4417936D02*
G01*
X3064958Y4431152D01*
X3064958Y4431152D02*
G01*
X3067956Y4444935D01*
X3067956Y4444935D02*
G01*
X3068962Y4459005D01*
X3068962Y4459005D02*
G01*
X3067956Y4473075D01*
X3067956Y4473075D02*
G01*
X3064958Y4486858D01*
X3064958Y4486858D02*
G01*
X3060028Y4500074D01*
X3060028Y4500074D02*
G01*
X3053268Y4512454D01*
X3053268Y4512454D02*
G01*
X3044815Y4523746D01*
X3044815Y4523746D02*
G01*
X3040872Y4527689D01*
X3040872Y4527689D02*
G01*
X3199829Y4527689D01*
X3199829Y4527689D02*
G01*
X3195385Y4523245D01*
X3195385Y4523245D02*
G01*
X3186932Y4511953D01*
X3186932Y4511953D02*
G01*
X3180172Y4499573D01*
X3180172Y4499573D02*
G01*
X3175242Y4486357D01*
X3175242Y4486357D02*
G01*
X3172244Y4472574D01*
X3172244Y4472574D02*
G01*
X3171238Y4458505D01*
X3171238Y4458505D02*
G01*
X3172244Y4444435D01*
X3172244Y4444435D02*
G01*
X3175242Y4430652D01*
X3175242Y4430652D02*
G01*
X3180172Y4417436D01*
X3180172Y4417436D02*
G01*
X3186932Y4405056D01*
X3186932Y4405056D02*
G01*
X3195385Y4393764D01*
X3195385Y4393764D02*
G01*
X3205359Y4383790D01*
X3205359Y4383790D02*
G01*
X3216651Y4375337D01*
X3216651Y4375337D02*
G01*
X3229031Y4368577D01*
X3229031Y4368577D02*
G01*
X3242247Y4363647D01*
X3242247Y4363647D02*
G01*
X3256030Y4360649D01*
X3256030Y4360649D02*
G01*
X3270100Y4359643D01*
X3270100Y4359643D02*
G01*
X3350099Y4359643D01*
X3350099Y4359643D02*
G01*
X3364169Y4360649D01*
X3364169Y4360649D02*
G01*
X3377952Y4363647D01*
X3377952Y4363647D02*
G01*
X3391168Y4368577D01*
X3391168Y4368577D02*
G01*
X3403548Y4375337D01*
X3403548Y4375337D02*
G01*
X3414840Y4383790D01*
X3414840Y4383790D02*
G01*
X3424814Y4393764D01*
X3424814Y4393764D02*
G01*
X3433267Y4405056D01*
X3433267Y4405056D02*
G01*
X3440027Y4417436D01*
X3440027Y4417436D02*
G01*
X3444957Y4430652D01*
X3444957Y4430652D02*
G01*
X3447955Y4444435D01*
X3447955Y4444435D02*
G01*
X3448961Y4458505D01*
X3448961Y4458505D02*
G01*
X3447955Y4472574D01*
X3447955Y4472574D02*
G01*
X3444957Y4486357D01*
X3444957Y4486357D02*
G01*
X3440027Y4499573D01*
X3440027Y4499573D02*
G01*
X3433267Y4511953D01*
X3433267Y4511953D02*
G01*
X3424814Y4523245D01*
X3424814Y4523245D02*
G01*
X3414840Y4533220D01*
X3414840Y4533220D02*
G01*
X3403548Y4541673D01*
X3403548Y4541673D02*
G01*
X3391168Y4548433D01*
X3391168Y4548433D02*
G01*
X3377952Y4553362D01*
X3377952Y4553362D02*
G01*
X3364971Y4556186D01*
X3364971Y4556186D02*
G01*
X3366254Y4562342D01*
X3366254Y4562342D02*
G01*
X3366490Y4566551D01*
X3366490Y4566551D02*
G01*
X3366490Y4706632D01*
X3366490Y4706632D02*
G01*
X3446597Y4706632D01*
X3446597Y4706632D02*
G01*
X3455244Y4707607D01*
X3455244Y4707607D02*
G01*
X3463458Y4710481D01*
X3463458Y4710481D02*
G01*
X3470827Y4715111D01*
X3470827Y4715111D02*
G01*
X3476980Y4721264D01*
X3476980Y4721264D02*
G01*
X3481610Y4728633D01*
X3481610Y4728633D02*
G01*
X3483665Y4734505D01*
X3483665Y4734505D02*
G01*
X3556852Y4768476D01*
X3556852Y4768476D02*
G01*
X3563441Y4769490D01*
X3563441Y4769490D02*
G01*
X3562853Y4763972D01*
X3562853Y4763972D02*
G01*
X3563601Y4752231D01*
X3563601Y4752231D02*
G01*
X3566324Y4740786D01*
X3566324Y4740786D02*
G01*
X3570941Y4729965D01*
X3570941Y4729965D02*
G01*
X3577321Y4720080D01*
X3577321Y4720080D02*
G01*
X3585279Y4711416D01*
X3585279Y4711416D02*
G01*
X3585837Y4710984D01*
X3585837Y4710984D02*
G01*
X3585837Y4687366D01*
X3585837Y4687366D02*
G01*
X3586850Y4677727D01*
X3586850Y4677727D02*
G01*
X3589845Y4668509D01*
X3589845Y4668509D02*
G01*
X3594691Y4660115D01*
X3594691Y4660115D02*
G01*
X3599416Y4654583D01*
X3599416Y4654583D02*
G01*
X3730074Y4523923D01*
X3730074Y4523923D02*
G01*
X3737606Y4517823D01*
X3737606Y4517823D02*
G01*
X3746242Y4513423D01*
X3746242Y4513423D02*
G01*
X3755604Y4510915D01*
X3755604Y4510915D02*
G01*
X3762857Y4510344D01*
X3762857Y4510344D02*
G01*
X4051114Y4510344D01*
X4051114Y4510344D02*
G01*
X4057730Y4510818D01*
X4057730Y4510818D02*
G01*
X4060753Y4511357D01*
X4060753Y4511357D02*
G01*
X4069972Y4514352D01*
X4069972Y4514352D02*
G01*
X4075822Y4517476D01*
X4075822Y4517476D02*
G01*
X4082317Y4522432D01*
X4082317Y4522432D02*
G01*
X4085568Y4525684D01*
X4085568Y4525684D02*
G01*
X4089828Y4531098D01*
X4089828Y4531098D02*
G01*
X4093649Y4538029D01*
X4093649Y4538029D02*
G01*
X4094649Y4540737D01*
X4094649Y4540737D02*
G01*
X4100300Y4540737D01*
X4100300Y4540737D02*
G01*
X4108948Y4541712D01*
X4108948Y4541712D02*
G01*
X4117161Y4544586D01*
X4117161Y4544586D02*
G01*
X4124530Y4549216D01*
X4124530Y4549216D02*
G01*
X4130683Y4555369D01*
X4130683Y4555369D02*
G01*
X4135313Y4562738D01*
X4135313Y4562738D02*
G01*
X4138188Y4570951D01*
X4138188Y4570951D02*
G01*
X4139162Y4579599D01*
X4139162Y4579599D02*
G01*
X4139162Y4826599D01*
X4139162Y4826599D02*
G01*
X4138188Y4835247D01*
X4138188Y4835247D02*
G01*
X4135427Y4843137D01*
X4135427Y4843137D02*
G01*
X4325515Y4843137D01*
X4325515Y4843137D02*
G01*
X4366850Y4833775D01*
X4366850Y4833775D02*
G01*
X4490987Y4709873D01*
X4490987Y4709873D02*
G01*
X4498526Y4703781D01*
X4498526Y4703781D02*
G01*
X4507166Y4699388D01*
X4507166Y4699388D02*
G01*
X4516530Y4696889D01*
X4516530Y4696889D02*
G01*
X4525030Y4696325D01*
X4525030Y4696325D02*
G01*
X4524871Y4646660D01*
X4524871Y4646660D02*
G01*
X4494199Y4646660D01*
X4494199Y4646660D02*
G01*
X4485552Y4645686D01*
X4485552Y4645686D02*
G01*
X4477338Y4642812D01*
X4477338Y4642812D02*
G01*
X4469969Y4638182D01*
X4469969Y4638182D02*
G01*
X4463816Y4632028D01*
X4463816Y4632028D02*
G01*
X4459186Y4624660D01*
X4459186Y4624660D02*
G01*
X4456312Y4616446D01*
X4456312Y4616446D02*
G01*
X4455337Y4607798D01*
X4455337Y4607798D02*
G01*
X4455337Y4528789D01*
X4455337Y4528789D02*
G01*
X4456312Y4520141D01*
X4456312Y4520141D02*
G01*
X4459186Y4511927D01*
X4459186Y4511927D02*
G01*
X4463816Y4504559D01*
X4463816Y4504559D02*
G01*
X4469969Y4498406D01*
X4469969Y4498406D02*
G01*
X4477338Y4493776D01*
X4477338Y4493776D02*
G01*
X4485552Y4490901D01*
X4485552Y4490901D02*
G01*
X4494199Y4489927D01*
X4494199Y4489927D02*
G01*
X4548200Y4489927D01*
X4548200Y4489927D02*
G01*
X4556847Y4490901D01*
X4556847Y4490901D02*
G01*
X4562005Y4492706D01*
X4562005Y4492706D02*
G01*
X4562005Y4288281D01*
X4562005Y4288281D02*
G01*
X4556847Y4290086D01*
X4556847Y4290086D02*
G01*
X4548200Y4291060D01*
X4548200Y4291060D02*
G01*
X4494199Y4291060D01*
X4494199Y4291060D02*
G01*
X4485552Y4290086D01*
X4485552Y4290086D02*
G01*
X4477338Y4287212D01*
X4477338Y4287212D02*
G01*
X4469969Y4282582D01*
X4469969Y4282582D02*
G01*
X4463816Y4276428D01*
X4463816Y4276428D02*
G01*
X4459186Y4269060D01*
X4459186Y4269060D02*
G01*
X4456312Y4260846D01*
X4456312Y4260846D02*
G01*
X4455337Y4252198D01*
X4455337Y4252198D02*
G01*
X4455337Y4173189D01*
X4455337Y4173189D02*
G01*
X4456312Y4164541D01*
X4456312Y4164541D02*
G01*
X4458377Y4158639D01*
X4458377Y4158639D02*
G01*
X4453659Y4155914D01*
X4453659Y4155914D02*
G01*
X4448127Y4151190D01*
X4448127Y4151190D02*
G01*
X4176032Y3879095D01*
X4176032Y3879095D02*
G01*
X3832727Y3879095D01*
X3832727Y3879095D02*
G01*
X3823088Y3878082D01*
X3823088Y3878082D02*
G01*
X3813870Y3875087D01*
X3813870Y3875087D02*
G01*
X3805476Y3870241D01*
X3805476Y3870241D02*
G01*
X3799944Y3865516D01*
X3799944Y3865516D02*
G01*
X3765564Y3831136D01*
X3765564Y3831136D02*
G01*
X3762150Y3832648D01*
X3762150Y3832648D02*
G01*
X3747549Y3836981D01*
X3747549Y3836981D02*
G01*
X3732513Y3839412D01*
X3732513Y3839412D02*
G01*
X3717290Y3839900D01*
X3717290Y3839900D02*
G01*
X3702129Y3838438D01*
X3702129Y3838438D02*
G01*
X3687280Y3835048D01*
X3687280Y3835048D02*
G01*
X3672986Y3829788D01*
X3672986Y3829788D02*
G01*
X3659482Y3822743D01*
X3659482Y3822743D02*
G01*
X3646990Y3814029D01*
X3646990Y3814029D02*
G01*
X3635715Y3803790D01*
X3635715Y3803790D02*
G01*
X3625842Y3792192D01*
X3625842Y3792192D02*
G01*
X3617533Y3779427D01*
X3617533Y3779427D02*
G01*
X3610924Y3765704D01*
X3610924Y3765704D02*
G01*
X3606125Y3751249D01*
X3606125Y3751249D02*
G01*
X3603214Y3736299D01*
X3603214Y3736299D02*
G01*
X3602238Y3721100D01*
X3602238Y3721100D02*
G01*
X3603214Y3705900D01*
X3603214Y3705900D02*
G01*
X3606125Y3690950D01*
X3606125Y3690950D02*
G01*
X3610924Y3676495D01*
X3610924Y3676495D02*
G01*
X3617533Y3662772D01*
X3617533Y3662772D02*
G01*
X3625842Y3650007D01*
X3625842Y3650007D02*
G01*
X3629541Y3645662D01*
X3629541Y3645662D02*
G01*
X3558809Y3645662D01*
X3558809Y3645662D02*
G01*
X3566716Y3656256D01*
X3566716Y3656256D02*
G01*
X3574190Y3669527D01*
X3574190Y3669527D02*
G01*
X3579906Y3683645D01*
X3579906Y3683645D02*
G01*
X3583769Y3698378D01*
X3583769Y3698378D02*
G01*
X3585717Y3713484D01*
X3585717Y3713484D02*
G01*
X3585717Y3728715D01*
X3585717Y3728715D02*
G01*
X3583769Y3743821D01*
X3583769Y3743821D02*
G01*
X3579906Y3758554D01*
X3579906Y3758554D02*
G01*
X3574190Y3772672D01*
X3574190Y3772672D02*
G01*
X3566716Y3785943D01*
X3566716Y3785943D02*
G01*
X3557606Y3798149D01*
X3557606Y3798149D02*
G01*
X3547010Y3809090D01*
X3547010Y3809090D02*
G01*
X3535102Y3818587D01*
X3535102Y3818587D02*
G01*
X3522078Y3826482D01*
X3522078Y3826482D02*
G01*
X3508150Y3832648D01*
X3508150Y3832648D02*
G01*
X3493549Y3836981D01*
X3493549Y3836981D02*
G01*
X3478513Y3839412D01*
X3478513Y3839412D02*
G01*
X3463290Y3839900D01*
X3463290Y3839900D02*
G01*
X3448129Y3838438D01*
X3448129Y3838438D02*
G01*
X3433280Y3835048D01*
X3433280Y3835048D02*
G01*
X3418986Y3829788D01*
X3418986Y3829788D02*
G01*
X3405482Y3822743D01*
X3405482Y3822743D02*
G01*
X3392990Y3814029D01*
X3392990Y3814029D02*
G01*
X3381715Y3803790D01*
X3381715Y3803790D02*
G01*
X3371842Y3792192D01*
X3371842Y3792192D02*
G01*
X3363533Y3779427D01*
X3363533Y3779427D02*
G01*
X3356924Y3765704D01*
X3356924Y3765704D02*
G01*
X3352125Y3751249D01*
X3352125Y3751249D02*
G01*
X3349214Y3736299D01*
X3349214Y3736299D02*
G01*
X3348238Y3721100D01*
X3348238Y3721100D02*
G01*
X3349214Y3705900D01*
X3349214Y3705900D02*
G01*
X3352125Y3690950D01*
X3352125Y3690950D02*
G01*
X3356924Y3676495D01*
X3356924Y3676495D02*
G01*
X3363533Y3662772D01*
X3363533Y3662772D02*
G01*
X3371842Y3650007D01*
X3371842Y3650007D02*
G01*
X3375541Y3645662D01*
X3375541Y3645662D02*
G01*
X3304809Y3645662D01*
X3304809Y3645662D02*
G01*
X3312716Y3656256D01*
X3312716Y3656256D02*
G01*
X3320190Y3669527D01*
X3320190Y3669527D02*
G01*
X3325906Y3683645D01*
X3325906Y3683645D02*
G01*
X3329769Y3698378D01*
X3329769Y3698378D02*
G01*
X3331717Y3713484D01*
X3331717Y3713484D02*
G01*
X3331717Y3728715D01*
X3331717Y3728715D02*
G01*
X3329769Y3743821D01*
X3329769Y3743821D02*
G01*
X3325906Y3758554D01*
X3325906Y3758554D02*
G01*
X3320190Y3772672D01*
X3320190Y3772672D02*
G01*
X3312716Y3785943D01*
X3312716Y3785943D02*
G01*
X3303606Y3798149D01*
X3303606Y3798149D02*
G01*
X3293010Y3809090D01*
X3293010Y3809090D02*
G01*
X3281102Y3818587D01*
X3281102Y3818587D02*
G01*
X3268078Y3826482D01*
X3268078Y3826482D02*
G01*
X3254150Y3832648D01*
X3254150Y3832648D02*
G01*
X3239549Y3836981D01*
X3239549Y3836981D02*
G01*
X3224513Y3839412D01*
X3224513Y3839412D02*
G01*
X3209290Y3839900D01*
X3209290Y3839900D02*
G01*
X3194129Y3838438D01*
X3194129Y3838438D02*
G01*
X3179280Y3835048D01*
X3179280Y3835048D02*
G01*
X3164986Y3829788D01*
X3164986Y3829788D02*
G01*
X3151482Y3822743D01*
X3151482Y3822743D02*
G01*
X3138990Y3814029D01*
X3138990Y3814029D02*
G01*
X3127715Y3803790D01*
X3127715Y3803790D02*
G01*
X3117842Y3792192D01*
X3117842Y3792192D02*
G01*
X3109533Y3779427D01*
X3109533Y3779427D02*
G01*
X3102924Y3765704D01*
X3102924Y3765704D02*
G01*
X3098125Y3751249D01*
X3098125Y3751249D02*
G01*
X3095214Y3736299D01*
X3095214Y3736299D02*
G01*
X3094238Y3721100D01*
X3094238Y3721100D02*
G01*
X3095214Y3705900D01*
X3095214Y3705900D02*
G01*
X3098125Y3690950D01*
X3098125Y3690950D02*
G01*
X3102924Y3676495D01*
X3102924Y3676495D02*
G01*
X3109533Y3662772D01*
X3109533Y3662772D02*
G01*
X3117842Y3650007D01*
X3117842Y3650007D02*
G01*
X3121541Y3645662D01*
X3121541Y3645662D02*
G01*
X3050809Y3645662D01*
X3050809Y3645662D02*
G01*
X3058716Y3656256D01*
X3058716Y3656256D02*
G01*
X3066190Y3669527D01*
X3066190Y3669527D02*
G01*
X3071906Y3683645D01*
X3071906Y3683645D02*
G01*
X3075769Y3698378D01*
X3075769Y3698378D02*
G01*
X3077717Y3713484D01*
X3077717Y3713484D02*
G01*
X3077717Y3728715D01*
X3077717Y3728715D02*
G01*
X3075769Y3743821D01*
X3075769Y3743821D02*
G01*
X3071906Y3758554D01*
X3071906Y3758554D02*
G01*
X3066190Y3772672D01*
X3066190Y3772672D02*
G01*
X3058716Y3785943D01*
X3058716Y3785943D02*
G01*
X3049606Y3798149D01*
X3049606Y3798149D02*
G01*
X3039010Y3809090D01*
X3039010Y3809090D02*
G01*
X3027102Y3818587D01*
X3027102Y3818587D02*
G01*
X3014078Y3826482D01*
X3014078Y3826482D02*
G01*
X3000150Y3832648D01*
X3000150Y3832648D02*
G01*
X2985549Y3836981D01*
X2985549Y3836981D02*
G01*
X2970513Y3839412D01*
X2970513Y3839412D02*
G01*
X2955290Y3839900D01*
X2955290Y3839900D02*
G01*
X2940129Y3838438D01*
X2940129Y3838438D02*
G01*
X2925280Y3835048D01*
X2925280Y3835048D02*
G01*
X2910986Y3829788D01*
X2910986Y3829788D02*
G01*
X2897482Y3822743D01*
X2897482Y3822743D02*
G01*
X2884990Y3814029D01*
X2884990Y3814029D02*
G01*
X2873715Y3803790D01*
X2873715Y3803790D02*
G01*
X2863842Y3792192D01*
X2863842Y3792192D02*
G01*
X2855533Y3779427D01*
X2855533Y3779427D02*
G01*
X2848924Y3765704D01*
X2848924Y3765704D02*
G01*
X2844125Y3751249D01*
X2844125Y3751249D02*
G01*
X2841214Y3736299D01*
X2841214Y3736299D02*
G01*
X2840238Y3721100D01*
X2840238Y3721100D02*
G01*
X2841214Y3705900D01*
X2841214Y3705900D02*
G01*
X2844125Y3690950D01*
X2844125Y3690950D02*
G01*
X2848924Y3676495D01*
X2848924Y3676495D02*
G01*
X2855533Y3662772D01*
X2855533Y3662772D02*
G01*
X2863842Y3650007D01*
X2863842Y3650007D02*
G01*
X2867541Y3645662D01*
X2867541Y3645662D02*
G01*
X2794761Y3645662D01*
X3040511Y4222924D02*
G01*
X3048773Y4213949D01*
X3048773Y4213949D02*
G01*
X3058400Y4206456D01*
X3058400Y4206456D02*
G01*
X3069129Y4200650D01*
X3069129Y4200650D02*
G01*
X3080667Y4196689D01*
X3080667Y4196689D02*
G01*
X3092700Y4194681D01*
X3092700Y4194681D02*
G01*
X3104899Y4194681D01*
X3104899Y4194681D02*
G01*
X3116932Y4196689D01*
X3116932Y4196689D02*
G01*
X3128470Y4200650D01*
X3128470Y4200650D02*
G01*
X3139199Y4206456D01*
X3139199Y4206456D02*
G01*
X3148826Y4213949D01*
X3148826Y4213949D02*
G01*
X3157088Y4222924D01*
X3157088Y4222924D02*
G01*
X3163760Y4233137D01*
X3163760Y4233137D02*
G01*
X3168661Y4244308D01*
X3168661Y4244308D02*
G01*
X3171655Y4256134D01*
X3171655Y4256134D02*
G01*
X3172663Y4268292D01*
X3172663Y4268292D02*
G01*
X3171655Y4280449D01*
X3171655Y4280449D02*
G01*
X3168661Y4292275D01*
X3168661Y4292275D02*
G01*
X3163760Y4303447D01*
X3163760Y4303447D02*
G01*
X3157088Y4313659D01*
X3157088Y4313659D02*
G01*
X3148826Y4322635D01*
X3148826Y4322635D02*
G01*
X3139199Y4330127D01*
X3139199Y4330127D02*
G01*
X3128470Y4335934D01*
X3128470Y4335934D02*
G01*
X3116932Y4339895D01*
X3116932Y4339895D02*
G01*
X3104899Y4341903D01*
X3104899Y4341903D02*
G01*
X3092700Y4341903D01*
X3092700Y4341903D02*
G01*
X3080667Y4339895D01*
X3080667Y4339895D02*
G01*
X3069129Y4335934D01*
X3069129Y4335934D02*
G01*
X3058400Y4330127D01*
X3058400Y4330127D02*
G01*
X3048773Y4322635D01*
X3048773Y4322635D02*
G01*
X3040511Y4313659D01*
X3040511Y4313659D02*
G01*
X3033839Y4303447D01*
X3033839Y4303447D02*
G01*
X3028938Y4292275D01*
X3028938Y4292275D02*
G01*
X3025944Y4280449D01*
X3025944Y4280449D02*
G01*
X3024936Y4268292D01*
X3024936Y4268292D02*
G01*
X3025944Y4256134D01*
X3025944Y4256134D02*
G01*
X3028938Y4244308D01*
X3028938Y4244308D02*
G01*
X3033839Y4233137D01*
X3033839Y4233137D02*
G01*
X3040511Y4222924D01*
X2794761Y3664432D02*
G01*
X2813532Y3645662D01*
X2794761Y3736274D02*
G01*
X2846133Y3684902D01*
X2794761Y3808116D02*
G01*
X2845995Y3756882D01*
X2794761Y3879958D02*
G01*
X2872434Y3802285D01*
X2794761Y3951800D02*
G01*
X2915216Y3831345D01*
X3069315Y3677246D02*
G01*
X3100900Y3645662D01*
X2794761Y4023642D02*
G01*
X2980627Y3837777D01*
X3075945Y3742459D02*
G01*
X3094423Y3723981D01*
X2917033Y3973212D02*
G01*
X3110040Y3780206D01*
X2988875Y3973212D02*
G01*
X3144332Y3817756D01*
X3309774Y3652314D02*
G01*
X3316426Y3645662D01*
X2957458Y4076471D02*
G01*
X2967992Y4065938D01*
X3060718Y3973212D02*
G01*
X3195372Y3838558D01*
X3330430Y3703500D02*
G01*
X3356671Y3677259D01*
X2794761Y4311010D02*
G01*
X2796118Y4309654D01*
X2957664Y4148107D02*
G01*
X3025611Y4080161D01*
X3132559Y3973212D02*
G01*
X3352723Y3753049D01*
X2807941Y4369672D02*
G01*
X2860453Y4317161D01*
X2957664Y4219949D02*
G01*
X3042154Y4135460D01*
X3204402Y3973212D02*
G01*
X3378086Y3799527D01*
X2889313Y4360143D02*
G01*
X2936953Y4312503D01*
X2953006Y4296450D02*
G01*
X3088276Y4161180D01*
X3171782Y4077674D02*
G01*
X3183518Y4065938D01*
X3276244Y3973212D02*
G01*
X3419484Y3829972D01*
X3575844Y3673612D02*
G01*
X3603794Y3645662D01*
X2961155Y4360143D02*
G01*
X3028964Y4292334D01*
X3122647Y4198651D02*
G01*
X3255361Y4065938D01*
X3348086Y3973212D02*
G01*
X3482536Y3838762D01*
X3584701Y3736597D02*
G01*
X3602378Y3718920D01*
X3019509Y4373631D02*
G01*
X3061393Y4331747D01*
X3162276Y4230864D02*
G01*
X3327202Y4065938D01*
X3401551Y3991589D02*
G01*
X3616291Y3776849D01*
X3055443Y4409539D02*
G01*
X3129731Y4335251D01*
X3165499Y4299483D02*
G01*
X3371905Y4093077D01*
X3437472Y4027510D02*
G01*
X3649324Y3815658D01*
X3068280Y4468544D02*
G01*
X3407827Y4128998D01*
X3504097Y4032727D02*
G01*
X3699082Y3837742D01*
X3080977Y4527689D02*
G01*
X3174472Y4434194D01*
X3245789Y4362877D02*
G01*
X3442673Y4165993D01*
X3561945Y4046721D02*
G01*
X3771547Y3837119D01*
X3152819Y4527689D02*
G01*
X3180441Y4500067D01*
X3320865Y4359643D02*
G01*
X3491048Y4189460D01*
X3638035Y4042473D02*
G01*
X3808514Y3871994D01*
X3385782Y4366568D02*
G01*
X3561524Y4190826D01*
X3704266Y4048084D02*
G01*
X3873255Y3879095D01*
X3427218Y4396974D02*
G01*
X3586795Y4237397D01*
X3750879Y4073314D02*
G01*
X3945097Y3879095D01*
X3448198Y4447836D02*
G01*
X3632708Y4263326D01*
X3922296Y3973738D02*
G01*
X4016939Y3879095D01*
X3366490Y4601386D02*
G01*
X3714728Y4253149D01*
X3994138Y3973738D02*
G01*
X4088781Y3879095D01*
X3366490Y4673228D02*
G01*
X3832438Y4207281D01*
X4065980Y3973738D02*
G01*
X4160623Y3879095D01*
X3404928Y4706632D02*
G01*
X3835979Y4275582D01*
X4137822Y3973738D02*
G01*
X4204249Y3907312D01*
X3469270Y4714133D02*
G01*
X3884941Y4298462D01*
X4209664Y3973738D02*
G01*
X4240170Y3943233D01*
X3508986Y4746258D02*
G01*
X3594093Y4661152D01*
X3736635Y4518610D02*
G01*
X3956783Y4298462D01*
X4263686Y3991558D02*
G01*
X4276091Y3979154D01*
X3558376Y4768711D02*
G01*
X3562878Y4764209D01*
X3816743Y4510344D02*
G01*
X4028625Y4298462D01*
X4270161Y4056926D02*
G01*
X4312012Y4015075D01*
X3888585Y4510344D02*
G01*
X4100467Y4298462D01*
X4270161Y4128767D02*
G01*
X4347933Y4050996D01*
X3960427Y4510344D02*
G01*
X4172309Y4298462D01*
X4270161Y4200610D02*
G01*
X4383854Y4086917D01*
X4032269Y4510344D02*
G01*
X4247913Y4294700D01*
X4266399Y4276213D02*
G01*
X4419775Y4122838D01*
X4086979Y4527476D02*
G01*
X4456754Y4157701D01*
X4130778Y4555519D02*
G01*
X4455337Y4230960D01*
X4139162Y4618977D02*
G01*
X4473401Y4284738D01*
X4139162Y4690819D02*
G01*
X4538921Y4291060D01*
X4139162Y4762661D02*
G01*
X4562005Y4339818D01*
X4138063Y4835602D02*
G01*
X4457812Y4515853D01*
X4481263Y4492402D02*
G01*
X4562005Y4411660D01*
X4202370Y4843137D02*
G01*
X4455337Y4590170D01*
X4554833Y4490674D02*
G01*
X4562005Y4483503D01*
X4274212Y4843137D02*
G01*
X4475618Y4641731D01*
X4352069Y4837122D02*
G01*
X4524928Y4664264D01*
X4111188Y3879095D02*
G01*
X4205831Y3973738D01*
X4270161Y4038068D02*
G01*
X4455337Y4223244D01*
X4523153Y4291060D02*
G01*
X4562005Y4329912D01*
X4039346Y3879095D02*
G01*
X4133989Y3973738D01*
X4270161Y4109910D02*
G01*
X4562005Y4401754D01*
X3967504Y3879095D02*
G01*
X4062147Y3973738D01*
X4270161Y4181752D02*
G01*
X4562005Y4473596D01*
X3895662Y3879095D02*
G01*
X3990305Y3973738D01*
X4270161Y4253594D02*
G01*
X4506494Y4489927D01*
X3590386Y3645662D02*
G01*
X3614271Y3669546D01*
X3822671Y3877947D02*
G01*
X3918463Y3973738D01*
X4241625Y4296900D02*
G01*
X4458529Y4513804D01*
X3585621Y3712738D02*
G01*
X3602804Y3729921D01*
X3712302Y3839419D02*
G01*
X3852001Y3979118D01*
X4171344Y4298462D02*
G01*
X4455337Y4582455D01*
X4519543Y4646660D02*
G01*
X4524888Y4652006D01*
X3574018Y3772977D02*
G01*
X3832438Y4031397D01*
X4099503Y4298462D02*
G01*
X4502699Y4701659D01*
X3374860Y3645662D02*
G01*
X3375228Y3646030D01*
X3542158Y3812960D02*
G01*
X3789117Y4059918D01*
X4027660Y4298462D02*
G01*
X4465005Y4735806D01*
X3310078Y3652722D02*
G01*
X3351503Y3694146D01*
X3494157Y3836801D02*
G01*
X3707426Y4050069D01*
X3715865Y4058509D02*
G01*
X3723879Y4066522D01*
X3955818Y4298462D02*
G01*
X4429050Y4771693D01*
X3329679Y3744165D02*
G01*
X3362224Y3776710D01*
X3411285Y3825771D02*
G01*
X3628252Y4042737D01*
X3800268Y4214754D02*
G01*
X3832438Y4246923D01*
X3883976Y4298462D02*
G01*
X4393094Y4807580D01*
X3307117Y3793445D02*
G01*
X3552255Y4038582D01*
X3565207Y4051534D02*
G01*
X3592130Y4078458D01*
X3764428Y4250755D02*
G01*
X4024016Y4510344D01*
X4139162Y4625489D02*
G01*
X4351030Y4837358D01*
X3087492Y3645662D02*
G01*
X3107930Y3666100D01*
X3268224Y3826394D02*
G01*
X3474926Y4033096D01*
X3701348Y4259517D02*
G01*
X3952174Y4510344D01*
X4139162Y4697331D02*
G01*
X4284967Y4843137D01*
X3076865Y3706877D02*
G01*
X3094454Y3724465D01*
X3209870Y3839882D02*
G01*
X3343201Y3973212D01*
X3553077Y4183088D02*
G01*
X3561524Y4191536D01*
X3633314Y4263326D02*
G01*
X3880332Y4510344D01*
X4139162Y4769174D02*
G01*
X4213125Y4843137D01*
X3067524Y3769378D02*
G01*
X3271359Y3973212D01*
X3487607Y4189460D02*
G01*
X3808490Y4510344D01*
X4136945Y4838798D02*
G01*
X4141283Y4843137D01*
X3036999Y3810694D02*
G01*
X3199517Y3973212D01*
X3292242Y4065938D02*
G01*
X3741926Y4515622D01*
X2800124Y3645662D02*
G01*
X2844446Y3689983D01*
X2990094Y3835632D02*
G01*
X3127674Y3973212D01*
X3220400Y4065938D02*
G01*
X3704230Y4549767D01*
X2794761Y3712141D02*
G01*
X2849482Y3766861D01*
X2913236Y3830616D02*
G01*
X3055832Y3973212D01*
X3172530Y4089910D02*
G01*
X3668309Y4585689D01*
X2794761Y3783983D02*
G01*
X2983990Y3973212D01*
X3151032Y4140254D02*
G01*
X3373445Y4362667D01*
X3445937Y4435159D02*
G01*
X3632388Y4621610D01*
X2794761Y3855825D02*
G01*
X2912148Y3973212D01*
X3004874Y4065938D02*
G01*
X3025113Y4086177D01*
X3100854Y4161918D02*
G01*
X3298579Y4359643D01*
X3439491Y4500555D02*
G01*
X3596700Y4657764D01*
X2794761Y3927668D02*
G01*
X2862958Y3995865D01*
X2957664Y4090570D02*
G01*
X3068230Y4201136D01*
X3165828Y4298734D02*
G01*
X3233867Y4366773D01*
X3406533Y4539438D02*
G01*
X3582038Y4714944D01*
X2794761Y3999509D02*
G01*
X2828472Y4033220D01*
X2957664Y4162412D02*
G01*
X3032177Y4236925D01*
X3130232Y4334980D02*
G01*
X3192658Y4397406D01*
X3366490Y4571238D02*
G01*
X3563285Y4768034D01*
X2957664Y4234254D02*
G01*
X3171950Y4448541D01*
X3366490Y4643080D02*
G01*
X3430042Y4706632D01*
X2951081Y4299513D02*
G01*
X3179257Y4527689D01*
X2896887Y4317161D02*
G01*
X2939869Y4360143D01*
X3065248Y4485522D02*
G01*
X3107415Y4527689D01*
X2825045Y4317161D02*
G01*
X2868027Y4360143D01*
X2794761Y4358720D02*
G01*
X2806501Y4370459D01*
D12*
X3696301Y5867400D02*
G01*
X3577800Y5867400D01*
X3696301Y5740400D02*
G01*
X3577800Y5740400D01*
X3696301Y5613400D02*
G01*
X3577800Y5613400D01*
X3696301Y5486400D02*
G01*
X3577800Y5486400D01*
X3696301Y5359400D02*
G01*
X3577800Y5359400D01*
X3696301Y5232400D02*
G01*
X3577800Y5232400D01*
X3696301Y5105400D02*
G01*
X3577800Y5105400D01*
X3696301Y4978400D02*
G01*
X3577800Y4978400D01*
X4270799Y5867400D02*
G01*
X4152298Y5867400D01*
X4270799Y5740400D02*
G01*
X4152298Y5740400D01*
X4270799Y5613400D02*
G01*
X4152298Y5613400D01*
X4270799Y5486400D02*
G01*
X4152298Y5486400D01*
X4270799Y5359400D02*
G01*
X4152298Y5359400D01*
X4270799Y5232400D02*
G01*
X4152298Y5232400D01*
X4270799Y5105400D02*
G01*
X4152298Y5105400D01*
X4270799Y4978400D02*
G01*
X4152298Y4978400D01*
G36*
X4494199Y4252198D02*
G01*
X4548200Y4252198D01*
X4548200Y4173189D01*
X4494199Y4173189D01*
G37*
D15*
G01*
X4521200Y4321708D03*
G36*
X4811699Y5382498D02*
G01*
X4865700Y5382498D01*
X4865700Y5303489D01*
X4811699Y5303489D01*
G37*
G01*
X4838700Y5452008D03*
G36*
X4713300Y5971301D02*
G01*
X4659299Y5971301D01*
X4659299Y6050310D01*
X4713300Y6050310D01*
G37*
G01*
X4686300Y5901791D03*
G36*
X4494199Y5941298D02*
G01*
X4548200Y5941298D01*
X4548200Y5862289D01*
X4494199Y5862289D01*
G37*
G01*
X4521200Y6010808D03*
G36*
X3532200Y4180601D02*
G01*
X3478199Y4180601D01*
X3478199Y4259610D01*
X3532200Y4259610D01*
G37*
G01*
X3505200Y4111091D03*
G36*
X4494199Y4607798D02*
G01*
X4548200Y4607798D01*
X4548200Y4528789D01*
X4494199Y4528789D01*
G37*
G01*
X4521200Y4677308D03*
G36*
X4481200Y5218899D02*
G01*
X4561199Y5218899D01*
X4561199Y5118900D01*
X4481200Y5118900D01*
G37*
G36*
X4547240Y5015699D02*
G01*
X4627239Y5015699D01*
X4627239Y4915700D01*
X4547240Y4915700D01*
G37*
G36*
X4415160Y5015699D02*
G01*
X4495159Y5015699D01*
X4495159Y4915700D01*
X4415160Y4915700D01*
G37*
G36*
X4493900Y5777699D02*
G01*
X4573899Y5777699D01*
X4573899Y5677700D01*
X4493900Y5677700D01*
G37*
G36*
X4559940Y5574499D02*
G01*
X4639939Y5574499D01*
X4639939Y5474500D01*
X4559940Y5474500D01*
G37*
G36*
X4427860Y5574499D02*
G01*
X4507859Y5574499D01*
X4507859Y5474500D01*
X4427860Y5474500D01*
G37*
G36*
X4824399Y5928598D02*
G01*
X4878400Y5928598D01*
X4878400Y5872035D01*
X4824399Y5872035D01*
G37*
D17*
G01*
X4851400Y5986881D03*
G36*
X4752101Y4087799D02*
G01*
X4752101Y4141800D01*
X4808664Y4141800D01*
X4808664Y4087799D01*
G37*
G36*
X4722098Y4087799D02*
G01*
X4722098Y4141800D01*
X4665535Y4141800D01*
X4665535Y4087799D01*
G37*
G36*
X3684600Y4167901D02*
G01*
X3630599Y4167901D01*
X3630599Y4224464D01*
X3684600Y4224464D01*
G37*
G01*
X3657600Y4109618D03*
G36*
X4722098Y4560900D02*
G01*
X4722098Y4506899D01*
X4665535Y4506899D01*
X4665535Y4560900D01*
G37*
G36*
X4752101Y4560900D02*
G01*
X4752101Y4506899D01*
X4808664Y4506899D01*
X4808664Y4560900D01*
G37*
G36*
X4802901Y4671999D02*
G01*
X4802901Y4726000D01*
X4859464Y4726000D01*
X4859464Y4671999D01*
G37*
G36*
X4772898Y4671999D02*
G01*
X4772898Y4726000D01*
X4716335Y4726000D01*
X4716335Y4671999D01*
G37*
G36*
X4722098Y4281500D02*
G01*
X4722098Y4227499D01*
X4665535Y4227499D01*
X4665535Y4281500D01*
G37*
G36*
X4752101Y4281500D02*
G01*
X4752101Y4227499D01*
X4808664Y4227499D01*
X4808664Y4281500D01*
G37*
G36*
X4853701Y5599099D02*
G01*
X4853701Y5653100D01*
X4910264Y5653100D01*
X4910264Y5599099D01*
G37*
G36*
X4823698Y5599099D02*
G01*
X4823698Y5653100D01*
X4767135Y5653100D01*
X4767135Y5599099D01*
G37*
G36*
X4518898Y5361000D02*
G01*
X4518898Y5306999D01*
X4462335Y5306999D01*
X4462335Y5361000D01*
G37*
G36*
X4548901Y5361000D02*
G01*
X4548901Y5306999D01*
X4605464Y5306999D01*
X4605464Y5361000D01*
G37*
G36*
X4752101Y4367199D02*
G01*
X4752101Y4421200D01*
X4808664Y4421200D01*
X4808664Y4367199D01*
G37*
G36*
X4722098Y4367199D02*
G01*
X4722098Y4421200D01*
X4665535Y4421200D01*
X4665535Y4367199D01*
G37*
G36*
X4802901Y4811699D02*
G01*
X4802901Y4865700D01*
X4859464Y4865700D01*
X4859464Y4811699D01*
G37*
G36*
X4772898Y4811699D02*
G01*
X4772898Y4865700D01*
X4716335Y4865700D01*
X4716335Y4811699D01*
G37*
G36*
X2818803Y4278299D02*
G01*
X2918802Y4278299D01*
X2918802Y4078300D01*
X2818803Y4078300D01*
G37*
G36*
X3278802Y4278299D02*
G01*
X3378801Y4278299D01*
X3378801Y4078300D01*
X3278802Y4078300D01*
G37*
G36*
X2818803Y5967399D02*
G01*
X2918802Y5967399D01*
X2918802Y5767400D01*
X2818803Y5767400D01*
G37*
G36*
X3278802Y5967399D02*
G01*
X3378801Y5967399D01*
X3378801Y5767400D01*
X3278802Y5767400D01*
G37*
D20*
G01*
X4281297Y4703089D03*
G01*
X4051300Y4703089D03*
G01*
X3821302Y4703089D03*
G36*
X3871300Y4259600D02*
G01*
X4231299Y4259600D01*
X4231299Y4012600D01*
X3871300Y4012600D01*
G37*
D22*
G01*
X6907352Y5929198D03*
G01*
X6780352Y5929198D03*
G01*
X6653352Y5929198D03*
G01*
X6526352Y5929198D03*
G01*
X6399352Y5929198D03*
G01*
X6272352Y5929198D03*
G01*
X6145352Y5929198D03*
G01*
X6018352Y5929198D03*
G01*
X5891352Y5929198D03*
G01*
X5764352Y5929198D03*
G01*
X5637352Y5929198D03*
G01*
X5510352Y5929198D03*
G01*
X5383352Y5929198D03*
G01*
X5256352Y5929198D03*
D23*
G01*
X5106847Y5600674D03*
G01*
X5106847Y5473674D03*
G01*
X5106847Y5346674D03*
G01*
X5106847Y5219674D03*
G01*
X5106847Y5092674D03*
G01*
X5106847Y4965674D03*
G01*
X5106847Y4838674D03*
G01*
X5106847Y4711674D03*
G01*
X5106847Y4584674D03*
G01*
X5106847Y4457674D03*
D22*
G01*
X5256352Y4129201D03*
G01*
X5383352Y4129201D03*
G01*
X5510352Y4129201D03*
G01*
X5637352Y4129201D03*
G01*
X5764352Y4129201D03*
G01*
X5891352Y4129201D03*
G01*
X6018352Y4129201D03*
G01*
X6145352Y4129201D03*
G01*
X6272352Y4129201D03*
G01*
X6399352Y4129201D03*
G01*
X6526352Y4129201D03*
G01*
X6653352Y4129201D03*
G01*
X6780352Y4129201D03*
G01*
X6907352Y4129201D03*
G36*
X6090810Y5195704D02*
G01*
X6223812Y5195704D01*
X6223812Y5062705D01*
X6090810Y5062705D01*
G37*
G36*
X6090848Y5379191D02*
G01*
X6223850Y5379191D01*
X6223850Y5246192D01*
X6090848Y5246192D01*
G37*
G36*
X6090848Y5012192D02*
G01*
X6223850Y5012192D01*
X6223850Y4879192D01*
X6090848Y4879192D01*
G37*
G36*
X6274348Y5012192D02*
G01*
X6407350Y5012192D01*
X6407350Y4879192D01*
X6274348Y4879192D01*
G37*
G36*
X6274348Y5195691D02*
G01*
X6407350Y5195691D01*
X6407350Y5062692D01*
X6274348Y5062692D01*
G37*
G36*
X6274348Y5379191D02*
G01*
X6407350Y5379191D01*
X6407350Y5246192D01*
X6274348Y5246192D01*
G37*
G36*
X5907349Y5379191D02*
G01*
X6040351Y5379191D01*
X6040351Y5246192D01*
X5907349Y5246192D01*
G37*
G36*
X5907349Y5195691D02*
G01*
X6040351Y5195691D01*
X6040351Y5062692D01*
X5907349Y5062692D01*
G37*
G36*
X5907349Y5012194D02*
G01*
X6040351Y5012194D01*
X6040351Y4879195D01*
X5907349Y4879195D01*
G37*
D25*
G01*
X3389096Y5191480D03*
G01*
X3389096Y5141493D03*
G01*
X3388944Y5091480D03*
G01*
X3389096Y5041493D03*
G01*
X3388944Y4991480D03*
G01*
X3389096Y4941493D03*
G01*
X3389096Y4891481D03*
G01*
X3389096Y4841494D03*
D26*
G01*
X3389096Y4775504D03*
G01*
X3389096Y4695494D03*
G01*
X3389096Y5257495D03*
G01*
X3389096Y5337505D03*
D27*
G01*
X2959100Y6324600D03*
G01*
X3213100Y6324600D03*
G01*
X3467100Y6324600D03*
G01*
X3721100Y6324600D03*
G01*
X3975100Y6324600D03*
G01*
X4229100Y6324600D03*
G01*
X4483100Y6324600D03*
G01*
X4737100Y6324600D03*
G01*
X4991100Y6324600D03*
G01*
X5245100Y6324600D03*
G01*
X5499100Y6324600D03*
G01*
X5753100Y6324600D03*
G01*
X6007100Y6324600D03*
G01*
X6261100Y6324600D03*
G01*
X6515100Y6324600D03*
G01*
X6769100Y6324600D03*
G01*
X7023100Y6324600D03*
G01*
X7277100Y6324600D03*
D28*
G01*
X7531100Y6324600D03*
D27*
G01*
X2959100Y3721100D03*
G01*
X3213100Y3721100D03*
G01*
X3467100Y3721100D03*
G01*
X3721100Y3721100D03*
G01*
X3975100Y3721100D03*
G01*
X4229100Y3721100D03*
G01*
X4483100Y3721100D03*
G01*
X4737100Y3721100D03*
G01*
X4991100Y3721100D03*
G01*
X5245100Y3721100D03*
G01*
X5499100Y3721100D03*
G01*
X5753100Y3721100D03*
G01*
X6007100Y3721100D03*
G01*
X6261100Y3721100D03*
G01*
X6515100Y3721100D03*
G01*
X6769100Y3721100D03*
G01*
X7023100Y3721100D03*
G01*
X7277100Y3721100D03*
D28*
G01*
X7531100Y3721100D03*
D13*
G01*
X4546600Y4813300D03*
G01*
X3632200Y4762500D03*
G01*
X4822748Y4913121D03*
G01*
X4152900Y4826000D03*
G01*
X4655058Y6097879D03*
G01*
X4420260Y5404129D03*
G01*
X4375886Y5203697D03*
G01*
X3839083Y5508015D03*
G01*
X4433900Y6024626D03*
G01*
X4761077Y5109311D03*
G01*
X4670526Y5715355D03*
G01*
X4744516Y4962220D03*
G01*
X4684445Y4778527D03*
G01*
X3736466Y4187545D03*
G01*
X3823944Y4119676D03*
G01*
X4979771Y5968593D03*
G01*
X6399352Y3881754D03*
G01*
X4928082Y4110786D03*
G01*
X3529939Y5670346D03*
G01*
X4981752Y4258310D03*
G01*
X4955311Y4659045D03*
G01*
X4905425Y4475734D03*
G01*
X4366844Y6158306D03*
G01*
X5277484Y4927600D03*
D14*
G01*
X3822700Y5232400D03*
G01*
X3848100Y4978400D03*
D29*
X2970103Y5574487D02*
G01*
X2850103Y5574487D01*
X2970103Y4458487D02*
G01*
X2850103Y4458487D01*
X3350102Y4458487D02*
G01*
X3270102Y4458487D01*
X3350102Y5574487D02*
G01*
X3270102Y5574487D01*
M02*
