G04 Layer: BottomSolderMaskLayer*
G04 EasyEDA v6.5.3, 2022-05-09 22:00:40*
G04 d9374f8db1c04431a46586793fd7dc8a,036ae6e9a2b24cebb23d0048bde98d7c,10*
G04 Gerber Generator version 0.2*
G04 Scale: 100 percent, Rotated: No, Reflected: No *
G04 Dimensions in millimeters *
G04 leading zeros omitted , absolute positions ,4 integer and 5 decimal *
%FSLAX45Y45*%
%MOMM*%

%ADD36C,1.3016*%
%ADD44C,1.7016*%

%LPD*%
D36*
X2970103Y5574487D02*
G01*
X2850103Y5574487D01*
X2970103Y4458487D02*
G01*
X2850103Y4458487D01*
X3350102Y4458487D02*
G01*
X3270102Y4458487D01*
X3350102Y5574487D02*
G01*
X3270102Y5574487D01*
D44*
G01*
X2959100Y6324600D03*
G01*
X3213100Y6324600D03*
G01*
X3467100Y6324600D03*
G01*
X3721100Y6324600D03*
G01*
X3975100Y6324600D03*
G01*
X4229100Y6324600D03*
G01*
X4483100Y6324600D03*
G01*
X4737100Y6324600D03*
G01*
X4991100Y6324600D03*
G01*
X5245100Y6324600D03*
G01*
X5499100Y6324600D03*
G01*
X5753100Y6324600D03*
G01*
X6007100Y6324600D03*
G01*
X6261100Y6324600D03*
G01*
X6515100Y6324600D03*
G01*
X6769100Y6324600D03*
G01*
X7023100Y6324600D03*
G01*
X7277100Y6324600D03*
G36*
X7446009Y6239510D02*
G01*
X7446009Y6409689D01*
X7616190Y6409689D01*
X7616190Y6239510D01*
G37*
G01*
X2959100Y3721100D03*
G01*
X3213100Y3721100D03*
G01*
X3467100Y3721100D03*
G01*
X3721100Y3721100D03*
G01*
X3975100Y3721100D03*
G01*
X4229100Y3721100D03*
G01*
X4483100Y3721100D03*
G01*
X4737100Y3721100D03*
G01*
X4991100Y3721100D03*
G01*
X5245100Y3721100D03*
G01*
X5499100Y3721100D03*
G01*
X5753100Y3721100D03*
G01*
X6007100Y3721100D03*
G01*
X6261100Y3721100D03*
G01*
X6515100Y3721100D03*
G01*
X6769100Y3721100D03*
G01*
X7023100Y3721100D03*
G01*
X7277100Y3721100D03*
G36*
X7446009Y3636010D02*
G01*
X7446009Y3806189D01*
X7616190Y3806189D01*
X7616190Y3636010D01*
G37*
M02*
