G04 Layer: BottomLayer*
G04 EasyEDA v6.5.3, 2022-05-09 22:00:40*
G04 d9374f8db1c04431a46586793fd7dc8a,036ae6e9a2b24cebb23d0048bde98d7c,10*
G04 Gerber Generator version 0.2*
G04 Scale: 100 percent, Rotated: No, Reflected: No *
G04 Dimensions in millimeters *
G04 leading zeros omitted , absolute positions ,4 integer and 5 decimal *
%FSLAX45Y45*%
%MOMM*%

%ADD10C,0.2540*%
%ADD11C,0.1500*%
%ADD13C,0.6100*%
%ADD14C,0.6096*%
%ADD27C,1.6000*%
%ADD28R,1.6000X1.6000*%
%ADD29C,1.2000*%

%LPD*%
G36*
X7350759Y5476240D02*
G01*
X7343444Y5475020D01*
X7336790Y5471718D01*
X7332696Y5468366D01*
X7354824Y5468366D01*
X7354976Y5469991D01*
X7355687Y5471007D01*
X7357109Y5471160D01*
X7359446Y5470753D01*
X7361529Y5469788D01*
X7364984Y5467096D01*
X7370114Y5462270D01*
X7372502Y5459577D01*
X7374636Y5456682D01*
X7375347Y5454751D01*
X7375652Y5452618D01*
X7375550Y5451551D01*
X7375144Y5450636D01*
X7374381Y5450027D01*
X7373112Y5449824D01*
X7371334Y5450636D01*
X7370013Y5452059D01*
X7368031Y5455666D01*
X7365542Y5459120D01*
X7362291Y5461660D01*
X7357872Y5464505D01*
X7355840Y5466334D01*
X7354824Y5468366D01*
X7332696Y5468366D01*
X7330897Y5466892D01*
X7325868Y5461254D01*
X7322007Y5455666D01*
X7318654Y5449620D01*
X7315657Y5443220D01*
X7310120Y5429605D01*
X7307681Y5422341D01*
X7305954Y5414772D01*
X7305507Y5409438D01*
X7343902Y5409438D01*
X7344714Y5415788D01*
X7346086Y5421426D01*
X7348169Y5426456D01*
X7351268Y5430774D01*
X7352944Y5432196D01*
X7354773Y5433314D01*
X7356805Y5434076D01*
X7358888Y5434330D01*
X7363764Y5432958D01*
X7366914Y5429554D01*
X7368997Y5424982D01*
X7370572Y5420360D01*
X7368836Y5411216D01*
X7381748Y5411216D01*
X7382865Y5416397D01*
X7384999Y5421426D01*
X7388301Y5425236D01*
X7393178Y5426710D01*
X7396073Y5425998D01*
X7398562Y5424170D01*
X7400594Y5421782D01*
X7402068Y5419344D01*
X7403033Y5417159D01*
X7404201Y5412435D01*
X7404608Y5409946D01*
X7393178Y5410860D01*
X7381748Y5411216D01*
X7368836Y5411216D01*
X7368794Y5410708D01*
X7343902Y5409438D01*
X7305507Y5409438D01*
X7305294Y5406898D01*
X7305598Y5401665D01*
X7306513Y5396534D01*
X7308088Y5391658D01*
X7310272Y5387289D01*
X7313117Y5383580D01*
X7316520Y5380736D01*
X7320635Y5378856D01*
X7325359Y5378196D01*
X7327849Y5378450D01*
X7330389Y5379262D01*
X7332776Y5380431D01*
X7335012Y5382006D01*
X7350810Y5381955D01*
X7367016Y5381244D01*
X7367219Y5377332D01*
X7367981Y5374386D01*
X7369505Y5372201D01*
X7371842Y5371338D01*
X7374788Y5372150D01*
X7376922Y5374233D01*
X7378496Y5377027D01*
X7379716Y5379974D01*
X7405624Y5376672D01*
X7405878Y5375148D01*
X7408164Y5370880D01*
X7411567Y5367121D01*
X7415834Y5364480D01*
X7420864Y5363464D01*
X7424470Y5363921D01*
X7426350Y5364530D01*
X7428230Y5365496D01*
X7431582Y5368036D01*
X7434376Y5371236D01*
X7436662Y5375046D01*
X7438440Y5379313D01*
X7439812Y5383987D01*
X7440726Y5389016D01*
X7441285Y5394299D01*
X7441438Y5399786D01*
X7440879Y5410149D01*
X7439304Y5420410D01*
X7436916Y5429910D01*
X7434072Y5438140D01*
X7431227Y5444134D01*
X7427671Y5449519D01*
X7423556Y5453989D01*
X7418831Y5457444D01*
X7415784Y5458917D01*
X7412786Y5459933D01*
X7409891Y5460542D01*
X7407148Y5460746D01*
X7399477Y5459374D01*
X7392619Y5455869D01*
X7389263Y5453126D01*
X7409688Y5453126D01*
X7410246Y5454294D01*
X7411212Y5454904D01*
X7414514Y5454497D01*
X7416495Y5453532D01*
X7419848Y5450840D01*
X7426452Y5444490D01*
X7429296Y5441340D01*
X7430516Y5439308D01*
X7431024Y5436870D01*
X7430820Y5435498D01*
X7430262Y5434431D01*
X7429296Y5433822D01*
X7427975Y5433568D01*
X7426299Y5434380D01*
X7424978Y5435803D01*
X7422896Y5439410D01*
X7421270Y5441696D01*
X7419441Y5443677D01*
X7417358Y5445353D01*
X7412024Y5448858D01*
X7410754Y5450281D01*
X7409688Y5453126D01*
X7389263Y5453126D01*
X7386777Y5451094D01*
X7382256Y5446014D01*
X7379360Y5454497D01*
X7375245Y5461914D01*
X7369911Y5468061D01*
X7363459Y5472684D01*
X7360107Y5474309D01*
X7356906Y5475427D01*
X7353808Y5476036D01*
G37*
G36*
X7322566Y5358638D02*
G01*
X7315809Y5357063D01*
X7310628Y5353050D01*
X7306767Y5347716D01*
X7305520Y5345176D01*
X7313422Y5345176D01*
X7314082Y5346496D01*
X7315758Y5347462D01*
X7317943Y5348020D01*
X7320025Y5348224D01*
X7323074Y5347462D01*
X7325410Y5345582D01*
X7326985Y5342890D01*
X7327900Y5339842D01*
X7328103Y5338318D01*
X7328001Y5336743D01*
X7327442Y5335524D01*
X7326375Y5335016D01*
X7325359Y5335016D01*
X7324648Y5335371D01*
X7324090Y5336184D01*
X7323581Y5338318D01*
X7323328Y5340502D01*
X7322566Y5342382D01*
X7321245Y5343652D01*
X7319264Y5344160D01*
X7317384Y5343956D01*
X7315708Y5343398D01*
X7313980Y5343550D01*
X7313625Y5343906D01*
X7313422Y5345176D01*
X7305520Y5345176D01*
X7304024Y5342128D01*
X7301382Y5335117D01*
X7299553Y5327802D01*
X7298537Y5320284D01*
X7298181Y5312664D01*
X7298385Y5306720D01*
X7299045Y5300980D01*
X7300112Y5295442D01*
X7301534Y5290058D01*
X7303363Y5284927D01*
X7305497Y5279999D01*
X7307986Y5275326D01*
X7310780Y5270855D01*
X7313828Y5266639D01*
X7317181Y5262676D01*
X7320737Y5258968D01*
X7324547Y5255564D01*
X7328611Y5252415D01*
X7332827Y5249570D01*
X7337196Y5247030D01*
X7341717Y5244744D01*
X7346391Y5242814D01*
X7351115Y5241239D01*
X7355992Y5239918D01*
X7363866Y5238648D01*
X7369403Y5238292D01*
X7378090Y5238496D01*
X7383932Y5239207D01*
X7389571Y5240375D01*
X7395006Y5242001D01*
X7400188Y5243982D01*
X7405166Y5246370D01*
X7409942Y5249062D01*
X7414412Y5252110D01*
X7418578Y5255412D01*
X7422489Y5258968D01*
X7426096Y5262727D01*
X7429398Y5266740D01*
X7432344Y5270906D01*
X7434986Y5275224D01*
X7437272Y5279694D01*
X7439152Y5284216D01*
X7440879Y5289702D01*
X7442149Y5295341D01*
X7442962Y5301081D01*
X7443216Y5306822D01*
X7442860Y5313222D01*
X7441793Y5319420D01*
X7440168Y5325364D01*
X7437932Y5330952D01*
X7435189Y5336082D01*
X7431989Y5340756D01*
X7428382Y5344820D01*
X7424420Y5348224D01*
X7420102Y5351068D01*
X7415275Y5353304D01*
X7410043Y5354777D01*
X7404608Y5355336D01*
X7401356Y5355132D01*
X7398207Y5354472D01*
X7395108Y5353202D01*
X7392162Y5351272D01*
X7387285Y5346293D01*
X7385785Y5343144D01*
X7404862Y5343144D01*
X7405014Y5344617D01*
X7406030Y5345531D01*
X7407656Y5345684D01*
X7410500Y5345277D01*
X7413040Y5344363D01*
X7417053Y5341874D01*
X7421219Y5338673D01*
X7426959Y5333796D01*
X7428687Y5332018D01*
X7430008Y5329885D01*
X7430516Y5327396D01*
X7430262Y5326075D01*
X7429601Y5325110D01*
X7428484Y5324551D01*
X7426959Y5324348D01*
X7424928Y5325262D01*
X7423353Y5326684D01*
X7420864Y5330190D01*
X7418831Y5332526D01*
X7416495Y5334558D01*
X7413955Y5336336D01*
X7407452Y5339791D01*
X7405878Y5341264D01*
X7404862Y5343144D01*
X7385785Y5343144D01*
X7384237Y5339892D01*
X7382713Y5332171D01*
X7382256Y5323332D01*
X7382256Y5314696D01*
X7382002Y5308650D01*
X7381240Y5302910D01*
X7379868Y5297576D01*
X7377734Y5292852D01*
X7374839Y5288889D01*
X7371130Y5285841D01*
X7366406Y5283911D01*
X7360666Y5283200D01*
X7356652Y5283555D01*
X7352792Y5284724D01*
X7348169Y5287060D01*
X7344156Y5290159D01*
X7340803Y5294020D01*
X7338059Y5298490D01*
X7335926Y5303621D01*
X7334453Y5309209D01*
X7333538Y5315305D01*
X7333234Y5321808D01*
X7334402Y5338673D01*
X7334503Y5342890D01*
X7333894Y5348884D01*
X7331862Y5353913D01*
X7328204Y5357368D01*
G37*
G36*
X7413498Y5233162D02*
G01*
X7409129Y5232958D01*
X7404811Y5232400D01*
X7400544Y5231434D01*
X7396480Y5230114D01*
X7391196Y5227828D01*
X7386218Y5224983D01*
X7381544Y5221681D01*
X7377226Y5217972D01*
X7375728Y5216398D01*
X7424928Y5216398D01*
X7425080Y5218023D01*
X7425893Y5219039D01*
X7427722Y5219192D01*
X7432344Y5218277D01*
X7436764Y5215940D01*
X7440117Y5212384D01*
X7441438Y5207762D01*
X7441234Y5206187D01*
X7440625Y5204866D01*
X7439507Y5204002D01*
X7437881Y5203698D01*
X7435342Y5204714D01*
X7432649Y5206695D01*
X7430262Y5209082D01*
X7425944Y5214366D01*
X7424928Y5216398D01*
X7375728Y5216398D01*
X7373264Y5213807D01*
X7369606Y5209286D01*
X7366355Y5204409D01*
X7363409Y5199278D01*
X7360818Y5193842D01*
X7358634Y5188153D01*
X7356805Y5182311D01*
X7355331Y5176266D01*
X7374890Y5176266D01*
X7376769Y5182819D01*
X7380224Y5188610D01*
X7385405Y5192725D01*
X7392416Y5194300D01*
X7399070Y5192674D01*
X7403896Y5188407D01*
X7407148Y5182514D01*
X7408925Y5176012D01*
X7399578Y5176469D01*
X7355331Y5176266D01*
X7355078Y5175250D01*
X7335113Y5174437D01*
X7331405Y5174132D01*
X7327747Y5173421D01*
X7324344Y5172202D01*
X7321296Y5170474D01*
X7318502Y5167934D01*
X7316470Y5164785D01*
X7315708Y5161026D01*
X7316520Y5156860D01*
X7318705Y5153456D01*
X7321803Y5150866D01*
X7325359Y5149088D01*
X7327900Y5148275D01*
X7330592Y5147716D01*
X7336028Y5147310D01*
X7352792Y5147564D01*
X7352792Y5140960D01*
X7353249Y5136997D01*
X7354570Y5133797D01*
X7356856Y5131612D01*
X7360767Y5130800D01*
X7362952Y5131054D01*
X7367066Y5133390D01*
X7370216Y5137099D01*
X7372502Y5141722D01*
X7373874Y5146802D01*
X7391552Y5145227D01*
X7409180Y5143246D01*
X7410145Y5138877D01*
X7411872Y5134813D01*
X7414209Y5131104D01*
X7417155Y5127853D01*
X7420660Y5125161D01*
X7424623Y5123129D01*
X7428941Y5121859D01*
X7433564Y5121402D01*
X7439355Y5121960D01*
X7444536Y5123535D01*
X7449108Y5126024D01*
X7453071Y5129225D01*
X7456424Y5133086D01*
X7459218Y5137353D01*
X7461402Y5141976D01*
X7463028Y5146802D01*
X7463840Y5150408D01*
X7464399Y5154066D01*
X7464806Y5161534D01*
X7464552Y5169001D01*
X7463536Y5176520D01*
X7462520Y5182311D01*
X7461199Y5187950D01*
X7459624Y5193436D01*
X7457744Y5198770D01*
X7455560Y5203799D01*
X7453071Y5208574D01*
X7450226Y5213045D01*
X7447076Y5217210D01*
X7443520Y5220970D01*
X7439659Y5224322D01*
X7435392Y5227218D01*
X7430770Y5229606D01*
X7426553Y5231231D01*
X7422235Y5232349D01*
X7417866Y5232958D01*
G37*
G36*
X7322566Y5117338D02*
G01*
X7315809Y5115763D01*
X7310628Y5111750D01*
X7306767Y5106416D01*
X7305395Y5103622D01*
X7313422Y5103622D01*
X7314082Y5105095D01*
X7315758Y5106111D01*
X7317943Y5106720D01*
X7320025Y5106924D01*
X7323074Y5106162D01*
X7325410Y5104130D01*
X7326985Y5101336D01*
X7327900Y5098288D01*
X7328103Y5096865D01*
X7328001Y5095290D01*
X7327442Y5094020D01*
X7326375Y5093462D01*
X7325359Y5093462D01*
X7324648Y5093817D01*
X7324090Y5094782D01*
X7323328Y5099202D01*
X7322566Y5101082D01*
X7321245Y5102352D01*
X7319264Y5102860D01*
X7315708Y5102098D01*
X7313980Y5102250D01*
X7313625Y5102555D01*
X7313422Y5103622D01*
X7305395Y5103622D01*
X7304024Y5100828D01*
X7301382Y5093665D01*
X7299553Y5086299D01*
X7298537Y5078831D01*
X7298181Y5071364D01*
X7298385Y5065420D01*
X7299045Y5059680D01*
X7300112Y5054142D01*
X7301534Y5048758D01*
X7303363Y5043627D01*
X7305497Y5038699D01*
X7307986Y5034026D01*
X7310780Y5029555D01*
X7313828Y5025339D01*
X7317181Y5021376D01*
X7320737Y5017668D01*
X7324547Y5014264D01*
X7328611Y5011115D01*
X7332827Y5008270D01*
X7337196Y5005730D01*
X7341717Y5003444D01*
X7346391Y5001514D01*
X7351115Y4999939D01*
X7355992Y4998618D01*
X7363866Y4997246D01*
X7369403Y4996738D01*
X7378090Y4996942D01*
X7383932Y4997653D01*
X7389571Y4998821D01*
X7395006Y5000447D01*
X7400188Y5002428D01*
X7405166Y5004816D01*
X7409942Y5007508D01*
X7414412Y5010556D01*
X7418578Y5013858D01*
X7422489Y5017414D01*
X7426096Y5021173D01*
X7429398Y5025186D01*
X7432344Y5029352D01*
X7434986Y5033670D01*
X7437272Y5038140D01*
X7439152Y5042662D01*
X7440879Y5048250D01*
X7442149Y5053888D01*
X7442962Y5059680D01*
X7443216Y5065522D01*
X7442860Y5071922D01*
X7441793Y5078120D01*
X7440168Y5084064D01*
X7437932Y5089652D01*
X7435189Y5094782D01*
X7431989Y5099456D01*
X7428382Y5103520D01*
X7424420Y5106924D01*
X7420102Y5109616D01*
X7415275Y5111800D01*
X7410043Y5113223D01*
X7404608Y5113782D01*
X7401356Y5113578D01*
X7398207Y5112918D01*
X7395108Y5111750D01*
X7392162Y5109972D01*
X7387285Y5104942D01*
X7385701Y5101590D01*
X7404862Y5101590D01*
X7405014Y5103215D01*
X7406030Y5104231D01*
X7407656Y5104384D01*
X7410500Y5103977D01*
X7413040Y5103012D01*
X7421219Y5097221D01*
X7426959Y5092496D01*
X7428687Y5090718D01*
X7430008Y5088585D01*
X7430516Y5086096D01*
X7430262Y5084775D01*
X7429601Y5083810D01*
X7428484Y5083251D01*
X7426959Y5083048D01*
X7424928Y5083962D01*
X7423353Y5085384D01*
X7420864Y5088890D01*
X7418831Y5091176D01*
X7416495Y5093157D01*
X7413955Y5094833D01*
X7407452Y5098338D01*
X7405878Y5099812D01*
X7404862Y5101590D01*
X7385701Y5101590D01*
X7384237Y5098491D01*
X7382713Y5090769D01*
X7382256Y5082032D01*
X7382256Y5073142D01*
X7382002Y5067096D01*
X7381240Y5061356D01*
X7379868Y5056022D01*
X7377734Y5051298D01*
X7374839Y5047335D01*
X7371130Y5044287D01*
X7366406Y5042357D01*
X7360666Y5041646D01*
X7356652Y5042154D01*
X7352792Y5043424D01*
X7348169Y5045760D01*
X7344156Y5048859D01*
X7340803Y5052669D01*
X7338059Y5057190D01*
X7335926Y5062220D01*
X7334453Y5067808D01*
X7333538Y5073853D01*
X7333234Y5080254D01*
X7334503Y5100015D01*
X7333894Y5107482D01*
X7331862Y5112562D01*
X7328204Y5116068D01*
G37*
G36*
X7328408Y5002276D02*
G01*
X7322718Y5001310D01*
X7317790Y4998821D01*
X7313777Y4995418D01*
X7310628Y4991608D01*
X7309272Y4989322D01*
X7324852Y4989322D01*
X7325410Y4990287D01*
X7326375Y4990846D01*
X7327646Y4990846D01*
X7331456Y4990236D01*
X7334707Y4988509D01*
X7337196Y4985918D01*
X7338568Y4982718D01*
X7338771Y4981295D01*
X7338517Y4979873D01*
X7337907Y4978806D01*
X7336790Y4978400D01*
X7335520Y4978400D01*
X7332675Y4979670D01*
X7330135Y4981651D01*
X7325512Y4987188D01*
X7324852Y4989322D01*
X7309272Y4989322D01*
X7308037Y4987239D01*
X7305903Y4982616D01*
X7304074Y4977739D01*
X7300874Y4967579D01*
X7297877Y4957165D01*
X7295438Y4946548D01*
X7294625Y4941062D01*
X7294067Y4935423D01*
X7293864Y4929632D01*
X7294036Y4925060D01*
X7422896Y4925060D01*
X7423048Y4926634D01*
X7424064Y4927447D01*
X7424674Y4927600D01*
X7427975Y4927600D01*
X7434580Y4926990D01*
X7440574Y4925212D01*
X7445552Y4922367D01*
X7449312Y4918456D01*
X7450226Y4916627D01*
X7450581Y4914392D01*
X7450378Y4913274D01*
X7449769Y4912309D01*
X7448753Y4911598D01*
X7447280Y4911344D01*
X7445197Y4912410D01*
X7439355Y4917643D01*
X7436713Y4919218D01*
X7435342Y4919726D01*
X7427874Y4921250D01*
X7424674Y4922520D01*
X7422896Y4925060D01*
X7294036Y4925060D01*
X7294676Y4919167D01*
X7295642Y4914392D01*
X7297013Y4909870D01*
X7298791Y4905705D01*
X7300925Y4901844D01*
X7303465Y4898288D01*
X7306309Y4895088D01*
X7312101Y4890566D01*
X7318705Y4887163D01*
X7325868Y4884572D01*
X7333234Y4882642D01*
X7340092Y4881168D01*
X7354011Y4878984D01*
X7368031Y4877663D01*
X7382256Y4877104D01*
X7394549Y4877104D01*
X7418628Y4877866D01*
X7427112Y4878628D01*
X7435342Y4880152D01*
X7443216Y4882896D01*
X7450328Y4886858D01*
X7456627Y4892649D01*
X7461097Y4900066D01*
X7462774Y4909058D01*
X7462266Y4913934D01*
X7460843Y4918354D01*
X7458709Y4922418D01*
X7455865Y4926025D01*
X7452614Y4929174D01*
X7448956Y4931867D01*
X7445095Y4934051D01*
X7441184Y4935728D01*
X7435697Y4937607D01*
X7429906Y4938776D01*
X7424013Y4939385D01*
X7414615Y4939436D01*
X7397699Y4938318D01*
X7377785Y4936693D01*
X7364577Y4935220D01*
X7351420Y4933340D01*
X7338364Y4930902D01*
X7324547Y4927650D01*
X7323581Y4927600D01*
X7322667Y4927803D01*
X7322312Y4928616D01*
X7322362Y4929936D01*
X7336993Y4948377D01*
X7340346Y4953101D01*
X7343343Y4958029D01*
X7345832Y4963210D01*
X7348321Y4971034D01*
X7348931Y4975707D01*
X7348981Y4978146D01*
X7348626Y4982768D01*
X7347610Y4987188D01*
X7345883Y4991252D01*
X7343546Y4994859D01*
X7340600Y4997907D01*
X7337094Y5000244D01*
X7333030Y5001768D01*
G37*
G36*
X7379462Y4861560D02*
G01*
X7372400Y4861458D01*
X7365593Y4861102D01*
X7359091Y4860493D01*
X7352842Y4859477D01*
X7346746Y4858105D01*
X7340853Y4856327D01*
X7335062Y4853990D01*
X7329424Y4851146D01*
X7325309Y4848707D01*
X7323413Y4847336D01*
X7427975Y4847336D01*
X7428128Y4849164D01*
X7428433Y4849672D01*
X7430109Y4850231D01*
X7433056Y4850384D01*
X7439659Y4849723D01*
X7445502Y4847793D01*
X7450429Y4844796D01*
X7454138Y4840986D01*
X7455052Y4839157D01*
X7455408Y4837176D01*
X7455204Y4835956D01*
X7454595Y4834991D01*
X7453579Y4834331D01*
X7452106Y4834128D01*
X7450124Y4835042D01*
X7445248Y4839208D01*
X7442911Y4840782D01*
X7440472Y4841798D01*
X7434325Y4843272D01*
X7430363Y4844745D01*
X7428839Y4845862D01*
X7427975Y4847336D01*
X7323413Y4847336D01*
X7317790Y4842865D01*
X7314438Y4839563D01*
X7311339Y4836007D01*
X7308545Y4832197D01*
X7306106Y4828184D01*
X7304024Y4823968D01*
X7302195Y4819091D01*
X7300823Y4814112D01*
X7300010Y4808931D01*
X7299706Y4803648D01*
X7299909Y4799634D01*
X7300417Y4795570D01*
X7301331Y4791557D01*
X7302500Y4787646D01*
X7305802Y4780838D01*
X7310323Y4774641D01*
X7315860Y4769307D01*
X7322312Y4765040D01*
X7326223Y4763160D01*
X7330236Y4761687D01*
X7338568Y4759706D01*
X7343648Y4759198D01*
X7347102Y4759553D01*
X7350048Y4760722D01*
X7352030Y4762855D01*
X7352792Y4766056D01*
X7351725Y4769662D01*
X7349032Y4771898D01*
X7345375Y4773218D01*
X7341616Y4773930D01*
X7333589Y4776165D01*
X7326579Y4780330D01*
X7321651Y4786528D01*
X7319772Y4794758D01*
X7320534Y4799533D01*
X7322566Y4803444D01*
X7325563Y4806543D01*
X7329170Y4808728D01*
X7332370Y4809947D01*
X7342378Y4812182D01*
X7349236Y4813147D01*
X7356094Y4813655D01*
X7362952Y4813808D01*
X7370775Y4813604D01*
X7386320Y4812436D01*
X7401966Y4810861D01*
X7417714Y4809693D01*
X7425690Y4809490D01*
X7431227Y4809642D01*
X7436662Y4810252D01*
X7442047Y4811420D01*
X7447280Y4813300D01*
X7452868Y4816652D01*
X7457897Y4821377D01*
X7461605Y4827320D01*
X7463028Y4834382D01*
X7461402Y4842510D01*
X7457084Y4848961D01*
X7451140Y4853838D01*
X7444486Y4857242D01*
X7437272Y4859172D01*
X7429804Y4860137D01*
X7422184Y4860493D01*
X7405725Y4860798D01*
X7388199Y4861458D01*
G37*
D11*
X3632200Y4762500D02*
G01*
X3639032Y4769332D01*
X4502632Y4769332D01*
X4546600Y4813300D01*
X7428377Y6324600D02*
G01*
X7221037Y6117259D01*
X5038846Y6117259D01*
X4822743Y5901156D01*
X4822743Y4913121D01*
X3632200Y4762500D02*
G01*
X3632200Y5905500D01*
X3213100Y6324600D01*
X7531094Y6324600D02*
G01*
X7428377Y6324600D01*
X6007094Y3738803D02*
G01*
X5027975Y4717922D01*
X4870419Y4717922D01*
X4471639Y5116703D01*
X4443978Y5116703D01*
X4229094Y6324600D02*
G01*
X4229094Y5425947D01*
X4429246Y5225795D01*
X4429246Y5131435D01*
X4443978Y5116703D01*
X6007094Y3738803D02*
G01*
X6095258Y3826967D01*
X7322510Y3826967D01*
X7428377Y3721100D01*
X6007094Y3721100D02*
G01*
X6007094Y3738803D01*
X7531094Y3721100D02*
G01*
X7428377Y3721100D01*
X4655052Y6097879D02*
G01*
X4420255Y5863081D01*
X4420255Y5404129D01*
X3839077Y5508015D02*
G01*
X4143395Y5203697D01*
X4375881Y5203697D01*
X4761072Y5109311D02*
G01*
X4761072Y6075730D01*
X4685532Y6151270D01*
X4560539Y6151270D01*
X4433895Y6024626D01*
X4670521Y5715355D02*
G01*
X4670521Y5036210D01*
X4744511Y4962220D01*
X3736461Y4187545D02*
G01*
X3904127Y4355211D01*
X4261124Y4355211D01*
X4684440Y4778527D01*
X3823939Y4119676D02*
G01*
X3830518Y4119676D01*
X4229094Y3721100D01*
X4979766Y5968593D02*
G01*
X4979766Y5301335D01*
X6399347Y3881754D01*
X4955306Y4659045D02*
G01*
X4995844Y4618507D01*
X4995844Y4272406D01*
X4981747Y4258310D01*
X3975094Y3721100D02*
G01*
X3759194Y3937000D01*
X3759194Y4134789D01*
X3949263Y4324857D01*
X4754544Y4324857D01*
X4905420Y4475734D01*
X4366839Y6158306D02*
G01*
X4366839Y5331129D01*
X4459599Y5238369D01*
X4459599Y5171668D01*
X4783322Y4847945D01*
X5197825Y4847945D01*
X5277479Y4927600D01*
X3953035Y4699000D02*
G01*
X4525009Y4699000D01*
X4658359Y4832350D01*
X4706620Y4832350D01*
X4964175Y4574539D01*
X4964175Y4316221D01*
X4928108Y4280154D01*
X4928108Y4110736D01*
X3529838Y5670295D02*
G01*
X3529838Y4699000D01*
X3953002Y4699000D01*
X3822700Y5232400D02*
G01*
X3822700Y5003800D01*
X3848100Y4978400D01*
X4443984Y5116705D02*
G01*
X4153278Y4826000D01*
X4152900Y4826000D01*
D10*
X3678562Y4815695D02*
G01*
X3678562Y5905500D01*
X3678562Y5905500D02*
G01*
X3677549Y5915139D01*
X3677549Y5915139D02*
G01*
X3674554Y5924357D01*
X3674554Y5924357D02*
G01*
X3669708Y5932751D01*
X3669708Y5932751D02*
G01*
X3664983Y5938283D01*
X3664983Y5938283D02*
G01*
X3323086Y6280180D01*
X3323086Y6280180D02*
G01*
X3325906Y6287145D01*
X3325906Y6287145D02*
G01*
X3329769Y6301878D01*
X3329769Y6301878D02*
G01*
X3331717Y6316984D01*
X3331717Y6316984D02*
G01*
X3331717Y6332215D01*
X3331717Y6332215D02*
G01*
X3329769Y6347321D01*
X3329769Y6347321D02*
G01*
X3325906Y6362054D01*
X3325906Y6362054D02*
G01*
X3320190Y6376172D01*
X3320190Y6376172D02*
G01*
X3312716Y6389443D01*
X3312716Y6389443D02*
G01*
X3304809Y6400037D01*
X3304809Y6400037D02*
G01*
X3375541Y6400037D01*
X3375541Y6400037D02*
G01*
X3371842Y6395692D01*
X3371842Y6395692D02*
G01*
X3363533Y6382927D01*
X3363533Y6382927D02*
G01*
X3356924Y6369204D01*
X3356924Y6369204D02*
G01*
X3352125Y6354749D01*
X3352125Y6354749D02*
G01*
X3349214Y6339799D01*
X3349214Y6339799D02*
G01*
X3348238Y6324600D01*
X3348238Y6324600D02*
G01*
X3349214Y6309400D01*
X3349214Y6309400D02*
G01*
X3352125Y6294450D01*
X3352125Y6294450D02*
G01*
X3356924Y6279995D01*
X3356924Y6279995D02*
G01*
X3363533Y6266272D01*
X3363533Y6266272D02*
G01*
X3371842Y6253507D01*
X3371842Y6253507D02*
G01*
X3381715Y6241909D01*
X3381715Y6241909D02*
G01*
X3392990Y6231670D01*
X3392990Y6231670D02*
G01*
X3405482Y6222956D01*
X3405482Y6222956D02*
G01*
X3418986Y6215911D01*
X3418986Y6215911D02*
G01*
X3433280Y6210651D01*
X3433280Y6210651D02*
G01*
X3448129Y6207261D01*
X3448129Y6207261D02*
G01*
X3463290Y6205799D01*
X3463290Y6205799D02*
G01*
X3478513Y6206287D01*
X3478513Y6206287D02*
G01*
X3493549Y6208718D01*
X3493549Y6208718D02*
G01*
X3508150Y6213051D01*
X3508150Y6213051D02*
G01*
X3522078Y6219217D01*
X3522078Y6219217D02*
G01*
X3535102Y6227112D01*
X3535102Y6227112D02*
G01*
X3547010Y6236609D01*
X3547010Y6236609D02*
G01*
X3557606Y6247550D01*
X3557606Y6247550D02*
G01*
X3566716Y6259756D01*
X3566716Y6259756D02*
G01*
X3574190Y6273027D01*
X3574190Y6273027D02*
G01*
X3579906Y6287145D01*
X3579906Y6287145D02*
G01*
X3583769Y6301878D01*
X3583769Y6301878D02*
G01*
X3585717Y6316984D01*
X3585717Y6316984D02*
G01*
X3585717Y6332215D01*
X3585717Y6332215D02*
G01*
X3583769Y6347321D01*
X3583769Y6347321D02*
G01*
X3579906Y6362054D01*
X3579906Y6362054D02*
G01*
X3574190Y6376172D01*
X3574190Y6376172D02*
G01*
X3566716Y6389443D01*
X3566716Y6389443D02*
G01*
X3558809Y6400037D01*
X3558809Y6400037D02*
G01*
X3629541Y6400037D01*
X3629541Y6400037D02*
G01*
X3625842Y6395692D01*
X3625842Y6395692D02*
G01*
X3617533Y6382927D01*
X3617533Y6382927D02*
G01*
X3610924Y6369204D01*
X3610924Y6369204D02*
G01*
X3606125Y6354749D01*
X3606125Y6354749D02*
G01*
X3603214Y6339799D01*
X3603214Y6339799D02*
G01*
X3602238Y6324600D01*
X3602238Y6324600D02*
G01*
X3603214Y6309400D01*
X3603214Y6309400D02*
G01*
X3606125Y6294450D01*
X3606125Y6294450D02*
G01*
X3610924Y6279995D01*
X3610924Y6279995D02*
G01*
X3617533Y6266272D01*
X3617533Y6266272D02*
G01*
X3625842Y6253507D01*
X3625842Y6253507D02*
G01*
X3635715Y6241909D01*
X3635715Y6241909D02*
G01*
X3646990Y6231670D01*
X3646990Y6231670D02*
G01*
X3659482Y6222956D01*
X3659482Y6222956D02*
G01*
X3672986Y6215911D01*
X3672986Y6215911D02*
G01*
X3687280Y6210651D01*
X3687280Y6210651D02*
G01*
X3702129Y6207261D01*
X3702129Y6207261D02*
G01*
X3717290Y6205799D01*
X3717290Y6205799D02*
G01*
X3732513Y6206287D01*
X3732513Y6206287D02*
G01*
X3747549Y6208718D01*
X3747549Y6208718D02*
G01*
X3762150Y6213051D01*
X3762150Y6213051D02*
G01*
X3776078Y6219217D01*
X3776078Y6219217D02*
G01*
X3789102Y6227112D01*
X3789102Y6227112D02*
G01*
X3801010Y6236609D01*
X3801010Y6236609D02*
G01*
X3811606Y6247550D01*
X3811606Y6247550D02*
G01*
X3820716Y6259756D01*
X3820716Y6259756D02*
G01*
X3828190Y6273027D01*
X3828190Y6273027D02*
G01*
X3833906Y6287145D01*
X3833906Y6287145D02*
G01*
X3837769Y6301878D01*
X3837769Y6301878D02*
G01*
X3839717Y6316984D01*
X3839717Y6316984D02*
G01*
X3839717Y6332215D01*
X3839717Y6332215D02*
G01*
X3837769Y6347321D01*
X3837769Y6347321D02*
G01*
X3833906Y6362054D01*
X3833906Y6362054D02*
G01*
X3828190Y6376172D01*
X3828190Y6376172D02*
G01*
X3820716Y6389443D01*
X3820716Y6389443D02*
G01*
X3812809Y6400037D01*
X3812809Y6400037D02*
G01*
X3883541Y6400037D01*
X3883541Y6400037D02*
G01*
X3879842Y6395692D01*
X3879842Y6395692D02*
G01*
X3871533Y6382927D01*
X3871533Y6382927D02*
G01*
X3864924Y6369204D01*
X3864924Y6369204D02*
G01*
X3860125Y6354749D01*
X3860125Y6354749D02*
G01*
X3857214Y6339799D01*
X3857214Y6339799D02*
G01*
X3856238Y6324600D01*
X3856238Y6324600D02*
G01*
X3857214Y6309400D01*
X3857214Y6309400D02*
G01*
X3860125Y6294450D01*
X3860125Y6294450D02*
G01*
X3864924Y6279995D01*
X3864924Y6279995D02*
G01*
X3871533Y6266272D01*
X3871533Y6266272D02*
G01*
X3879842Y6253507D01*
X3879842Y6253507D02*
G01*
X3889715Y6241909D01*
X3889715Y6241909D02*
G01*
X3900990Y6231670D01*
X3900990Y6231670D02*
G01*
X3913482Y6222956D01*
X3913482Y6222956D02*
G01*
X3926986Y6215911D01*
X3926986Y6215911D02*
G01*
X3941280Y6210651D01*
X3941280Y6210651D02*
G01*
X3956129Y6207261D01*
X3956129Y6207261D02*
G01*
X3971290Y6205799D01*
X3971290Y6205799D02*
G01*
X3986513Y6206287D01*
X3986513Y6206287D02*
G01*
X4001549Y6208718D01*
X4001549Y6208718D02*
G01*
X4016150Y6213051D01*
X4016150Y6213051D02*
G01*
X4030078Y6219217D01*
X4030078Y6219217D02*
G01*
X4043102Y6227112D01*
X4043102Y6227112D02*
G01*
X4055010Y6236609D01*
X4055010Y6236609D02*
G01*
X4065606Y6247550D01*
X4065606Y6247550D02*
G01*
X4074716Y6259756D01*
X4074716Y6259756D02*
G01*
X4082190Y6273027D01*
X4082190Y6273027D02*
G01*
X4087906Y6287145D01*
X4087906Y6287145D02*
G01*
X4091769Y6301878D01*
X4091769Y6301878D02*
G01*
X4093717Y6316984D01*
X4093717Y6316984D02*
G01*
X4093717Y6332215D01*
X4093717Y6332215D02*
G01*
X4091769Y6347321D01*
X4091769Y6347321D02*
G01*
X4087906Y6362054D01*
X4087906Y6362054D02*
G01*
X4082190Y6376172D01*
X4082190Y6376172D02*
G01*
X4074716Y6389443D01*
X4074716Y6389443D02*
G01*
X4066809Y6400037D01*
X4066809Y6400037D02*
G01*
X4391541Y6400037D01*
X4391541Y6400037D02*
G01*
X4387842Y6395692D01*
X4387842Y6395692D02*
G01*
X4379533Y6382927D01*
X4379533Y6382927D02*
G01*
X4372924Y6369204D01*
X4372924Y6369204D02*
G01*
X4368125Y6354749D01*
X4368125Y6354749D02*
G01*
X4365214Y6339799D01*
X4365214Y6339799D02*
G01*
X4364238Y6324600D01*
X4364238Y6324600D02*
G01*
X4365214Y6309400D01*
X4365214Y6309400D02*
G01*
X4368125Y6294450D01*
X4368125Y6294450D02*
G01*
X4372924Y6279995D01*
X4372924Y6279995D02*
G01*
X4379533Y6266272D01*
X4379533Y6266272D02*
G01*
X4387842Y6253507D01*
X4387842Y6253507D02*
G01*
X4397715Y6241909D01*
X4397715Y6241909D02*
G01*
X4408990Y6231670D01*
X4408990Y6231670D02*
G01*
X4421482Y6222956D01*
X4421482Y6222956D02*
G01*
X4434986Y6215911D01*
X4434986Y6215911D02*
G01*
X4449280Y6210651D01*
X4449280Y6210651D02*
G01*
X4464129Y6207261D01*
X4464129Y6207261D02*
G01*
X4479290Y6205799D01*
X4479290Y6205799D02*
G01*
X4494513Y6206287D01*
X4494513Y6206287D02*
G01*
X4509549Y6208718D01*
X4509549Y6208718D02*
G01*
X4524150Y6213051D01*
X4524150Y6213051D02*
G01*
X4538078Y6219217D01*
X4538078Y6219217D02*
G01*
X4551102Y6227112D01*
X4551102Y6227112D02*
G01*
X4563010Y6236609D01*
X4563010Y6236609D02*
G01*
X4573606Y6247550D01*
X4573606Y6247550D02*
G01*
X4582716Y6259756D01*
X4582716Y6259756D02*
G01*
X4590190Y6273027D01*
X4590190Y6273027D02*
G01*
X4595906Y6287145D01*
X4595906Y6287145D02*
G01*
X4599769Y6301878D01*
X4599769Y6301878D02*
G01*
X4601717Y6316984D01*
X4601717Y6316984D02*
G01*
X4601717Y6332215D01*
X4601717Y6332215D02*
G01*
X4599769Y6347321D01*
X4599769Y6347321D02*
G01*
X4595906Y6362054D01*
X4595906Y6362054D02*
G01*
X4590190Y6376172D01*
X4590190Y6376172D02*
G01*
X4582716Y6389443D01*
X4582716Y6389443D02*
G01*
X4574809Y6400037D01*
X4574809Y6400037D02*
G01*
X4645541Y6400037D01*
X4645541Y6400037D02*
G01*
X4641842Y6395692D01*
X4641842Y6395692D02*
G01*
X4633533Y6382927D01*
X4633533Y6382927D02*
G01*
X4626924Y6369204D01*
X4626924Y6369204D02*
G01*
X4622125Y6354749D01*
X4622125Y6354749D02*
G01*
X4619214Y6339799D01*
X4619214Y6339799D02*
G01*
X4618238Y6324600D01*
X4618238Y6324600D02*
G01*
X4619214Y6309400D01*
X4619214Y6309400D02*
G01*
X4622125Y6294450D01*
X4622125Y6294450D02*
G01*
X4626924Y6279995D01*
X4626924Y6279995D02*
G01*
X4633533Y6266272D01*
X4633533Y6266272D02*
G01*
X4641842Y6253507D01*
X4641842Y6253507D02*
G01*
X4651715Y6241909D01*
X4651715Y6241909D02*
G01*
X4662990Y6231670D01*
X4662990Y6231670D02*
G01*
X4675482Y6222956D01*
X4675482Y6222956D02*
G01*
X4688986Y6215911D01*
X4688986Y6215911D02*
G01*
X4703280Y6210651D01*
X4703280Y6210651D02*
G01*
X4718129Y6207261D01*
X4718129Y6207261D02*
G01*
X4733290Y6205799D01*
X4733290Y6205799D02*
G01*
X4748513Y6206287D01*
X4748513Y6206287D02*
G01*
X4763549Y6208718D01*
X4763549Y6208718D02*
G01*
X4778150Y6213051D01*
X4778150Y6213051D02*
G01*
X4792078Y6219217D01*
X4792078Y6219217D02*
G01*
X4805102Y6227112D01*
X4805102Y6227112D02*
G01*
X4817010Y6236609D01*
X4817010Y6236609D02*
G01*
X4827606Y6247550D01*
X4827606Y6247550D02*
G01*
X4836716Y6259756D01*
X4836716Y6259756D02*
G01*
X4844190Y6273027D01*
X4844190Y6273027D02*
G01*
X4849906Y6287145D01*
X4849906Y6287145D02*
G01*
X4853769Y6301878D01*
X4853769Y6301878D02*
G01*
X4855717Y6316984D01*
X4855717Y6316984D02*
G01*
X4855717Y6332215D01*
X4855717Y6332215D02*
G01*
X4853769Y6347321D01*
X4853769Y6347321D02*
G01*
X4849906Y6362054D01*
X4849906Y6362054D02*
G01*
X4844190Y6376172D01*
X4844190Y6376172D02*
G01*
X4836716Y6389443D01*
X4836716Y6389443D02*
G01*
X4828809Y6400037D01*
X4828809Y6400037D02*
G01*
X4899541Y6400037D01*
X4899541Y6400037D02*
G01*
X4895842Y6395692D01*
X4895842Y6395692D02*
G01*
X4887533Y6382927D01*
X4887533Y6382927D02*
G01*
X4880924Y6369204D01*
X4880924Y6369204D02*
G01*
X4876125Y6354749D01*
X4876125Y6354749D02*
G01*
X4873214Y6339799D01*
X4873214Y6339799D02*
G01*
X4872238Y6324600D01*
X4872238Y6324600D02*
G01*
X4873214Y6309400D01*
X4873214Y6309400D02*
G01*
X4876125Y6294450D01*
X4876125Y6294450D02*
G01*
X4880924Y6279995D01*
X4880924Y6279995D02*
G01*
X4887533Y6266272D01*
X4887533Y6266272D02*
G01*
X4895842Y6253507D01*
X4895842Y6253507D02*
G01*
X4905715Y6241909D01*
X4905715Y6241909D02*
G01*
X4916990Y6231670D01*
X4916990Y6231670D02*
G01*
X4929482Y6222956D01*
X4929482Y6222956D02*
G01*
X4942986Y6215911D01*
X4942986Y6215911D02*
G01*
X4957280Y6210651D01*
X4957280Y6210651D02*
G01*
X4972129Y6207261D01*
X4972129Y6207261D02*
G01*
X4987290Y6205799D01*
X4987290Y6205799D02*
G01*
X5002513Y6206287D01*
X5002513Y6206287D02*
G01*
X5017549Y6208718D01*
X5017549Y6208718D02*
G01*
X5032150Y6213051D01*
X5032150Y6213051D02*
G01*
X5046078Y6219217D01*
X5046078Y6219217D02*
G01*
X5059102Y6227112D01*
X5059102Y6227112D02*
G01*
X5071010Y6236609D01*
X5071010Y6236609D02*
G01*
X5081606Y6247550D01*
X5081606Y6247550D02*
G01*
X5090716Y6259756D01*
X5090716Y6259756D02*
G01*
X5098190Y6273027D01*
X5098190Y6273027D02*
G01*
X5103906Y6287145D01*
X5103906Y6287145D02*
G01*
X5107769Y6301878D01*
X5107769Y6301878D02*
G01*
X5109717Y6316984D01*
X5109717Y6316984D02*
G01*
X5109717Y6332215D01*
X5109717Y6332215D02*
G01*
X5107769Y6347321D01*
X5107769Y6347321D02*
G01*
X5103906Y6362054D01*
X5103906Y6362054D02*
G01*
X5098190Y6376172D01*
X5098190Y6376172D02*
G01*
X5090716Y6389443D01*
X5090716Y6389443D02*
G01*
X5082809Y6400037D01*
X5082809Y6400037D02*
G01*
X5153541Y6400037D01*
X5153541Y6400037D02*
G01*
X5149842Y6395692D01*
X5149842Y6395692D02*
G01*
X5141533Y6382927D01*
X5141533Y6382927D02*
G01*
X5134924Y6369204D01*
X5134924Y6369204D02*
G01*
X5130125Y6354749D01*
X5130125Y6354749D02*
G01*
X5127214Y6339799D01*
X5127214Y6339799D02*
G01*
X5126238Y6324600D01*
X5126238Y6324600D02*
G01*
X5127214Y6309400D01*
X5127214Y6309400D02*
G01*
X5130125Y6294450D01*
X5130125Y6294450D02*
G01*
X5134924Y6279995D01*
X5134924Y6279995D02*
G01*
X5141533Y6266272D01*
X5141533Y6266272D02*
G01*
X5149842Y6253507D01*
X5149842Y6253507D02*
G01*
X5159715Y6241909D01*
X5159715Y6241909D02*
G01*
X5170990Y6231670D01*
X5170990Y6231670D02*
G01*
X5183482Y6222956D01*
X5183482Y6222956D02*
G01*
X5196986Y6215911D01*
X5196986Y6215911D02*
G01*
X5211280Y6210651D01*
X5211280Y6210651D02*
G01*
X5226129Y6207261D01*
X5226129Y6207261D02*
G01*
X5241290Y6205799D01*
X5241290Y6205799D02*
G01*
X5256513Y6206287D01*
X5256513Y6206287D02*
G01*
X5271549Y6208718D01*
X5271549Y6208718D02*
G01*
X5286150Y6213051D01*
X5286150Y6213051D02*
G01*
X5300078Y6219217D01*
X5300078Y6219217D02*
G01*
X5313102Y6227112D01*
X5313102Y6227112D02*
G01*
X5325010Y6236609D01*
X5325010Y6236609D02*
G01*
X5335606Y6247550D01*
X5335606Y6247550D02*
G01*
X5344716Y6259756D01*
X5344716Y6259756D02*
G01*
X5352190Y6273027D01*
X5352190Y6273027D02*
G01*
X5357906Y6287145D01*
X5357906Y6287145D02*
G01*
X5361769Y6301878D01*
X5361769Y6301878D02*
G01*
X5363717Y6316984D01*
X5363717Y6316984D02*
G01*
X5363717Y6332215D01*
X5363717Y6332215D02*
G01*
X5361769Y6347321D01*
X5361769Y6347321D02*
G01*
X5357906Y6362054D01*
X5357906Y6362054D02*
G01*
X5352190Y6376172D01*
X5352190Y6376172D02*
G01*
X5344716Y6389443D01*
X5344716Y6389443D02*
G01*
X5336809Y6400037D01*
X5336809Y6400037D02*
G01*
X5407541Y6400037D01*
X5407541Y6400037D02*
G01*
X5403842Y6395692D01*
X5403842Y6395692D02*
G01*
X5395533Y6382927D01*
X5395533Y6382927D02*
G01*
X5388924Y6369204D01*
X5388924Y6369204D02*
G01*
X5384125Y6354749D01*
X5384125Y6354749D02*
G01*
X5381214Y6339799D01*
X5381214Y6339799D02*
G01*
X5380238Y6324600D01*
X5380238Y6324600D02*
G01*
X5381214Y6309400D01*
X5381214Y6309400D02*
G01*
X5384125Y6294450D01*
X5384125Y6294450D02*
G01*
X5388924Y6279995D01*
X5388924Y6279995D02*
G01*
X5395533Y6266272D01*
X5395533Y6266272D02*
G01*
X5403842Y6253507D01*
X5403842Y6253507D02*
G01*
X5413715Y6241909D01*
X5413715Y6241909D02*
G01*
X5424990Y6231670D01*
X5424990Y6231670D02*
G01*
X5437482Y6222956D01*
X5437482Y6222956D02*
G01*
X5450986Y6215911D01*
X5450986Y6215911D02*
G01*
X5465280Y6210651D01*
X5465280Y6210651D02*
G01*
X5480129Y6207261D01*
X5480129Y6207261D02*
G01*
X5495290Y6205799D01*
X5495290Y6205799D02*
G01*
X5510513Y6206287D01*
X5510513Y6206287D02*
G01*
X5525549Y6208718D01*
X5525549Y6208718D02*
G01*
X5540150Y6213051D01*
X5540150Y6213051D02*
G01*
X5554078Y6219217D01*
X5554078Y6219217D02*
G01*
X5567102Y6227112D01*
X5567102Y6227112D02*
G01*
X5579010Y6236609D01*
X5579010Y6236609D02*
G01*
X5589606Y6247550D01*
X5589606Y6247550D02*
G01*
X5598716Y6259756D01*
X5598716Y6259756D02*
G01*
X5606190Y6273027D01*
X5606190Y6273027D02*
G01*
X5611906Y6287145D01*
X5611906Y6287145D02*
G01*
X5615769Y6301878D01*
X5615769Y6301878D02*
G01*
X5617717Y6316984D01*
X5617717Y6316984D02*
G01*
X5617717Y6332215D01*
X5617717Y6332215D02*
G01*
X5615769Y6347321D01*
X5615769Y6347321D02*
G01*
X5611906Y6362054D01*
X5611906Y6362054D02*
G01*
X5606190Y6376172D01*
X5606190Y6376172D02*
G01*
X5598716Y6389443D01*
X5598716Y6389443D02*
G01*
X5590809Y6400037D01*
X5590809Y6400037D02*
G01*
X5661541Y6400037D01*
X5661541Y6400037D02*
G01*
X5657842Y6395692D01*
X5657842Y6395692D02*
G01*
X5649533Y6382927D01*
X5649533Y6382927D02*
G01*
X5642924Y6369204D01*
X5642924Y6369204D02*
G01*
X5638125Y6354749D01*
X5638125Y6354749D02*
G01*
X5635214Y6339799D01*
X5635214Y6339799D02*
G01*
X5634238Y6324600D01*
X5634238Y6324600D02*
G01*
X5635214Y6309400D01*
X5635214Y6309400D02*
G01*
X5638125Y6294450D01*
X5638125Y6294450D02*
G01*
X5642924Y6279995D01*
X5642924Y6279995D02*
G01*
X5649533Y6266272D01*
X5649533Y6266272D02*
G01*
X5657842Y6253507D01*
X5657842Y6253507D02*
G01*
X5667715Y6241909D01*
X5667715Y6241909D02*
G01*
X5678990Y6231670D01*
X5678990Y6231670D02*
G01*
X5691482Y6222956D01*
X5691482Y6222956D02*
G01*
X5704986Y6215911D01*
X5704986Y6215911D02*
G01*
X5719280Y6210651D01*
X5719280Y6210651D02*
G01*
X5734129Y6207261D01*
X5734129Y6207261D02*
G01*
X5749290Y6205799D01*
X5749290Y6205799D02*
G01*
X5764513Y6206287D01*
X5764513Y6206287D02*
G01*
X5779549Y6208718D01*
X5779549Y6208718D02*
G01*
X5794150Y6213051D01*
X5794150Y6213051D02*
G01*
X5808078Y6219217D01*
X5808078Y6219217D02*
G01*
X5821102Y6227112D01*
X5821102Y6227112D02*
G01*
X5833010Y6236609D01*
X5833010Y6236609D02*
G01*
X5843606Y6247550D01*
X5843606Y6247550D02*
G01*
X5852716Y6259756D01*
X5852716Y6259756D02*
G01*
X5860190Y6273027D01*
X5860190Y6273027D02*
G01*
X5865906Y6287145D01*
X5865906Y6287145D02*
G01*
X5869769Y6301878D01*
X5869769Y6301878D02*
G01*
X5871717Y6316984D01*
X5871717Y6316984D02*
G01*
X5871717Y6332215D01*
X5871717Y6332215D02*
G01*
X5869769Y6347321D01*
X5869769Y6347321D02*
G01*
X5865906Y6362054D01*
X5865906Y6362054D02*
G01*
X5860190Y6376172D01*
X5860190Y6376172D02*
G01*
X5852716Y6389443D01*
X5852716Y6389443D02*
G01*
X5844809Y6400037D01*
X5844809Y6400037D02*
G01*
X5915541Y6400037D01*
X5915541Y6400037D02*
G01*
X5911842Y6395692D01*
X5911842Y6395692D02*
G01*
X5903533Y6382927D01*
X5903533Y6382927D02*
G01*
X5896924Y6369204D01*
X5896924Y6369204D02*
G01*
X5892125Y6354749D01*
X5892125Y6354749D02*
G01*
X5889214Y6339799D01*
X5889214Y6339799D02*
G01*
X5888238Y6324600D01*
X5888238Y6324600D02*
G01*
X5889214Y6309400D01*
X5889214Y6309400D02*
G01*
X5892125Y6294450D01*
X5892125Y6294450D02*
G01*
X5896924Y6279995D01*
X5896924Y6279995D02*
G01*
X5903533Y6266272D01*
X5903533Y6266272D02*
G01*
X5911842Y6253507D01*
X5911842Y6253507D02*
G01*
X5921715Y6241909D01*
X5921715Y6241909D02*
G01*
X5932990Y6231670D01*
X5932990Y6231670D02*
G01*
X5945482Y6222956D01*
X5945482Y6222956D02*
G01*
X5958986Y6215911D01*
X5958986Y6215911D02*
G01*
X5973280Y6210651D01*
X5973280Y6210651D02*
G01*
X5988129Y6207261D01*
X5988129Y6207261D02*
G01*
X6003290Y6205799D01*
X6003290Y6205799D02*
G01*
X6018513Y6206287D01*
X6018513Y6206287D02*
G01*
X6033549Y6208718D01*
X6033549Y6208718D02*
G01*
X6048150Y6213051D01*
X6048150Y6213051D02*
G01*
X6062078Y6219217D01*
X6062078Y6219217D02*
G01*
X6075102Y6227112D01*
X6075102Y6227112D02*
G01*
X6087010Y6236609D01*
X6087010Y6236609D02*
G01*
X6097606Y6247550D01*
X6097606Y6247550D02*
G01*
X6106716Y6259756D01*
X6106716Y6259756D02*
G01*
X6114190Y6273027D01*
X6114190Y6273027D02*
G01*
X6119906Y6287145D01*
X6119906Y6287145D02*
G01*
X6123769Y6301878D01*
X6123769Y6301878D02*
G01*
X6125717Y6316984D01*
X6125717Y6316984D02*
G01*
X6125717Y6332215D01*
X6125717Y6332215D02*
G01*
X6123769Y6347321D01*
X6123769Y6347321D02*
G01*
X6119906Y6362054D01*
X6119906Y6362054D02*
G01*
X6114190Y6376172D01*
X6114190Y6376172D02*
G01*
X6106716Y6389443D01*
X6106716Y6389443D02*
G01*
X6098809Y6400037D01*
X6098809Y6400037D02*
G01*
X6169541Y6400037D01*
X6169541Y6400037D02*
G01*
X6165842Y6395692D01*
X6165842Y6395692D02*
G01*
X6157533Y6382927D01*
X6157533Y6382927D02*
G01*
X6150924Y6369204D01*
X6150924Y6369204D02*
G01*
X6146125Y6354749D01*
X6146125Y6354749D02*
G01*
X6143214Y6339799D01*
X6143214Y6339799D02*
G01*
X6142238Y6324600D01*
X6142238Y6324600D02*
G01*
X6143214Y6309400D01*
X6143214Y6309400D02*
G01*
X6146125Y6294450D01*
X6146125Y6294450D02*
G01*
X6150924Y6279995D01*
X6150924Y6279995D02*
G01*
X6157533Y6266272D01*
X6157533Y6266272D02*
G01*
X6165842Y6253507D01*
X6165842Y6253507D02*
G01*
X6175715Y6241909D01*
X6175715Y6241909D02*
G01*
X6186990Y6231670D01*
X6186990Y6231670D02*
G01*
X6199482Y6222956D01*
X6199482Y6222956D02*
G01*
X6212986Y6215911D01*
X6212986Y6215911D02*
G01*
X6227280Y6210651D01*
X6227280Y6210651D02*
G01*
X6242129Y6207261D01*
X6242129Y6207261D02*
G01*
X6257290Y6205799D01*
X6257290Y6205799D02*
G01*
X6272513Y6206287D01*
X6272513Y6206287D02*
G01*
X6287549Y6208718D01*
X6287549Y6208718D02*
G01*
X6302150Y6213051D01*
X6302150Y6213051D02*
G01*
X6316078Y6219217D01*
X6316078Y6219217D02*
G01*
X6329102Y6227112D01*
X6329102Y6227112D02*
G01*
X6341010Y6236609D01*
X6341010Y6236609D02*
G01*
X6351606Y6247550D01*
X6351606Y6247550D02*
G01*
X6360716Y6259756D01*
X6360716Y6259756D02*
G01*
X6368190Y6273027D01*
X6368190Y6273027D02*
G01*
X6373906Y6287145D01*
X6373906Y6287145D02*
G01*
X6377769Y6301878D01*
X6377769Y6301878D02*
G01*
X6379717Y6316984D01*
X6379717Y6316984D02*
G01*
X6379717Y6332215D01*
X6379717Y6332215D02*
G01*
X6377769Y6347321D01*
X6377769Y6347321D02*
G01*
X6373906Y6362054D01*
X6373906Y6362054D02*
G01*
X6368190Y6376172D01*
X6368190Y6376172D02*
G01*
X6360716Y6389443D01*
X6360716Y6389443D02*
G01*
X6352809Y6400037D01*
X6352809Y6400037D02*
G01*
X6423541Y6400037D01*
X6423541Y6400037D02*
G01*
X6419842Y6395692D01*
X6419842Y6395692D02*
G01*
X6411533Y6382927D01*
X6411533Y6382927D02*
G01*
X6404924Y6369204D01*
X6404924Y6369204D02*
G01*
X6400125Y6354749D01*
X6400125Y6354749D02*
G01*
X6397214Y6339799D01*
X6397214Y6339799D02*
G01*
X6396238Y6324600D01*
X6396238Y6324600D02*
G01*
X6397214Y6309400D01*
X6397214Y6309400D02*
G01*
X6400125Y6294450D01*
X6400125Y6294450D02*
G01*
X6404924Y6279995D01*
X6404924Y6279995D02*
G01*
X6411533Y6266272D01*
X6411533Y6266272D02*
G01*
X6419842Y6253507D01*
X6419842Y6253507D02*
G01*
X6429715Y6241909D01*
X6429715Y6241909D02*
G01*
X6440990Y6231670D01*
X6440990Y6231670D02*
G01*
X6453482Y6222956D01*
X6453482Y6222956D02*
G01*
X6466986Y6215911D01*
X6466986Y6215911D02*
G01*
X6481280Y6210651D01*
X6481280Y6210651D02*
G01*
X6496129Y6207261D01*
X6496129Y6207261D02*
G01*
X6511290Y6205799D01*
X6511290Y6205799D02*
G01*
X6526513Y6206287D01*
X6526513Y6206287D02*
G01*
X6541549Y6208718D01*
X6541549Y6208718D02*
G01*
X6556150Y6213051D01*
X6556150Y6213051D02*
G01*
X6570078Y6219217D01*
X6570078Y6219217D02*
G01*
X6583102Y6227112D01*
X6583102Y6227112D02*
G01*
X6595010Y6236609D01*
X6595010Y6236609D02*
G01*
X6605606Y6247550D01*
X6605606Y6247550D02*
G01*
X6614716Y6259756D01*
X6614716Y6259756D02*
G01*
X6622190Y6273027D01*
X6622190Y6273027D02*
G01*
X6627906Y6287145D01*
X6627906Y6287145D02*
G01*
X6631769Y6301878D01*
X6631769Y6301878D02*
G01*
X6633717Y6316984D01*
X6633717Y6316984D02*
G01*
X6633717Y6332215D01*
X6633717Y6332215D02*
G01*
X6631769Y6347321D01*
X6631769Y6347321D02*
G01*
X6627906Y6362054D01*
X6627906Y6362054D02*
G01*
X6622190Y6376172D01*
X6622190Y6376172D02*
G01*
X6614716Y6389443D01*
X6614716Y6389443D02*
G01*
X6606809Y6400037D01*
X6606809Y6400037D02*
G01*
X6677541Y6400037D01*
X6677541Y6400037D02*
G01*
X6673842Y6395692D01*
X6673842Y6395692D02*
G01*
X6665533Y6382927D01*
X6665533Y6382927D02*
G01*
X6658924Y6369204D01*
X6658924Y6369204D02*
G01*
X6654125Y6354749D01*
X6654125Y6354749D02*
G01*
X6651214Y6339799D01*
X6651214Y6339799D02*
G01*
X6650238Y6324600D01*
X6650238Y6324600D02*
G01*
X6651214Y6309400D01*
X6651214Y6309400D02*
G01*
X6654125Y6294450D01*
X6654125Y6294450D02*
G01*
X6658924Y6279995D01*
X6658924Y6279995D02*
G01*
X6665533Y6266272D01*
X6665533Y6266272D02*
G01*
X6673842Y6253507D01*
X6673842Y6253507D02*
G01*
X6683715Y6241909D01*
X6683715Y6241909D02*
G01*
X6694990Y6231670D01*
X6694990Y6231670D02*
G01*
X6707482Y6222956D01*
X6707482Y6222956D02*
G01*
X6720986Y6215911D01*
X6720986Y6215911D02*
G01*
X6735280Y6210651D01*
X6735280Y6210651D02*
G01*
X6750129Y6207261D01*
X6750129Y6207261D02*
G01*
X6765290Y6205799D01*
X6765290Y6205799D02*
G01*
X6780513Y6206287D01*
X6780513Y6206287D02*
G01*
X6795549Y6208718D01*
X6795549Y6208718D02*
G01*
X6810150Y6213051D01*
X6810150Y6213051D02*
G01*
X6824078Y6219217D01*
X6824078Y6219217D02*
G01*
X6837102Y6227112D01*
X6837102Y6227112D02*
G01*
X6849010Y6236609D01*
X6849010Y6236609D02*
G01*
X6859606Y6247550D01*
X6859606Y6247550D02*
G01*
X6868716Y6259756D01*
X6868716Y6259756D02*
G01*
X6876190Y6273027D01*
X6876190Y6273027D02*
G01*
X6881906Y6287145D01*
X6881906Y6287145D02*
G01*
X6885769Y6301878D01*
X6885769Y6301878D02*
G01*
X6887717Y6316984D01*
X6887717Y6316984D02*
G01*
X6887717Y6332215D01*
X6887717Y6332215D02*
G01*
X6885769Y6347321D01*
X6885769Y6347321D02*
G01*
X6881906Y6362054D01*
X6881906Y6362054D02*
G01*
X6876190Y6376172D01*
X6876190Y6376172D02*
G01*
X6868716Y6389443D01*
X6868716Y6389443D02*
G01*
X6860809Y6400037D01*
X6860809Y6400037D02*
G01*
X6931541Y6400037D01*
X6931541Y6400037D02*
G01*
X6927842Y6395692D01*
X6927842Y6395692D02*
G01*
X6919533Y6382927D01*
X6919533Y6382927D02*
G01*
X6912924Y6369204D01*
X6912924Y6369204D02*
G01*
X6908125Y6354749D01*
X6908125Y6354749D02*
G01*
X6905214Y6339799D01*
X6905214Y6339799D02*
G01*
X6904238Y6324600D01*
X6904238Y6324600D02*
G01*
X6905214Y6309400D01*
X6905214Y6309400D02*
G01*
X6908125Y6294450D01*
X6908125Y6294450D02*
G01*
X6912924Y6279995D01*
X6912924Y6279995D02*
G01*
X6919533Y6266272D01*
X6919533Y6266272D02*
G01*
X6927842Y6253507D01*
X6927842Y6253507D02*
G01*
X6937715Y6241909D01*
X6937715Y6241909D02*
G01*
X6948990Y6231670D01*
X6948990Y6231670D02*
G01*
X6961482Y6222956D01*
X6961482Y6222956D02*
G01*
X6974986Y6215911D01*
X6974986Y6215911D02*
G01*
X6989280Y6210651D01*
X6989280Y6210651D02*
G01*
X7004129Y6207261D01*
X7004129Y6207261D02*
G01*
X7019290Y6205799D01*
X7019290Y6205799D02*
G01*
X7034513Y6206287D01*
X7034513Y6206287D02*
G01*
X7049549Y6208718D01*
X7049549Y6208718D02*
G01*
X7064150Y6213051D01*
X7064150Y6213051D02*
G01*
X7078078Y6219217D01*
X7078078Y6219217D02*
G01*
X7091102Y6227112D01*
X7091102Y6227112D02*
G01*
X7103010Y6236609D01*
X7103010Y6236609D02*
G01*
X7113606Y6247550D01*
X7113606Y6247550D02*
G01*
X7122716Y6259756D01*
X7122716Y6259756D02*
G01*
X7130190Y6273027D01*
X7130190Y6273027D02*
G01*
X7135906Y6287145D01*
X7135906Y6287145D02*
G01*
X7139769Y6301878D01*
X7139769Y6301878D02*
G01*
X7141717Y6316984D01*
X7141717Y6316984D02*
G01*
X7141717Y6332215D01*
X7141717Y6332215D02*
G01*
X7139769Y6347321D01*
X7139769Y6347321D02*
G01*
X7135906Y6362054D01*
X7135906Y6362054D02*
G01*
X7130190Y6376172D01*
X7130190Y6376172D02*
G01*
X7122716Y6389443D01*
X7122716Y6389443D02*
G01*
X7114809Y6400037D01*
X7114809Y6400037D02*
G01*
X7185541Y6400037D01*
X7185541Y6400037D02*
G01*
X7181842Y6395692D01*
X7181842Y6395692D02*
G01*
X7173533Y6382927D01*
X7173533Y6382927D02*
G01*
X7166924Y6369204D01*
X7166924Y6369204D02*
G01*
X7162125Y6354749D01*
X7162125Y6354749D02*
G01*
X7159214Y6339799D01*
X7159214Y6339799D02*
G01*
X7158238Y6324600D01*
X7158238Y6324600D02*
G01*
X7159214Y6309400D01*
X7159214Y6309400D02*
G01*
X7162125Y6294450D01*
X7162125Y6294450D02*
G01*
X7166924Y6279995D01*
X7166924Y6279995D02*
G01*
X7173533Y6266272D01*
X7173533Y6266272D02*
G01*
X7181842Y6253507D01*
X7181842Y6253507D02*
G01*
X7191715Y6241909D01*
X7191715Y6241909D02*
G01*
X7202990Y6231670D01*
X7202990Y6231670D02*
G01*
X7215482Y6222956D01*
X7215482Y6222956D02*
G01*
X7228986Y6215911D01*
X7228986Y6215911D02*
G01*
X7243280Y6210651D01*
X7243280Y6210651D02*
G01*
X7247824Y6209613D01*
X7247824Y6209613D02*
G01*
X7201833Y6163622D01*
X7201833Y6163622D02*
G01*
X5038846Y6163622D01*
X5038846Y6163622D02*
G01*
X5029207Y6162609D01*
X5029207Y6162609D02*
G01*
X5019989Y6159614D01*
X5019989Y6159614D02*
G01*
X5011595Y6154767D01*
X5011595Y6154767D02*
G01*
X5006063Y6150043D01*
X5006063Y6150043D02*
G01*
X4807435Y5951414D01*
X4807435Y5951414D02*
G01*
X4807435Y6075730D01*
X4807435Y6075730D02*
G01*
X4806421Y6085370D01*
X4806421Y6085370D02*
G01*
X4803426Y6094588D01*
X4803426Y6094588D02*
G01*
X4798580Y6102981D01*
X4798580Y6102981D02*
G01*
X4793855Y6108514D01*
X4793855Y6108514D02*
G01*
X4718316Y6184053D01*
X4718316Y6184053D02*
G01*
X4710783Y6190153D01*
X4710783Y6190153D02*
G01*
X4702147Y6194553D01*
X4702147Y6194553D02*
G01*
X4692785Y6197062D01*
X4692785Y6197062D02*
G01*
X4685532Y6197633D01*
X4685532Y6197633D02*
G01*
X4560539Y6197633D01*
X4560539Y6197633D02*
G01*
X4550900Y6196619D01*
X4550900Y6196619D02*
G01*
X4541682Y6193624D01*
X4541682Y6193624D02*
G01*
X4533288Y6188778D01*
X4533288Y6188778D02*
G01*
X4527756Y6184053D01*
X4527756Y6184053D02*
G01*
X4437360Y6093658D01*
X4437360Y6093658D02*
G01*
X4432428Y6093972D01*
X4432428Y6093972D02*
G01*
X4420729Y6092726D01*
X4420729Y6092726D02*
G01*
X4413201Y6090594D01*
X4413201Y6090594D02*
G01*
X4413201Y6106992D01*
X4413201Y6106992D02*
G01*
X4415890Y6109259D01*
X4415890Y6109259D02*
G01*
X4423474Y6118253D01*
X4423474Y6118253D02*
G01*
X4429428Y6128400D01*
X4429428Y6128400D02*
G01*
X4433582Y6139407D01*
X4433582Y6139407D02*
G01*
X4435816Y6150958D01*
X4435816Y6150958D02*
G01*
X4436065Y6162720D01*
X4436065Y6162720D02*
G01*
X4434324Y6174355D01*
X4434324Y6174355D02*
G01*
X4430641Y6185528D01*
X4430641Y6185528D02*
G01*
X4425122Y6195918D01*
X4425122Y6195918D02*
G01*
X4417928Y6205226D01*
X4417928Y6205226D02*
G01*
X4409263Y6213185D01*
X4409263Y6213185D02*
G01*
X4399379Y6219564D01*
X4399379Y6219564D02*
G01*
X4388558Y6224182D01*
X4388558Y6224182D02*
G01*
X4377112Y6226904D01*
X4377112Y6226904D02*
G01*
X4365372Y6227652D01*
X4365372Y6227652D02*
G01*
X4353673Y6226406D01*
X4353673Y6226406D02*
G01*
X4342354Y6223201D01*
X4342354Y6223201D02*
G01*
X4331738Y6218128D01*
X4331738Y6218128D02*
G01*
X4322133Y6211335D01*
X4322133Y6211335D02*
G01*
X4313814Y6203016D01*
X4313814Y6203016D02*
G01*
X4307021Y6193411D01*
X4307021Y6193411D02*
G01*
X4301949Y6182796D01*
X4301949Y6182796D02*
G01*
X4298743Y6171476D01*
X4298743Y6171476D02*
G01*
X4297497Y6159778D01*
X4297497Y6159778D02*
G01*
X4298246Y6148037D01*
X4298246Y6148037D02*
G01*
X4300968Y6136592D01*
X4300968Y6136592D02*
G01*
X4305585Y6125771D01*
X4305585Y6125771D02*
G01*
X4311965Y6115886D01*
X4311965Y6115886D02*
G01*
X4319923Y6107222D01*
X4319923Y6107222D02*
G01*
X4320476Y6106794D01*
X4320476Y6106794D02*
G01*
X4320476Y5331129D01*
X4320476Y5331129D02*
G01*
X4321489Y5321490D01*
X4321489Y5321490D02*
G01*
X4324484Y5312272D01*
X4324484Y5312272D02*
G01*
X4329330Y5303878D01*
X4329330Y5303878D02*
G01*
X4334055Y5298346D01*
X4334055Y5298346D02*
G01*
X4361070Y5271332D01*
X4361070Y5271332D02*
G01*
X4351396Y5268592D01*
X4351396Y5268592D02*
G01*
X4340781Y5263520D01*
X4340781Y5263520D02*
G01*
X4331176Y5256727D01*
X4331176Y5256727D02*
G01*
X4324509Y5250060D01*
X4324509Y5250060D02*
G01*
X4162599Y5250060D01*
X4162599Y5250060D02*
G01*
X3908136Y5504523D01*
X3908136Y5504523D02*
G01*
X3908304Y5512429D01*
X3908304Y5512429D02*
G01*
X3906562Y5524064D01*
X3906562Y5524064D02*
G01*
X3902880Y5535237D01*
X3902880Y5535237D02*
G01*
X3897361Y5545627D01*
X3897361Y5545627D02*
G01*
X3890166Y5554936D01*
X3890166Y5554936D02*
G01*
X3881502Y5562894D01*
X3881502Y5562894D02*
G01*
X3871617Y5569274D01*
X3871617Y5569274D02*
G01*
X3860796Y5573891D01*
X3860796Y5573891D02*
G01*
X3849351Y5576613D01*
X3849351Y5576613D02*
G01*
X3837610Y5577361D01*
X3837610Y5577361D02*
G01*
X3825912Y5576115D01*
X3825912Y5576115D02*
G01*
X3814592Y5572910D01*
X3814592Y5572910D02*
G01*
X3803977Y5567837D01*
X3803977Y5567837D02*
G01*
X3794372Y5561044D01*
X3794372Y5561044D02*
G01*
X3786053Y5552725D01*
X3786053Y5552725D02*
G01*
X3779260Y5543120D01*
X3779260Y5543120D02*
G01*
X3774188Y5532505D01*
X3774188Y5532505D02*
G01*
X3770982Y5521186D01*
X3770982Y5521186D02*
G01*
X3769736Y5509487D01*
X3769736Y5509487D02*
G01*
X3770484Y5497746D01*
X3770484Y5497746D02*
G01*
X3773207Y5486301D01*
X3773207Y5486301D02*
G01*
X3777824Y5475480D01*
X3777824Y5475480D02*
G01*
X3784204Y5465595D01*
X3784204Y5465595D02*
G01*
X3792162Y5456931D01*
X3792162Y5456931D02*
G01*
X3801470Y5449736D01*
X3801470Y5449736D02*
G01*
X3811860Y5444218D01*
X3811860Y5444218D02*
G01*
X3823034Y5440535D01*
X3823034Y5440535D02*
G01*
X3834668Y5438793D01*
X3834668Y5438793D02*
G01*
X3842565Y5438961D01*
X3842565Y5438961D02*
G01*
X4110612Y5170914D01*
X4110612Y5170914D02*
G01*
X4118144Y5164814D01*
X4118144Y5164814D02*
G01*
X4126780Y5160414D01*
X4126780Y5160414D02*
G01*
X4136142Y5157906D01*
X4136142Y5157906D02*
G01*
X4143395Y5157335D01*
X4143395Y5157335D02*
G01*
X4324629Y5157335D01*
X4324629Y5157335D02*
G01*
X4328965Y5152614D01*
X4328965Y5152614D02*
G01*
X4338274Y5145419D01*
X4338274Y5145419D02*
G01*
X4348664Y5139900D01*
X4348664Y5139900D02*
G01*
X4359837Y5136218D01*
X4359837Y5136218D02*
G01*
X4371472Y5134476D01*
X4371472Y5134476D02*
G01*
X4383234Y5134726D01*
X4383234Y5134726D02*
G01*
X4394785Y5136960D01*
X4394785Y5136960D02*
G01*
X4405792Y5141113D01*
X4405792Y5141113D02*
G01*
X4415938Y5147067D01*
X4415938Y5147067D02*
G01*
X4419047Y5149689D01*
X4419047Y5149689D02*
G01*
X4422091Y5144417D01*
X4422091Y5144417D02*
G01*
X4426816Y5138885D01*
X4426816Y5138885D02*
G01*
X4686989Y4878712D01*
X4686989Y4878712D02*
G01*
X4658359Y4878712D01*
X4658359Y4878712D02*
G01*
X4648720Y4877699D01*
X4648720Y4877699D02*
G01*
X4639502Y4874704D01*
X4639502Y4874704D02*
G01*
X4631108Y4869858D01*
X4631108Y4869858D02*
G01*
X4625576Y4865133D01*
X4625576Y4865133D02*
G01*
X4607125Y4846682D01*
X4607125Y4846682D02*
G01*
X4604878Y4850912D01*
X4604878Y4850912D02*
G01*
X4597683Y4860220D01*
X4597683Y4860220D02*
G01*
X4589019Y4868178D01*
X4589019Y4868178D02*
G01*
X4579134Y4874558D01*
X4579134Y4874558D02*
G01*
X4568313Y4879175D01*
X4568313Y4879175D02*
G01*
X4556868Y4881898D01*
X4556868Y4881898D02*
G01*
X4545127Y4882646D01*
X4545127Y4882646D02*
G01*
X4533429Y4881400D01*
X4533429Y4881400D02*
G01*
X4522109Y4878194D01*
X4522109Y4878194D02*
G01*
X4511494Y4873122D01*
X4511494Y4873122D02*
G01*
X4501889Y4866329D01*
X4501889Y4866329D02*
G01*
X4493570Y4858010D01*
X4493570Y4858010D02*
G01*
X4486777Y4848405D01*
X4486777Y4848405D02*
G01*
X4481705Y4837790D01*
X4481705Y4837790D02*
G01*
X4478499Y4826470D01*
X4478499Y4826470D02*
G01*
X4477351Y4815695D01*
X4477351Y4815695D02*
G01*
X3678562Y4815695D01*
X3801193Y4927331D02*
G01*
X3810498Y4920138D01*
X3810498Y4920138D02*
G01*
X3820885Y4914621D01*
X3820885Y4914621D02*
G01*
X3832055Y4910939D01*
X3832055Y4910939D02*
G01*
X3843687Y4909198D01*
X3843687Y4909198D02*
G01*
X3855445Y4909448D01*
X3855445Y4909448D02*
G01*
X3866993Y4911681D01*
X3866993Y4911681D02*
G01*
X3877996Y4915833D01*
X3877996Y4915833D02*
G01*
X3888140Y4921786D01*
X3888140Y4921786D02*
G01*
X3897132Y4929367D01*
X3897132Y4929367D02*
G01*
X3904713Y4938359D01*
X3904713Y4938359D02*
G01*
X3910666Y4948503D01*
X3910666Y4948503D02*
G01*
X3914818Y4959506D01*
X3914818Y4959506D02*
G01*
X3917051Y4971054D01*
X3917051Y4971054D02*
G01*
X3917301Y4982812D01*
X3917301Y4982812D02*
G01*
X3915560Y4994444D01*
X3915560Y4994444D02*
G01*
X3911878Y5005614D01*
X3911878Y5005614D02*
G01*
X3906361Y5016001D01*
X3906361Y5016001D02*
G01*
X3899168Y5025306D01*
X3899168Y5025306D02*
G01*
X3890507Y5033262D01*
X3890507Y5033262D02*
G01*
X3880625Y5039640D01*
X3880625Y5039640D02*
G01*
X3869807Y5044256D01*
X3869807Y5044256D02*
G01*
X3869062Y5044433D01*
X3869062Y5044433D02*
G01*
X3869062Y5181116D01*
X3869062Y5181116D02*
G01*
X3871732Y5183367D01*
X3871732Y5183367D02*
G01*
X3879313Y5192359D01*
X3879313Y5192359D02*
G01*
X3885266Y5202503D01*
X3885266Y5202503D02*
G01*
X3889418Y5213506D01*
X3889418Y5213506D02*
G01*
X3891651Y5225054D01*
X3891651Y5225054D02*
G01*
X3891901Y5236812D01*
X3891901Y5236812D02*
G01*
X3890160Y5248444D01*
X3890160Y5248444D02*
G01*
X3886478Y5259614D01*
X3886478Y5259614D02*
G01*
X3880961Y5270001D01*
X3880961Y5270001D02*
G01*
X3873768Y5279306D01*
X3873768Y5279306D02*
G01*
X3865107Y5287262D01*
X3865107Y5287262D02*
G01*
X3855225Y5293640D01*
X3855225Y5293640D02*
G01*
X3844407Y5298256D01*
X3844407Y5298256D02*
G01*
X3832965Y5300977D01*
X3832965Y5300977D02*
G01*
X3821228Y5301726D01*
X3821228Y5301726D02*
G01*
X3809533Y5300480D01*
X3809533Y5300480D02*
G01*
X3798216Y5297275D01*
X3798216Y5297275D02*
G01*
X3787605Y5292205D01*
X3787605Y5292205D02*
G01*
X3778002Y5285413D01*
X3778002Y5285413D02*
G01*
X3769686Y5277097D01*
X3769686Y5277097D02*
G01*
X3762894Y5267494D01*
X3762894Y5267494D02*
G01*
X3757824Y5256883D01*
X3757824Y5256883D02*
G01*
X3754619Y5245566D01*
X3754619Y5245566D02*
G01*
X3753373Y5233871D01*
X3753373Y5233871D02*
G01*
X3754122Y5222134D01*
X3754122Y5222134D02*
G01*
X3756843Y5210692D01*
X3756843Y5210692D02*
G01*
X3761459Y5199874D01*
X3761459Y5199874D02*
G01*
X3767837Y5189992D01*
X3767837Y5189992D02*
G01*
X3775793Y5181331D01*
X3775793Y5181331D02*
G01*
X3776337Y5180910D01*
X3776337Y5180910D02*
G01*
X3776337Y5003800D01*
X3776337Y5003800D02*
G01*
X3777350Y4994160D01*
X3777350Y4994160D02*
G01*
X3779416Y4987185D01*
X3779416Y4987185D02*
G01*
X3778773Y4979871D01*
X3778773Y4979871D02*
G01*
X3779522Y4968134D01*
X3779522Y4968134D02*
G01*
X3782243Y4956692D01*
X3782243Y4956692D02*
G01*
X3786859Y4945874D01*
X3786859Y4945874D02*
G01*
X3793237Y4935992D01*
X3793237Y4935992D02*
G01*
X3801193Y4927331D01*
X3678562Y4864051D02*
G01*
X3726918Y4815695D01*
X3678562Y4935893D02*
G01*
X3798760Y4815695D01*
X3678562Y5007735D02*
G01*
X3870602Y4815695D01*
X3678562Y5079577D02*
G01*
X3778808Y4979331D01*
X3848832Y4909307D02*
G01*
X3942444Y4815695D01*
X3678562Y5151419D02*
G01*
X3776337Y5053644D01*
X3898724Y4931256D02*
G01*
X4014286Y4815695D01*
X3678562Y5223261D02*
G01*
X3776337Y5125486D01*
X3917000Y4984823D02*
G01*
X4086128Y4815695D01*
X3678562Y5295103D02*
G01*
X3754930Y5218735D01*
X3869062Y5104603D02*
G01*
X4157970Y4815695D01*
X3678562Y5366945D02*
G01*
X3769157Y5276350D01*
X3869062Y5176445D02*
G01*
X4229812Y4815695D01*
X3678562Y5438787D02*
G01*
X3816163Y5301186D01*
X3891665Y5225685D02*
G01*
X4301654Y4815695D01*
X3678562Y5510629D02*
G01*
X4373496Y4815695D01*
X3678562Y5582471D02*
G01*
X3772731Y5488303D01*
X3819252Y5441781D02*
G01*
X4445339Y4815695D01*
X3678562Y5654313D02*
G01*
X3783608Y5549268D01*
X4175540Y5157335D02*
G01*
X4486031Y4846844D01*
X3678562Y5726155D02*
G01*
X3828343Y5576374D01*
X4247382Y5157335D02*
G01*
X4525549Y4879169D01*
X3678562Y5797997D02*
G01*
X4226499Y5250060D01*
X4319225Y5157335D02*
G01*
X4618501Y4858058D01*
X3678562Y5869839D02*
G01*
X4298341Y5250060D01*
X4406735Y5141667D02*
G01*
X4669689Y4878712D01*
X3327400Y6292843D02*
G01*
X4351595Y5268649D01*
X3323100Y6368986D02*
G01*
X3349714Y6342371D01*
X3484785Y6207301D02*
G01*
X4320476Y5371610D01*
X3363890Y6400037D02*
G01*
X3370420Y6393507D01*
X3536055Y6227872D02*
G01*
X4320476Y5443452D01*
X3570066Y6265704D02*
G01*
X4320476Y5515294D01*
X3585717Y6321895D02*
G01*
X3604423Y6303189D01*
X3699824Y6207787D02*
G01*
X4320476Y5587136D01*
X3579416Y6400037D02*
G01*
X3610756Y6368697D01*
X3765098Y6214356D02*
G01*
X4320476Y5658978D01*
X3807739Y6243557D02*
G01*
X4320476Y5730820D01*
X3834340Y6288798D02*
G01*
X4320476Y5802662D01*
X3834254Y6360726D02*
G01*
X3857091Y6337889D01*
X3988390Y6206590D02*
G01*
X4320476Y5874504D01*
X3866785Y6400037D02*
G01*
X3876407Y6390415D01*
X4040990Y6225832D02*
G01*
X4320476Y5946346D01*
X4076226Y6262438D02*
G01*
X4320476Y6018188D01*
X4093695Y6316811D02*
G01*
X4320476Y6090030D01*
X4082311Y6400037D02*
G01*
X4301420Y6180928D01*
X4154153Y6400037D02*
G01*
X4334664Y6219526D01*
X4428083Y6126108D02*
G01*
X4448946Y6105244D01*
X4225995Y6400037D02*
G01*
X4484867Y6141165D01*
X4297837Y6400037D02*
G01*
X4364783Y6333091D01*
X4491678Y6206196D02*
G01*
X4520788Y6177086D01*
X4369679Y6400037D02*
G01*
X4382394Y6387322D01*
X4545811Y6223905D02*
G01*
X4572084Y6197633D01*
X4807435Y5962282D02*
G01*
X4812868Y5956848D01*
X4582326Y6259233D02*
G01*
X4643926Y6197633D01*
X4807435Y6034124D02*
G01*
X4848789Y5992769D01*
X4601112Y6312289D02*
G01*
X4623703Y6289698D01*
X4702441Y6210959D02*
G01*
X4884710Y6028690D01*
X4585205Y6400037D02*
G01*
X4624211Y6361031D01*
X4773555Y6211688D02*
G01*
X4920632Y6064611D01*
X4818715Y6238369D02*
G01*
X4956552Y6100532D01*
X4847565Y6281362D02*
G01*
X4992473Y6136453D01*
X4853817Y6346952D02*
G01*
X4872475Y6328294D01*
X4994731Y6206037D02*
G01*
X5037308Y6163460D01*
X4872573Y6400037D02*
G01*
X4888381Y6384230D01*
X5050633Y6221978D02*
G01*
X5108989Y6163622D01*
X5088144Y6256309D02*
G01*
X5180831Y6163622D01*
X5108529Y6307766D02*
G01*
X5134241Y6282054D01*
X5202362Y6213932D02*
G01*
X5252673Y6163622D01*
X5088099Y6400037D02*
G01*
X5130938Y6357199D01*
X5277618Y6210519D02*
G01*
X5324515Y6163622D01*
X5324098Y6235881D02*
G01*
X5396357Y6163622D01*
X5354093Y6277728D02*
G01*
X5468199Y6163622D01*
X5362573Y6341090D02*
G01*
X5380318Y6323345D01*
X5497784Y6205879D02*
G01*
X5540041Y6163622D01*
X5375468Y6400037D02*
G01*
X5394572Y6380933D01*
X5555454Y6220051D02*
G01*
X5611883Y6163622D01*
X5593962Y6253386D02*
G01*
X5683725Y6163622D01*
X5615946Y6303244D02*
G01*
X5646389Y6272800D01*
X5701416Y6217773D02*
G01*
X5755567Y6163622D01*
X5590994Y6400037D02*
G01*
X5637825Y6353207D01*
X5781681Y6209351D02*
G01*
X5827409Y6163622D01*
X5829257Y6233616D02*
G01*
X5899251Y6163622D01*
X5860622Y6274093D02*
G01*
X5971093Y6163622D01*
X5871329Y6335229D02*
G01*
X5888668Y6317889D01*
X6000488Y6206069D02*
G01*
X6042935Y6163622D01*
X5878362Y6400037D02*
G01*
X5900913Y6377486D01*
X6060071Y6218328D02*
G01*
X6114777Y6163622D01*
X6099780Y6250462D02*
G01*
X6186619Y6163622D01*
X6123029Y6299054D02*
G01*
X6160743Y6261340D01*
X6198310Y6223774D02*
G01*
X6258461Y6163622D01*
X6109596Y6384330D02*
G01*
X6144992Y6348933D01*
X6285534Y6208392D02*
G01*
X6330304Y6163622D01*
X6165730Y6400037D02*
G01*
X6167789Y6397979D01*
X6334417Y6231351D02*
G01*
X6402146Y6163622D01*
X6366890Y6270719D02*
G01*
X6473988Y6163622D01*
X6379717Y6329734D02*
G01*
X6397019Y6312433D01*
X6502837Y6206614D02*
G01*
X6545830Y6163622D01*
X6381256Y6400037D02*
G01*
X6407253Y6374040D01*
X6564532Y6216762D02*
G01*
X6617672Y6163622D01*
X6605596Y6247539D02*
G01*
X6689514Y6163622D01*
X6629968Y6295010D02*
G01*
X6761356Y6163622D01*
X6623239Y6373580D02*
G01*
X6652160Y6344660D01*
X6789138Y6207682D02*
G01*
X6833198Y6163622D01*
X6668624Y6400037D02*
G01*
X6673498Y6395164D01*
X6839576Y6229085D02*
G01*
X6905040Y6163622D01*
X6873051Y6267453D02*
G01*
X6976882Y6163622D01*
X6887717Y6324629D02*
G01*
X6905762Y6306584D01*
X7005187Y6207159D02*
G01*
X7048724Y6163622D01*
X6884151Y6400037D02*
G01*
X6913594Y6370594D01*
X7068993Y6215195D02*
G01*
X7120566Y6163622D01*
X7111084Y6244946D02*
G01*
X7192408Y6163622D01*
X7136908Y6290965D02*
G01*
X7233041Y6194831D01*
X7134713Y6365002D02*
G01*
X7159328Y6340386D01*
X7171519Y6400037D02*
G01*
X7179485Y6392071D01*
X7185978Y6163622D02*
G01*
X7235770Y6213414D01*
X7114135Y6163622D02*
G01*
X7192086Y6241572D01*
X7042293Y6163622D02*
G01*
X7164866Y6286194D01*
X6970451Y6163622D02*
G01*
X7013214Y6206385D01*
X7141412Y6334582D02*
G01*
X7162397Y6355567D01*
X6898609Y6163622D02*
G01*
X6959397Y6224410D01*
X7123334Y6388346D02*
G01*
X7135025Y6400037D01*
X6826767Y6163622D02*
G01*
X6923430Y6260285D01*
X6754925Y6163622D02*
G01*
X6801908Y6210605D01*
X6883135Y6291832D02*
G01*
X6904941Y6313638D01*
X6683083Y6163622D02*
G01*
X6731502Y6212041D01*
X6881793Y6362332D02*
G01*
X6919499Y6400037D01*
X6611241Y6163622D02*
G01*
X6686762Y6239143D01*
X6539399Y6163622D02*
G01*
X6658139Y6282362D01*
X6467557Y6163622D02*
G01*
X6509871Y6205936D01*
X6633717Y6329782D02*
G01*
X6653022Y6349087D01*
X6395715Y6163622D02*
G01*
X6454512Y6222419D01*
X6617173Y6385080D02*
G01*
X6632131Y6400037D01*
X6323873Y6163622D02*
G01*
X6417443Y6257192D01*
X6252031Y6163622D02*
G01*
X6301169Y6212760D01*
X6372785Y6284376D02*
G01*
X6397311Y6308902D01*
X6180189Y6163622D02*
G01*
X6227234Y6210667D01*
X6374885Y6358319D02*
G01*
X6416604Y6400037D01*
X6108347Y6163622D02*
G01*
X6181437Y6236713D01*
X6036505Y6163622D02*
G01*
X6151559Y6278677D01*
X4679753Y4878712D02*
G01*
X4683371Y4882330D01*
X5964663Y6163622D02*
G01*
X6006957Y6205916D01*
X6125717Y6324676D02*
G01*
X6143788Y6342747D01*
X4593376Y4864177D02*
G01*
X4647450Y4918251D01*
X5892821Y6163622D02*
G01*
X5949867Y6220668D01*
X6111013Y6381814D02*
G01*
X6129236Y6400037D01*
X4473051Y4815695D02*
G01*
X4477864Y4820507D01*
X4539392Y4882035D02*
G01*
X4611529Y4954172D01*
X5820978Y6163622D02*
G01*
X5911456Y6254100D01*
X4401209Y4815695D02*
G01*
X4575608Y4990093D01*
X5749136Y6163622D02*
G01*
X5802073Y6216559D01*
X5861312Y6275797D02*
G01*
X5890143Y6304628D01*
X4329367Y4815695D02*
G01*
X4539687Y5026014D01*
X5677294Y6163622D02*
G01*
X5723386Y6209713D01*
X5867946Y6354274D02*
G01*
X5913710Y6400037D01*
X4257525Y4815695D02*
G01*
X4503766Y5061935D01*
X5605452Y6163622D02*
G01*
X5676113Y6234283D01*
X4185683Y4815695D02*
G01*
X4467845Y5097856D01*
X5533610Y6163622D02*
G01*
X5645219Y6275230D01*
X4113841Y4815695D02*
G01*
X4431924Y5133777D01*
X5461768Y6163622D02*
G01*
X5504232Y6206085D01*
X5617717Y6319571D02*
G01*
X5635026Y6336880D01*
X4041999Y4815695D02*
G01*
X4362172Y5135868D01*
X5389926Y6163622D02*
G01*
X5445222Y6218918D01*
X5604852Y6378548D02*
G01*
X5626342Y6400037D01*
X3970157Y4815695D02*
G01*
X4311797Y5157335D01*
X5318084Y6163622D02*
G01*
X5405740Y6251278D01*
X3898315Y4815695D02*
G01*
X4239955Y5157335D01*
X4351045Y5268425D02*
G01*
X4357511Y5274891D01*
X5246242Y6163622D02*
G01*
X5304545Y6221925D01*
X5347733Y6265113D02*
G01*
X5382975Y6300355D01*
X3826473Y4815695D02*
G01*
X4168113Y5157335D01*
X4260838Y5250060D02*
G01*
X4324133Y5313354D01*
X5174400Y6163622D02*
G01*
X5219543Y6208765D01*
X5361007Y6350229D02*
G01*
X5398941Y6388163D01*
X3754631Y4815695D02*
G01*
X3848231Y4909294D01*
X3917205Y4978268D02*
G01*
X4110231Y5171295D01*
X4188996Y5250060D02*
G01*
X4320476Y5381540D01*
X5102558Y6163622D02*
G01*
X5170789Y6231853D01*
X5337734Y6398798D02*
G01*
X5338974Y6400037D01*
X3682789Y4815695D02*
G01*
X3797952Y4930858D01*
X3895641Y5028547D02*
G01*
X4074310Y5207216D01*
X4139876Y5272782D02*
G01*
X4320476Y5453382D01*
X5029761Y6162667D02*
G01*
X5138878Y6271784D01*
X3678562Y4883310D02*
G01*
X3779125Y4983873D01*
X3869062Y5073810D02*
G01*
X4038389Y5243137D01*
X4103955Y5308703D02*
G01*
X4320476Y5525224D01*
X4807435Y6012183D02*
G01*
X5001507Y6206255D01*
X5109344Y6314092D02*
G01*
X5126676Y6331424D01*
X3678562Y4955152D02*
G01*
X3776337Y5052927D01*
X3869062Y5145652D02*
G01*
X4002468Y5279058D01*
X4068035Y5344625D02*
G01*
X4320476Y5597066D01*
X4806646Y6083236D02*
G01*
X4940577Y6217167D01*
X5098591Y6375181D02*
G01*
X5123447Y6400037D01*
X3678562Y5026994D02*
G01*
X3776337Y5124769D01*
X3891443Y5239875D02*
G01*
X3966547Y5314979D01*
X4032113Y5380546D02*
G01*
X4320476Y5668908D01*
X4776968Y6125401D02*
G01*
X4900088Y6248520D01*
X3678562Y5098836D02*
G01*
X3768737Y5189011D01*
X3866088Y5286362D02*
G01*
X3930626Y5350900D01*
X3996192Y5416466D02*
G01*
X4320476Y5740750D01*
X4741047Y6161321D02*
G01*
X4813673Y6233947D01*
X4828579Y6248853D02*
G01*
X4875807Y6296081D01*
X3678562Y5170678D02*
G01*
X3755081Y5247197D01*
X3807902Y5300018D02*
G01*
X3894705Y5386821D01*
X3960271Y5452388D02*
G01*
X4320476Y5812592D01*
X4702339Y6194455D02*
G01*
X4715699Y6207816D01*
X4853933Y6346050D02*
G01*
X4884488Y6376604D01*
X3678562Y5242520D02*
G01*
X3858784Y5422742D01*
X3924350Y5488309D02*
G01*
X4320476Y5884434D01*
X4633674Y6197633D02*
G01*
X4665771Y6229730D01*
X4831916Y6395874D02*
G01*
X4836079Y6400037D01*
X3678562Y5314363D02*
G01*
X3809612Y5445412D01*
X3901685Y5537486D02*
G01*
X4320476Y5956276D01*
X4561832Y6197633D02*
G01*
X4632538Y6268338D01*
X3678562Y5386204D02*
G01*
X3774837Y5482480D01*
X3864618Y5572260D02*
G01*
X4320476Y6028118D01*
X4434018Y6141660D02*
G01*
X4499441Y6207084D01*
X4600588Y6308231D02*
G01*
X4618326Y6325968D01*
X3678562Y5458046D02*
G01*
X4320476Y6099960D01*
X4421335Y6200819D02*
G01*
X4436039Y6215523D01*
X4592063Y6371547D02*
G01*
X4620553Y6400037D01*
X3678562Y5529889D02*
G01*
X4298154Y6149480D01*
X4375669Y6226996D02*
G01*
X4394435Y6245762D01*
X3678562Y5601731D02*
G01*
X4368912Y6292080D01*
X3678562Y5673573D02*
G01*
X4372294Y6367304D01*
X3678562Y5745415D02*
G01*
X4333185Y6400037D01*
X3678562Y5817257D02*
G01*
X4261343Y6400037D01*
X3678562Y5889099D02*
G01*
X3997532Y6208068D01*
X4091833Y6302369D02*
G01*
X4189501Y6400037D01*
X3660444Y5942822D02*
G01*
X3931771Y6214150D01*
X4085534Y6367913D02*
G01*
X4117659Y6400037D01*
X3624522Y5978743D02*
G01*
X3888783Y6243004D01*
X3588601Y6014664D02*
G01*
X3862184Y6288247D01*
X3552680Y6050585D02*
G01*
X3708721Y6206625D01*
X3839100Y6337005D02*
G01*
X3861756Y6359661D01*
X3516759Y6086506D02*
G01*
X3655787Y6225534D01*
X3820280Y6390027D02*
G01*
X3830291Y6400037D01*
X3480838Y6122427D02*
G01*
X3620352Y6261941D01*
X3444917Y6158348D02*
G01*
X3496020Y6209451D01*
X3582107Y6295538D02*
G01*
X3602776Y6316208D01*
X3408996Y6194269D02*
G01*
X3427503Y6212776D01*
X3579005Y6364278D02*
G01*
X3614764Y6400037D01*
X3373075Y6230190D02*
G01*
X3383329Y6240444D01*
X3337154Y6266111D02*
G01*
X3355457Y6284414D01*
X3331683Y6332482D02*
G01*
X3351684Y6352483D01*
X3314188Y6386829D02*
G01*
X3327396Y6400037D01*
X4391541Y3645662D02*
G01*
X4320809Y3645662D01*
X4320809Y3645662D02*
G01*
X4328716Y3656256D01*
X4328716Y3656256D02*
G01*
X4336190Y3669527D01*
X4336190Y3669527D02*
G01*
X4341906Y3683645D01*
X4341906Y3683645D02*
G01*
X4345769Y3698378D01*
X4345769Y3698378D02*
G01*
X4347717Y3713484D01*
X4347717Y3713484D02*
G01*
X4347717Y3728715D01*
X4347717Y3728715D02*
G01*
X4345769Y3743821D01*
X4345769Y3743821D02*
G01*
X4341906Y3758554D01*
X4341906Y3758554D02*
G01*
X4336190Y3772672D01*
X4336190Y3772672D02*
G01*
X4328716Y3785943D01*
X4328716Y3785943D02*
G01*
X4319606Y3798149D01*
X4319606Y3798149D02*
G01*
X4309010Y3809090D01*
X4309010Y3809090D02*
G01*
X4297102Y3818587D01*
X4297102Y3818587D02*
G01*
X4284078Y3826482D01*
X4284078Y3826482D02*
G01*
X4270150Y3832648D01*
X4270150Y3832648D02*
G01*
X4255549Y3836981D01*
X4255549Y3836981D02*
G01*
X4240513Y3839412D01*
X4240513Y3839412D02*
G01*
X4225290Y3839900D01*
X4225290Y3839900D02*
G01*
X4210129Y3838438D01*
X4210129Y3838438D02*
G01*
X4195280Y3835048D01*
X4195280Y3835048D02*
G01*
X4184631Y3831130D01*
X4184631Y3831130D02*
G01*
X3893135Y4122626D01*
X3893135Y4122626D02*
G01*
X3893166Y4124090D01*
X3893166Y4124090D02*
G01*
X3891424Y4135725D01*
X3891424Y4135725D02*
G01*
X3887741Y4146899D01*
X3887741Y4146899D02*
G01*
X3882223Y4157289D01*
X3882223Y4157289D02*
G01*
X3875028Y4166597D01*
X3875028Y4166597D02*
G01*
X3866364Y4174555D01*
X3866364Y4174555D02*
G01*
X3865248Y4175276D01*
X3865248Y4175276D02*
G01*
X3968467Y4278495D01*
X3968467Y4278495D02*
G01*
X4754544Y4278495D01*
X4754544Y4278495D02*
G01*
X4764184Y4279508D01*
X4764184Y4279508D02*
G01*
X4773402Y4282503D01*
X4773402Y4282503D02*
G01*
X4781795Y4287349D01*
X4781795Y4287349D02*
G01*
X4787327Y4292074D01*
X4787327Y4292074D02*
G01*
X4901781Y4406528D01*
X4901781Y4406528D02*
G01*
X4912773Y4406762D01*
X4912773Y4406762D02*
G01*
X4917813Y4407736D01*
X4917813Y4407736D02*
G01*
X4917813Y4335425D01*
X4917813Y4335425D02*
G01*
X4895324Y4312937D01*
X4895324Y4312937D02*
G01*
X4889224Y4305404D01*
X4889224Y4305404D02*
G01*
X4884824Y4296768D01*
X4884824Y4296768D02*
G01*
X4882316Y4287406D01*
X4882316Y4287406D02*
G01*
X4881745Y4280154D01*
X4881745Y4280154D02*
G01*
X4881745Y4162189D01*
X4881745Y4162189D02*
G01*
X4875053Y4155497D01*
X4875053Y4155497D02*
G01*
X4868260Y4145892D01*
X4868260Y4145892D02*
G01*
X4863187Y4135276D01*
X4863187Y4135276D02*
G01*
X4859982Y4123957D01*
X4859982Y4123957D02*
G01*
X4858736Y4112258D01*
X4858736Y4112258D02*
G01*
X4859484Y4100518D01*
X4859484Y4100518D02*
G01*
X4862206Y4089072D01*
X4862206Y4089072D02*
G01*
X4866823Y4078251D01*
X4866823Y4078251D02*
G01*
X4873203Y4068367D01*
X4873203Y4068367D02*
G01*
X4881161Y4059702D01*
X4881161Y4059702D02*
G01*
X4890470Y4052508D01*
X4890470Y4052508D02*
G01*
X4900860Y4046989D01*
X4900860Y4046989D02*
G01*
X4912033Y4043306D01*
X4912033Y4043306D02*
G01*
X4923668Y4041565D01*
X4923668Y4041565D02*
G01*
X4935430Y4041814D01*
X4935430Y4041814D02*
G01*
X4946981Y4044048D01*
X4946981Y4044048D02*
G01*
X4957988Y4048202D01*
X4957988Y4048202D02*
G01*
X4968134Y4054156D01*
X4968134Y4054156D02*
G01*
X4977129Y4061740D01*
X4977129Y4061740D02*
G01*
X4984712Y4070734D01*
X4984712Y4070734D02*
G01*
X4990666Y4080881D01*
X4990666Y4080881D02*
G01*
X4994820Y4091888D01*
X4994820Y4091888D02*
G01*
X4997054Y4103438D01*
X4997054Y4103438D02*
G01*
X4997304Y4115200D01*
X4997304Y4115200D02*
G01*
X4995562Y4126835D01*
X4995562Y4126835D02*
G01*
X4991879Y4138009D01*
X4991879Y4138009D02*
G01*
X4986361Y4148399D01*
X4986361Y4148399D02*
G01*
X4979166Y4157707D01*
X4979166Y4157707D02*
G01*
X4974470Y4162020D01*
X4974470Y4162020D02*
G01*
X4974470Y4189517D01*
X4974470Y4189517D02*
G01*
X4977338Y4189088D01*
X4977338Y4189088D02*
G01*
X4989100Y4189338D01*
X4989100Y4189338D02*
G01*
X5000651Y4191572D01*
X5000651Y4191572D02*
G01*
X5011658Y4195725D01*
X5011658Y4195725D02*
G01*
X5021805Y4201679D01*
X5021805Y4201679D02*
G01*
X5030799Y4209263D01*
X5030799Y4209263D02*
G01*
X5038382Y4218257D01*
X5038382Y4218257D02*
G01*
X5044337Y4228404D01*
X5044337Y4228404D02*
G01*
X5048490Y4239411D01*
X5048490Y4239411D02*
G01*
X5050724Y4250962D01*
X5050724Y4250962D02*
G01*
X5050974Y4262724D01*
X5050974Y4262724D02*
G01*
X5049232Y4274358D01*
X5049232Y4274358D02*
G01*
X5045549Y4285532D01*
X5045549Y4285532D02*
G01*
X5042207Y4291826D01*
X5042207Y4291826D02*
G01*
X5042207Y4618507D01*
X5042207Y4618507D02*
G01*
X5041194Y4628146D01*
X5041194Y4628146D02*
G01*
X5038198Y4637364D01*
X5038198Y4637364D02*
G01*
X5033352Y4645758D01*
X5033352Y4645758D02*
G01*
X5028627Y4651290D01*
X5028627Y4651290D02*
G01*
X5024365Y4655553D01*
X5024365Y4655553D02*
G01*
X5024533Y4663459D01*
X5024533Y4663459D02*
G01*
X5022791Y4675094D01*
X5022791Y4675094D02*
G01*
X5019108Y4686268D01*
X5019108Y4686268D02*
G01*
X5013590Y4696658D01*
X5013590Y4696658D02*
G01*
X5006395Y4705966D01*
X5006395Y4705966D02*
G01*
X4997730Y4713924D01*
X4997730Y4713924D02*
G01*
X4987846Y4720304D01*
X4987846Y4720304D02*
G01*
X4977025Y4724921D01*
X4977025Y4724921D02*
G01*
X4965579Y4727643D01*
X4965579Y4727643D02*
G01*
X4953839Y4728392D01*
X4953839Y4728392D02*
G01*
X4942140Y4727146D01*
X4942140Y4727146D02*
G01*
X4930821Y4723940D01*
X4930821Y4723940D02*
G01*
X4920206Y4718868D01*
X4920206Y4718868D02*
G01*
X4910601Y4712075D01*
X4910601Y4712075D02*
G01*
X4902282Y4703756D01*
X4902282Y4703756D02*
G01*
X4901593Y4702783D01*
X4901593Y4702783D02*
G01*
X4802891Y4801582D01*
X4802891Y4801582D02*
G01*
X5197825Y4801582D01*
X5197825Y4801582D02*
G01*
X5207464Y4802596D01*
X5207464Y4802596D02*
G01*
X5216682Y4805591D01*
X5216682Y4805591D02*
G01*
X5225076Y4810437D01*
X5225076Y4810437D02*
G01*
X5230608Y4815162D01*
X5230608Y4815162D02*
G01*
X5273841Y4858394D01*
X5273841Y4858394D02*
G01*
X5284832Y4858628D01*
X5284832Y4858628D02*
G01*
X5296383Y4860862D01*
X5296383Y4860862D02*
G01*
X5307390Y4865015D01*
X5307390Y4865015D02*
G01*
X5317537Y4870969D01*
X5317537Y4870969D02*
G01*
X5326531Y4878553D01*
X5326531Y4878553D02*
G01*
X5331312Y4884223D01*
X5331312Y4884223D02*
G01*
X6330227Y3885308D01*
X6330227Y3885308D02*
G01*
X6330005Y3883227D01*
X6330005Y3883227D02*
G01*
X6330754Y3871486D01*
X6330754Y3871486D02*
G01*
X6333476Y3860041D01*
X6333476Y3860041D02*
G01*
X6338093Y3849220D01*
X6338093Y3849220D02*
G01*
X6344473Y3839335D01*
X6344473Y3839335D02*
G01*
X6352431Y3830671D01*
X6352431Y3830671D02*
G01*
X6361739Y3823476D01*
X6361739Y3823476D02*
G01*
X6372129Y3817957D01*
X6372129Y3817957D02*
G01*
X6383303Y3814275D01*
X6383303Y3814275D02*
G01*
X6394938Y3812533D01*
X6394938Y3812533D02*
G01*
X6406700Y3812783D01*
X6406700Y3812783D02*
G01*
X6418250Y3815017D01*
X6418250Y3815017D02*
G01*
X6429257Y3819170D01*
X6429257Y3819170D02*
G01*
X6439404Y3825124D01*
X6439404Y3825124D02*
G01*
X6448398Y3832708D01*
X6448398Y3832708D02*
G01*
X6455982Y3841702D01*
X6455982Y3841702D02*
G01*
X6461936Y3851849D01*
X6461936Y3851849D02*
G01*
X6466090Y3862856D01*
X6466090Y3862856D02*
G01*
X6468324Y3874407D01*
X6468324Y3874407D02*
G01*
X6468573Y3886169D01*
X6468573Y3886169D02*
G01*
X6466832Y3897803D01*
X6466832Y3897803D02*
G01*
X6463149Y3908977D01*
X6463149Y3908977D02*
G01*
X6457630Y3919367D01*
X6457630Y3919367D02*
G01*
X6450436Y3928675D01*
X6450436Y3928675D02*
G01*
X6441771Y3936633D01*
X6441771Y3936633D02*
G01*
X6431887Y3943013D01*
X6431887Y3943013D02*
G01*
X6421066Y3947630D01*
X6421066Y3947630D02*
G01*
X6409620Y3950353D01*
X6409620Y3950353D02*
G01*
X6397880Y3951101D01*
X6397880Y3951101D02*
G01*
X6395789Y3950879D01*
X6395789Y3950879D02*
G01*
X5026129Y5320539D01*
X5026129Y5320539D02*
G01*
X5026129Y5917279D01*
X5026129Y5917279D02*
G01*
X5028818Y5919546D01*
X5028818Y5919546D02*
G01*
X5036401Y5928541D01*
X5036401Y5928541D02*
G01*
X5042355Y5938688D01*
X5042355Y5938688D02*
G01*
X5046509Y5949694D01*
X5046509Y5949694D02*
G01*
X5048743Y5961245D01*
X5048743Y5961245D02*
G01*
X5048993Y5973007D01*
X5048993Y5973007D02*
G01*
X5047251Y5984642D01*
X5047251Y5984642D02*
G01*
X5043568Y5995816D01*
X5043568Y5995816D02*
G01*
X5038050Y6006206D01*
X5038050Y6006206D02*
G01*
X5030855Y6015514D01*
X5030855Y6015514D02*
G01*
X5022191Y6023472D01*
X5022191Y6023472D02*
G01*
X5015162Y6028008D01*
X5015162Y6028008D02*
G01*
X5058050Y6070897D01*
X5058050Y6070897D02*
G01*
X7221037Y6070897D01*
X7221037Y6070897D02*
G01*
X7230676Y6071910D01*
X7230676Y6071910D02*
G01*
X7239894Y6074905D01*
X7239894Y6074905D02*
G01*
X7248288Y6079751D01*
X7248288Y6079751D02*
G01*
X7253820Y6084476D01*
X7253820Y6084476D02*
G01*
X7412410Y6243067D01*
X7412410Y6243067D02*
G01*
X7413212Y6235952D01*
X7413212Y6235952D02*
G01*
X7416086Y6227738D01*
X7416086Y6227738D02*
G01*
X7420716Y6220370D01*
X7420716Y6220370D02*
G01*
X7426870Y6214216D01*
X7426870Y6214216D02*
G01*
X7434238Y6209586D01*
X7434238Y6209586D02*
G01*
X7442452Y6206712D01*
X7442452Y6206712D02*
G01*
X7451100Y6205738D01*
X7451100Y6205738D02*
G01*
X7611099Y6205738D01*
X7611099Y6205738D02*
G01*
X7619747Y6206712D01*
X7619747Y6206712D02*
G01*
X7627961Y6209586D01*
X7627961Y6209586D02*
G01*
X7635329Y6214216D01*
X7635329Y6214216D02*
G01*
X7641483Y6220370D01*
X7641483Y6220370D02*
G01*
X7646113Y6227738D01*
X7646113Y6227738D02*
G01*
X7648987Y6235952D01*
X7648987Y6235952D02*
G01*
X7649961Y6244600D01*
X7649961Y6244600D02*
G01*
X7649961Y6400037D01*
X7649961Y6400037D02*
G01*
X7661147Y6400037D01*
X7661147Y6400037D02*
G01*
X7661147Y5271007D01*
X7661147Y5271007D02*
G01*
X7398384Y5533770D01*
X7398384Y5533770D02*
G01*
X7391581Y5539196D01*
X7391581Y5539196D02*
G01*
X7383740Y5542972D01*
X7383740Y5542972D02*
G01*
X7375256Y5544908D01*
X7375256Y5544908D02*
G01*
X7366554Y5544908D01*
X7366554Y5544908D02*
G01*
X7358070Y5542972D01*
X7358070Y5542972D02*
G01*
X7350229Y5539196D01*
X7350229Y5539196D02*
G01*
X7343425Y5533770D01*
X7343425Y5533770D02*
G01*
X6947297Y5137641D01*
X6947297Y5137641D02*
G01*
X6941871Y5130838D01*
X6941871Y5130838D02*
G01*
X6938095Y5122997D01*
X6938095Y5122997D02*
G01*
X6936158Y5114513D01*
X6936158Y5114513D02*
G01*
X6936158Y5105811D01*
X6936158Y5105811D02*
G01*
X6938095Y5097327D01*
X6938095Y5097327D02*
G01*
X6941871Y5089486D01*
X6941871Y5089486D02*
G01*
X6947297Y5082683D01*
X6947297Y5082683D02*
G01*
X7333265Y4696713D01*
X7333265Y4696713D02*
G01*
X7340069Y4691288D01*
X7340069Y4691288D02*
G01*
X7347910Y4687512D01*
X7347910Y4687512D02*
G01*
X7356394Y4685576D01*
X7356394Y4685576D02*
G01*
X7365096Y4685576D01*
X7365096Y4685576D02*
G01*
X7373580Y4687512D01*
X7373580Y4687512D02*
G01*
X7381421Y4691288D01*
X7381421Y4691288D02*
G01*
X7388225Y4696713D01*
X7388225Y4696713D02*
G01*
X7661147Y4969637D01*
X7661147Y4969637D02*
G01*
X7661147Y3645662D01*
X7661147Y3645662D02*
G01*
X7368809Y3645662D01*
X7368809Y3645662D02*
G01*
X7376716Y3656256D01*
X7376716Y3656256D02*
G01*
X7384190Y3669527D01*
X7384190Y3669527D02*
G01*
X7389906Y3683645D01*
X7389906Y3683645D02*
G01*
X7393769Y3698378D01*
X7393769Y3698378D02*
G01*
X7395717Y3713484D01*
X7395717Y3713484D02*
G01*
X7395717Y3728715D01*
X7395717Y3728715D02*
G01*
X7393769Y3743821D01*
X7393769Y3743821D02*
G01*
X7389906Y3758554D01*
X7389906Y3758554D02*
G01*
X7384190Y3772672D01*
X7384190Y3772672D02*
G01*
X7376716Y3785943D01*
X7376716Y3785943D02*
G01*
X7367606Y3798149D01*
X7367606Y3798149D02*
G01*
X7357010Y3809090D01*
X7357010Y3809090D02*
G01*
X7345102Y3818587D01*
X7345102Y3818587D02*
G01*
X7332078Y3826482D01*
X7332078Y3826482D02*
G01*
X7318150Y3832648D01*
X7318150Y3832648D02*
G01*
X7303549Y3836981D01*
X7303549Y3836981D02*
G01*
X7288513Y3839412D01*
X7288513Y3839412D02*
G01*
X7273290Y3839900D01*
X7273290Y3839900D02*
G01*
X7258129Y3838438D01*
X7258129Y3838438D02*
G01*
X7243280Y3835048D01*
X7243280Y3835048D02*
G01*
X7228986Y3829788D01*
X7228986Y3829788D02*
G01*
X7215482Y3822743D01*
X7215482Y3822743D02*
G01*
X7202990Y3814029D01*
X7202990Y3814029D02*
G01*
X7191715Y3803790D01*
X7191715Y3803790D02*
G01*
X7181842Y3792192D01*
X7181842Y3792192D02*
G01*
X7173533Y3779427D01*
X7173533Y3779427D02*
G01*
X7166924Y3765704D01*
X7166924Y3765704D02*
G01*
X7162125Y3751249D01*
X7162125Y3751249D02*
G01*
X7159214Y3736299D01*
X7159214Y3736299D02*
G01*
X7158238Y3721100D01*
X7158238Y3721100D02*
G01*
X7159214Y3705900D01*
X7159214Y3705900D02*
G01*
X7162125Y3690950D01*
X7162125Y3690950D02*
G01*
X7166924Y3676495D01*
X7166924Y3676495D02*
G01*
X7173533Y3662772D01*
X7173533Y3662772D02*
G01*
X7181842Y3650007D01*
X7181842Y3650007D02*
G01*
X7185541Y3645662D01*
X7185541Y3645662D02*
G01*
X7114809Y3645662D01*
X7114809Y3645662D02*
G01*
X7122716Y3656256D01*
X7122716Y3656256D02*
G01*
X7130190Y3669527D01*
X7130190Y3669527D02*
G01*
X7135906Y3683645D01*
X7135906Y3683645D02*
G01*
X7139769Y3698378D01*
X7139769Y3698378D02*
G01*
X7141717Y3713484D01*
X7141717Y3713484D02*
G01*
X7141717Y3728715D01*
X7141717Y3728715D02*
G01*
X7139769Y3743821D01*
X7139769Y3743821D02*
G01*
X7135906Y3758554D01*
X7135906Y3758554D02*
G01*
X7130190Y3772672D01*
X7130190Y3772672D02*
G01*
X7122716Y3785943D01*
X7122716Y3785943D02*
G01*
X7113606Y3798149D01*
X7113606Y3798149D02*
G01*
X7103010Y3809090D01*
X7103010Y3809090D02*
G01*
X7091102Y3818587D01*
X7091102Y3818587D02*
G01*
X7078078Y3826482D01*
X7078078Y3826482D02*
G01*
X7064150Y3832648D01*
X7064150Y3832648D02*
G01*
X7049549Y3836981D01*
X7049549Y3836981D02*
G01*
X7034513Y3839412D01*
X7034513Y3839412D02*
G01*
X7019290Y3839900D01*
X7019290Y3839900D02*
G01*
X7004129Y3838438D01*
X7004129Y3838438D02*
G01*
X6989280Y3835048D01*
X6989280Y3835048D02*
G01*
X6974986Y3829788D01*
X6974986Y3829788D02*
G01*
X6961482Y3822743D01*
X6961482Y3822743D02*
G01*
X6948990Y3814029D01*
X6948990Y3814029D02*
G01*
X6937715Y3803790D01*
X6937715Y3803790D02*
G01*
X6927842Y3792192D01*
X6927842Y3792192D02*
G01*
X6919533Y3779427D01*
X6919533Y3779427D02*
G01*
X6912924Y3765704D01*
X6912924Y3765704D02*
G01*
X6908125Y3751249D01*
X6908125Y3751249D02*
G01*
X6905214Y3736299D01*
X6905214Y3736299D02*
G01*
X6904238Y3721100D01*
X6904238Y3721100D02*
G01*
X6905214Y3705900D01*
X6905214Y3705900D02*
G01*
X6908125Y3690950D01*
X6908125Y3690950D02*
G01*
X6912924Y3676495D01*
X6912924Y3676495D02*
G01*
X6919533Y3662772D01*
X6919533Y3662772D02*
G01*
X6927842Y3650007D01*
X6927842Y3650007D02*
G01*
X6931541Y3645662D01*
X6931541Y3645662D02*
G01*
X6860809Y3645662D01*
X6860809Y3645662D02*
G01*
X6868716Y3656256D01*
X6868716Y3656256D02*
G01*
X6876190Y3669527D01*
X6876190Y3669527D02*
G01*
X6881906Y3683645D01*
X6881906Y3683645D02*
G01*
X6885769Y3698378D01*
X6885769Y3698378D02*
G01*
X6887717Y3713484D01*
X6887717Y3713484D02*
G01*
X6887717Y3728715D01*
X6887717Y3728715D02*
G01*
X6885769Y3743821D01*
X6885769Y3743821D02*
G01*
X6881906Y3758554D01*
X6881906Y3758554D02*
G01*
X6876190Y3772672D01*
X6876190Y3772672D02*
G01*
X6868716Y3785943D01*
X6868716Y3785943D02*
G01*
X6859606Y3798149D01*
X6859606Y3798149D02*
G01*
X6849010Y3809090D01*
X6849010Y3809090D02*
G01*
X6837102Y3818587D01*
X6837102Y3818587D02*
G01*
X6824078Y3826482D01*
X6824078Y3826482D02*
G01*
X6810150Y3832648D01*
X6810150Y3832648D02*
G01*
X6795549Y3836981D01*
X6795549Y3836981D02*
G01*
X6780513Y3839412D01*
X6780513Y3839412D02*
G01*
X6765290Y3839900D01*
X6765290Y3839900D02*
G01*
X6750129Y3838438D01*
X6750129Y3838438D02*
G01*
X6735280Y3835048D01*
X6735280Y3835048D02*
G01*
X6720986Y3829788D01*
X6720986Y3829788D02*
G01*
X6707482Y3822743D01*
X6707482Y3822743D02*
G01*
X6694990Y3814029D01*
X6694990Y3814029D02*
G01*
X6683715Y3803790D01*
X6683715Y3803790D02*
G01*
X6673842Y3792192D01*
X6673842Y3792192D02*
G01*
X6665533Y3779427D01*
X6665533Y3779427D02*
G01*
X6658924Y3765704D01*
X6658924Y3765704D02*
G01*
X6654125Y3751249D01*
X6654125Y3751249D02*
G01*
X6651214Y3736299D01*
X6651214Y3736299D02*
G01*
X6650238Y3721100D01*
X6650238Y3721100D02*
G01*
X6651214Y3705900D01*
X6651214Y3705900D02*
G01*
X6654125Y3690950D01*
X6654125Y3690950D02*
G01*
X6658924Y3676495D01*
X6658924Y3676495D02*
G01*
X6665533Y3662772D01*
X6665533Y3662772D02*
G01*
X6673842Y3650007D01*
X6673842Y3650007D02*
G01*
X6677541Y3645662D01*
X6677541Y3645662D02*
G01*
X6606809Y3645662D01*
X6606809Y3645662D02*
G01*
X6614716Y3656256D01*
X6614716Y3656256D02*
G01*
X6622190Y3669527D01*
X6622190Y3669527D02*
G01*
X6627906Y3683645D01*
X6627906Y3683645D02*
G01*
X6631769Y3698378D01*
X6631769Y3698378D02*
G01*
X6633717Y3713484D01*
X6633717Y3713484D02*
G01*
X6633717Y3728715D01*
X6633717Y3728715D02*
G01*
X6631769Y3743821D01*
X6631769Y3743821D02*
G01*
X6627906Y3758554D01*
X6627906Y3758554D02*
G01*
X6622190Y3772672D01*
X6622190Y3772672D02*
G01*
X6614716Y3785943D01*
X6614716Y3785943D02*
G01*
X6605606Y3798149D01*
X6605606Y3798149D02*
G01*
X6595010Y3809090D01*
X6595010Y3809090D02*
G01*
X6583102Y3818587D01*
X6583102Y3818587D02*
G01*
X6570078Y3826482D01*
X6570078Y3826482D02*
G01*
X6556150Y3832648D01*
X6556150Y3832648D02*
G01*
X6541549Y3836981D01*
X6541549Y3836981D02*
G01*
X6526513Y3839412D01*
X6526513Y3839412D02*
G01*
X6511290Y3839900D01*
X6511290Y3839900D02*
G01*
X6496129Y3838438D01*
X6496129Y3838438D02*
G01*
X6481280Y3835048D01*
X6481280Y3835048D02*
G01*
X6466986Y3829788D01*
X6466986Y3829788D02*
G01*
X6453482Y3822743D01*
X6453482Y3822743D02*
G01*
X6440990Y3814029D01*
X6440990Y3814029D02*
G01*
X6429715Y3803790D01*
X6429715Y3803790D02*
G01*
X6419842Y3792192D01*
X6419842Y3792192D02*
G01*
X6411533Y3779427D01*
X6411533Y3779427D02*
G01*
X6404924Y3765704D01*
X6404924Y3765704D02*
G01*
X6400125Y3751249D01*
X6400125Y3751249D02*
G01*
X6397214Y3736299D01*
X6397214Y3736299D02*
G01*
X6396238Y3721100D01*
X6396238Y3721100D02*
G01*
X6397214Y3705900D01*
X6397214Y3705900D02*
G01*
X6400125Y3690950D01*
X6400125Y3690950D02*
G01*
X6404924Y3676495D01*
X6404924Y3676495D02*
G01*
X6411533Y3662772D01*
X6411533Y3662772D02*
G01*
X6419842Y3650007D01*
X6419842Y3650007D02*
G01*
X6423541Y3645662D01*
X6423541Y3645662D02*
G01*
X6352809Y3645662D01*
X6352809Y3645662D02*
G01*
X6360716Y3656256D01*
X6360716Y3656256D02*
G01*
X6368190Y3669527D01*
X6368190Y3669527D02*
G01*
X6373906Y3683645D01*
X6373906Y3683645D02*
G01*
X6377769Y3698378D01*
X6377769Y3698378D02*
G01*
X6379717Y3713484D01*
X6379717Y3713484D02*
G01*
X6379717Y3728715D01*
X6379717Y3728715D02*
G01*
X6377769Y3743821D01*
X6377769Y3743821D02*
G01*
X6373906Y3758554D01*
X6373906Y3758554D02*
G01*
X6368190Y3772672D01*
X6368190Y3772672D02*
G01*
X6360716Y3785943D01*
X6360716Y3785943D02*
G01*
X6351606Y3798149D01*
X6351606Y3798149D02*
G01*
X6341010Y3809090D01*
X6341010Y3809090D02*
G01*
X6329102Y3818587D01*
X6329102Y3818587D02*
G01*
X6316078Y3826482D01*
X6316078Y3826482D02*
G01*
X6302150Y3832648D01*
X6302150Y3832648D02*
G01*
X6287549Y3836981D01*
X6287549Y3836981D02*
G01*
X6272513Y3839412D01*
X6272513Y3839412D02*
G01*
X6257290Y3839900D01*
X6257290Y3839900D02*
G01*
X6242129Y3838438D01*
X6242129Y3838438D02*
G01*
X6227280Y3835048D01*
X6227280Y3835048D02*
G01*
X6212986Y3829788D01*
X6212986Y3829788D02*
G01*
X6199482Y3822743D01*
X6199482Y3822743D02*
G01*
X6186990Y3814029D01*
X6186990Y3814029D02*
G01*
X6175715Y3803790D01*
X6175715Y3803790D02*
G01*
X6165842Y3792192D01*
X6165842Y3792192D02*
G01*
X6157533Y3779427D01*
X6157533Y3779427D02*
G01*
X6150924Y3765704D01*
X6150924Y3765704D02*
G01*
X6146125Y3751249D01*
X6146125Y3751249D02*
G01*
X6143214Y3736299D01*
X6143214Y3736299D02*
G01*
X6142238Y3721100D01*
X6142238Y3721100D02*
G01*
X6143214Y3705900D01*
X6143214Y3705900D02*
G01*
X6146125Y3690950D01*
X6146125Y3690950D02*
G01*
X6150924Y3676495D01*
X6150924Y3676495D02*
G01*
X6157533Y3662772D01*
X6157533Y3662772D02*
G01*
X6165842Y3650007D01*
X6165842Y3650007D02*
G01*
X6169541Y3645662D01*
X6169541Y3645662D02*
G01*
X5844809Y3645662D01*
X5844809Y3645662D02*
G01*
X5852716Y3656256D01*
X5852716Y3656256D02*
G01*
X5860190Y3669527D01*
X5860190Y3669527D02*
G01*
X5865906Y3683645D01*
X5865906Y3683645D02*
G01*
X5869769Y3698378D01*
X5869769Y3698378D02*
G01*
X5871717Y3713484D01*
X5871717Y3713484D02*
G01*
X5871717Y3728715D01*
X5871717Y3728715D02*
G01*
X5869769Y3743821D01*
X5869769Y3743821D02*
G01*
X5865906Y3758554D01*
X5865906Y3758554D02*
G01*
X5860190Y3772672D01*
X5860190Y3772672D02*
G01*
X5852716Y3785943D01*
X5852716Y3785943D02*
G01*
X5843606Y3798149D01*
X5843606Y3798149D02*
G01*
X5833010Y3809090D01*
X5833010Y3809090D02*
G01*
X5821102Y3818587D01*
X5821102Y3818587D02*
G01*
X5808078Y3826482D01*
X5808078Y3826482D02*
G01*
X5794150Y3832648D01*
X5794150Y3832648D02*
G01*
X5779549Y3836981D01*
X5779549Y3836981D02*
G01*
X5764513Y3839412D01*
X5764513Y3839412D02*
G01*
X5749290Y3839900D01*
X5749290Y3839900D02*
G01*
X5734129Y3838438D01*
X5734129Y3838438D02*
G01*
X5719280Y3835048D01*
X5719280Y3835048D02*
G01*
X5704986Y3829788D01*
X5704986Y3829788D02*
G01*
X5691482Y3822743D01*
X5691482Y3822743D02*
G01*
X5678990Y3814029D01*
X5678990Y3814029D02*
G01*
X5667715Y3803790D01*
X5667715Y3803790D02*
G01*
X5657842Y3792192D01*
X5657842Y3792192D02*
G01*
X5649533Y3779427D01*
X5649533Y3779427D02*
G01*
X5642924Y3765704D01*
X5642924Y3765704D02*
G01*
X5638125Y3751249D01*
X5638125Y3751249D02*
G01*
X5635214Y3736299D01*
X5635214Y3736299D02*
G01*
X5634238Y3721100D01*
X5634238Y3721100D02*
G01*
X5635214Y3705900D01*
X5635214Y3705900D02*
G01*
X5638125Y3690950D01*
X5638125Y3690950D02*
G01*
X5642924Y3676495D01*
X5642924Y3676495D02*
G01*
X5649533Y3662772D01*
X5649533Y3662772D02*
G01*
X5657842Y3650007D01*
X5657842Y3650007D02*
G01*
X5661541Y3645662D01*
X5661541Y3645662D02*
G01*
X5590809Y3645662D01*
X5590809Y3645662D02*
G01*
X5598716Y3656256D01*
X5598716Y3656256D02*
G01*
X5606190Y3669527D01*
X5606190Y3669527D02*
G01*
X5611906Y3683645D01*
X5611906Y3683645D02*
G01*
X5615769Y3698378D01*
X5615769Y3698378D02*
G01*
X5617717Y3713484D01*
X5617717Y3713484D02*
G01*
X5617717Y3728715D01*
X5617717Y3728715D02*
G01*
X5615769Y3743821D01*
X5615769Y3743821D02*
G01*
X5611906Y3758554D01*
X5611906Y3758554D02*
G01*
X5606190Y3772672D01*
X5606190Y3772672D02*
G01*
X5598716Y3785943D01*
X5598716Y3785943D02*
G01*
X5589606Y3798149D01*
X5589606Y3798149D02*
G01*
X5579010Y3809090D01*
X5579010Y3809090D02*
G01*
X5567102Y3818587D01*
X5567102Y3818587D02*
G01*
X5554078Y3826482D01*
X5554078Y3826482D02*
G01*
X5540150Y3832648D01*
X5540150Y3832648D02*
G01*
X5525549Y3836981D01*
X5525549Y3836981D02*
G01*
X5510513Y3839412D01*
X5510513Y3839412D02*
G01*
X5495290Y3839900D01*
X5495290Y3839900D02*
G01*
X5480129Y3838438D01*
X5480129Y3838438D02*
G01*
X5465280Y3835048D01*
X5465280Y3835048D02*
G01*
X5450986Y3829788D01*
X5450986Y3829788D02*
G01*
X5437482Y3822743D01*
X5437482Y3822743D02*
G01*
X5424990Y3814029D01*
X5424990Y3814029D02*
G01*
X5413715Y3803790D01*
X5413715Y3803790D02*
G01*
X5403842Y3792192D01*
X5403842Y3792192D02*
G01*
X5395533Y3779427D01*
X5395533Y3779427D02*
G01*
X5388924Y3765704D01*
X5388924Y3765704D02*
G01*
X5384125Y3751249D01*
X5384125Y3751249D02*
G01*
X5381214Y3736299D01*
X5381214Y3736299D02*
G01*
X5380238Y3721100D01*
X5380238Y3721100D02*
G01*
X5381214Y3705900D01*
X5381214Y3705900D02*
G01*
X5384125Y3690950D01*
X5384125Y3690950D02*
G01*
X5388924Y3676495D01*
X5388924Y3676495D02*
G01*
X5395533Y3662772D01*
X5395533Y3662772D02*
G01*
X5403842Y3650007D01*
X5403842Y3650007D02*
G01*
X5407541Y3645662D01*
X5407541Y3645662D02*
G01*
X5336809Y3645662D01*
X5336809Y3645662D02*
G01*
X5344716Y3656256D01*
X5344716Y3656256D02*
G01*
X5352190Y3669527D01*
X5352190Y3669527D02*
G01*
X5357906Y3683645D01*
X5357906Y3683645D02*
G01*
X5361769Y3698378D01*
X5361769Y3698378D02*
G01*
X5363717Y3713484D01*
X5363717Y3713484D02*
G01*
X5363717Y3728715D01*
X5363717Y3728715D02*
G01*
X5361769Y3743821D01*
X5361769Y3743821D02*
G01*
X5357906Y3758554D01*
X5357906Y3758554D02*
G01*
X5352190Y3772672D01*
X5352190Y3772672D02*
G01*
X5344716Y3785943D01*
X5344716Y3785943D02*
G01*
X5335606Y3798149D01*
X5335606Y3798149D02*
G01*
X5325010Y3809090D01*
X5325010Y3809090D02*
G01*
X5313102Y3818587D01*
X5313102Y3818587D02*
G01*
X5300078Y3826482D01*
X5300078Y3826482D02*
G01*
X5286150Y3832648D01*
X5286150Y3832648D02*
G01*
X5271549Y3836981D01*
X5271549Y3836981D02*
G01*
X5256513Y3839412D01*
X5256513Y3839412D02*
G01*
X5241290Y3839900D01*
X5241290Y3839900D02*
G01*
X5226129Y3838438D01*
X5226129Y3838438D02*
G01*
X5211280Y3835048D01*
X5211280Y3835048D02*
G01*
X5196986Y3829788D01*
X5196986Y3829788D02*
G01*
X5183482Y3822743D01*
X5183482Y3822743D02*
G01*
X5170990Y3814029D01*
X5170990Y3814029D02*
G01*
X5159715Y3803790D01*
X5159715Y3803790D02*
G01*
X5149842Y3792192D01*
X5149842Y3792192D02*
G01*
X5141533Y3779427D01*
X5141533Y3779427D02*
G01*
X5134924Y3765704D01*
X5134924Y3765704D02*
G01*
X5130125Y3751249D01*
X5130125Y3751249D02*
G01*
X5127214Y3736299D01*
X5127214Y3736299D02*
G01*
X5126238Y3721100D01*
X5126238Y3721100D02*
G01*
X5127214Y3705900D01*
X5127214Y3705900D02*
G01*
X5130125Y3690950D01*
X5130125Y3690950D02*
G01*
X5134924Y3676495D01*
X5134924Y3676495D02*
G01*
X5141533Y3662772D01*
X5141533Y3662772D02*
G01*
X5149842Y3650007D01*
X5149842Y3650007D02*
G01*
X5153541Y3645662D01*
X5153541Y3645662D02*
G01*
X5082809Y3645662D01*
X5082809Y3645662D02*
G01*
X5090716Y3656256D01*
X5090716Y3656256D02*
G01*
X5098190Y3669527D01*
X5098190Y3669527D02*
G01*
X5103906Y3683645D01*
X5103906Y3683645D02*
G01*
X5107769Y3698378D01*
X5107769Y3698378D02*
G01*
X5109717Y3713484D01*
X5109717Y3713484D02*
G01*
X5109717Y3728715D01*
X5109717Y3728715D02*
G01*
X5107769Y3743821D01*
X5107769Y3743821D02*
G01*
X5103906Y3758554D01*
X5103906Y3758554D02*
G01*
X5098190Y3772672D01*
X5098190Y3772672D02*
G01*
X5090716Y3785943D01*
X5090716Y3785943D02*
G01*
X5081606Y3798149D01*
X5081606Y3798149D02*
G01*
X5071010Y3809090D01*
X5071010Y3809090D02*
G01*
X5059102Y3818587D01*
X5059102Y3818587D02*
G01*
X5046078Y3826482D01*
X5046078Y3826482D02*
G01*
X5032150Y3832648D01*
X5032150Y3832648D02*
G01*
X5017549Y3836981D01*
X5017549Y3836981D02*
G01*
X5002513Y3839412D01*
X5002513Y3839412D02*
G01*
X4987290Y3839900D01*
X4987290Y3839900D02*
G01*
X4972129Y3838438D01*
X4972129Y3838438D02*
G01*
X4957280Y3835048D01*
X4957280Y3835048D02*
G01*
X4942986Y3829788D01*
X4942986Y3829788D02*
G01*
X4929482Y3822743D01*
X4929482Y3822743D02*
G01*
X4916990Y3814029D01*
X4916990Y3814029D02*
G01*
X4905715Y3803790D01*
X4905715Y3803790D02*
G01*
X4895842Y3792192D01*
X4895842Y3792192D02*
G01*
X4887533Y3779427D01*
X4887533Y3779427D02*
G01*
X4880924Y3765704D01*
X4880924Y3765704D02*
G01*
X4876125Y3751249D01*
X4876125Y3751249D02*
G01*
X4873214Y3736299D01*
X4873214Y3736299D02*
G01*
X4872238Y3721100D01*
X4872238Y3721100D02*
G01*
X4873214Y3705900D01*
X4873214Y3705900D02*
G01*
X4876125Y3690950D01*
X4876125Y3690950D02*
G01*
X4880924Y3676495D01*
X4880924Y3676495D02*
G01*
X4887533Y3662772D01*
X4887533Y3662772D02*
G01*
X4895842Y3650007D01*
X4895842Y3650007D02*
G01*
X4899541Y3645662D01*
X4899541Y3645662D02*
G01*
X4828809Y3645662D01*
X4828809Y3645662D02*
G01*
X4836716Y3656256D01*
X4836716Y3656256D02*
G01*
X4844190Y3669527D01*
X4844190Y3669527D02*
G01*
X4849906Y3683645D01*
X4849906Y3683645D02*
G01*
X4853769Y3698378D01*
X4853769Y3698378D02*
G01*
X4855717Y3713484D01*
X4855717Y3713484D02*
G01*
X4855717Y3728715D01*
X4855717Y3728715D02*
G01*
X4853769Y3743821D01*
X4853769Y3743821D02*
G01*
X4849906Y3758554D01*
X4849906Y3758554D02*
G01*
X4844190Y3772672D01*
X4844190Y3772672D02*
G01*
X4836716Y3785943D01*
X4836716Y3785943D02*
G01*
X4827606Y3798149D01*
X4827606Y3798149D02*
G01*
X4817010Y3809090D01*
X4817010Y3809090D02*
G01*
X4805102Y3818587D01*
X4805102Y3818587D02*
G01*
X4792078Y3826482D01*
X4792078Y3826482D02*
G01*
X4778150Y3832648D01*
X4778150Y3832648D02*
G01*
X4763549Y3836981D01*
X4763549Y3836981D02*
G01*
X4748513Y3839412D01*
X4748513Y3839412D02*
G01*
X4733290Y3839900D01*
X4733290Y3839900D02*
G01*
X4718129Y3838438D01*
X4718129Y3838438D02*
G01*
X4703280Y3835048D01*
X4703280Y3835048D02*
G01*
X4688986Y3829788D01*
X4688986Y3829788D02*
G01*
X4675482Y3822743D01*
X4675482Y3822743D02*
G01*
X4662990Y3814029D01*
X4662990Y3814029D02*
G01*
X4651715Y3803790D01*
X4651715Y3803790D02*
G01*
X4641842Y3792192D01*
X4641842Y3792192D02*
G01*
X4633533Y3779427D01*
X4633533Y3779427D02*
G01*
X4626924Y3765704D01*
X4626924Y3765704D02*
G01*
X4622125Y3751249D01*
X4622125Y3751249D02*
G01*
X4619214Y3736299D01*
X4619214Y3736299D02*
G01*
X4618238Y3721100D01*
X4618238Y3721100D02*
G01*
X4619214Y3705900D01*
X4619214Y3705900D02*
G01*
X4622125Y3690950D01*
X4622125Y3690950D02*
G01*
X4626924Y3676495D01*
X4626924Y3676495D02*
G01*
X4633533Y3662772D01*
X4633533Y3662772D02*
G01*
X4641842Y3650007D01*
X4641842Y3650007D02*
G01*
X4645541Y3645662D01*
X4645541Y3645662D02*
G01*
X4574809Y3645662D01*
X4574809Y3645662D02*
G01*
X4582716Y3656256D01*
X4582716Y3656256D02*
G01*
X4590190Y3669527D01*
X4590190Y3669527D02*
G01*
X4595906Y3683645D01*
X4595906Y3683645D02*
G01*
X4599769Y3698378D01*
X4599769Y3698378D02*
G01*
X4601717Y3713484D01*
X4601717Y3713484D02*
G01*
X4601717Y3728715D01*
X4601717Y3728715D02*
G01*
X4599769Y3743821D01*
X4599769Y3743821D02*
G01*
X4595906Y3758554D01*
X4595906Y3758554D02*
G01*
X4590190Y3772672D01*
X4590190Y3772672D02*
G01*
X4582716Y3785943D01*
X4582716Y3785943D02*
G01*
X4573606Y3798149D01*
X4573606Y3798149D02*
G01*
X4563010Y3809090D01*
X4563010Y3809090D02*
G01*
X4551102Y3818587D01*
X4551102Y3818587D02*
G01*
X4538078Y3826482D01*
X4538078Y3826482D02*
G01*
X4524150Y3832648D01*
X4524150Y3832648D02*
G01*
X4509549Y3836981D01*
X4509549Y3836981D02*
G01*
X4494513Y3839412D01*
X4494513Y3839412D02*
G01*
X4479290Y3839900D01*
X4479290Y3839900D02*
G01*
X4464129Y3838438D01*
X4464129Y3838438D02*
G01*
X4449280Y3835048D01*
X4449280Y3835048D02*
G01*
X4434986Y3829788D01*
X4434986Y3829788D02*
G01*
X4421482Y3822743D01*
X4421482Y3822743D02*
G01*
X4408990Y3814029D01*
X4408990Y3814029D02*
G01*
X4397715Y3803790D01*
X4397715Y3803790D02*
G01*
X4387842Y3792192D01*
X4387842Y3792192D02*
G01*
X4379533Y3779427D01*
X4379533Y3779427D02*
G01*
X4372924Y3765704D01*
X4372924Y3765704D02*
G01*
X4368125Y3751249D01*
X4368125Y3751249D02*
G01*
X4365214Y3736299D01*
X4365214Y3736299D02*
G01*
X4364238Y3721100D01*
X4364238Y3721100D02*
G01*
X4365214Y3705900D01*
X4365214Y3705900D02*
G01*
X4368125Y3690950D01*
X4368125Y3690950D02*
G01*
X4372924Y3676495D01*
X4372924Y3676495D02*
G01*
X4379533Y3662772D01*
X4379533Y3662772D02*
G01*
X4387842Y3650007D01*
X4387842Y3650007D02*
G01*
X4391541Y3645662D01*
X4321410Y3646466D02*
G01*
X4322215Y3645662D01*
X3881520Y4158199D02*
G01*
X4202925Y3836793D01*
X4344849Y3694869D02*
G01*
X4384356Y3655363D01*
X3900766Y4210794D02*
G01*
X4286618Y3824942D01*
X4332711Y3778849D02*
G01*
X4366851Y3744709D01*
X3936687Y4246715D02*
G01*
X4389391Y3794011D01*
X3976750Y4278495D02*
G01*
X4428723Y3826521D01*
X4588579Y3666666D02*
G01*
X4609583Y3645662D01*
X4048592Y4278495D02*
G01*
X4487448Y3839639D01*
X4601717Y3725369D02*
G01*
X4619078Y3708009D01*
X4120434Y4278495D02*
G01*
X4628972Y3769956D01*
X4192276Y4278495D02*
G01*
X4659715Y3811055D01*
X4264118Y4278495D02*
G01*
X4706768Y3835845D01*
X4851789Y3690824D02*
G01*
X4896951Y3645662D01*
X4335960Y4278495D02*
G01*
X4784712Y3829743D01*
X4845828Y3768627D02*
G01*
X4874019Y3740436D01*
X4407802Y4278495D02*
G01*
X4895157Y3791140D01*
X4479644Y4278495D02*
G01*
X4933368Y3824771D01*
X5094739Y3663400D02*
G01*
X5112477Y3645662D01*
X4551486Y4278495D02*
G01*
X4990173Y3839808D01*
X5109717Y3720264D02*
G01*
X5127971Y3702010D01*
X4623328Y4278495D02*
G01*
X5135313Y3766510D01*
X4695170Y4278495D02*
G01*
X4858993Y4114672D01*
X4931925Y4041740D02*
G01*
X5165040Y3808625D01*
X4765554Y4279953D02*
G01*
X4881745Y4163762D01*
X4980166Y4065342D02*
G01*
X5210679Y3834827D01*
X5358728Y3686779D02*
G01*
X5399846Y3645662D01*
X4806301Y4311048D02*
G01*
X4881745Y4235604D01*
X4996451Y4120898D02*
G01*
X5284090Y3833259D01*
X5357301Y3760048D02*
G01*
X5381204Y3736145D01*
X4842222Y4346969D02*
G01*
X4887389Y4301802D01*
X4998111Y4191080D02*
G01*
X5401144Y3788047D01*
X4878143Y4382890D02*
G01*
X4917813Y4343220D01*
X5040007Y4221026D02*
G01*
X5438013Y3823020D01*
X5600900Y3660133D02*
G01*
X5615372Y3645662D01*
X5043517Y4289358D02*
G01*
X5493179Y3839697D01*
X5617717Y3715158D02*
G01*
X5637206Y3695670D01*
X5042207Y4362510D02*
G01*
X5641949Y3762768D01*
X5042207Y4434353D02*
G01*
X5670364Y3806195D01*
X5042207Y4506195D02*
G01*
X5714947Y3833454D01*
X5865575Y3682827D02*
G01*
X5902740Y3645662D01*
X4818661Y4801582D02*
G01*
X4909385Y4710859D01*
X5042207Y4578037D02*
G01*
X5784830Y3835414D01*
X5867405Y3752839D02*
G01*
X5974582Y3645662D01*
X4890503Y4801582D02*
G01*
X4964365Y4727721D01*
X5023812Y4668274D02*
G01*
X6046424Y3645662D01*
X4962345Y4801582D02*
G01*
X6118266Y3645662D01*
X5034187Y4801582D02*
G01*
X6146774Y3688996D01*
X5106029Y4801582D02*
G01*
X6148677Y3758935D01*
X5177871Y4801582D02*
G01*
X6175692Y3803762D01*
X5233371Y4817925D02*
G01*
X6219215Y3832080D01*
X6372103Y3679193D02*
G01*
X6405634Y3645662D01*
X5269292Y4853846D02*
G01*
X6285888Y3837250D01*
X6377219Y3745918D02*
G01*
X6396588Y3726550D01*
X5321049Y4873931D02*
G01*
X6333019Y3861961D01*
X6379428Y3815551D02*
G01*
X6413118Y3781862D01*
X6440648Y3826174D02*
G01*
X6447943Y3818879D01*
X6612942Y3653879D02*
G01*
X6621161Y3645662D01*
X6467665Y3870999D02*
G01*
X6499866Y3838798D01*
X6632742Y3705922D02*
G01*
X6657312Y3681353D01*
X5026129Y5384377D02*
G01*
X6655404Y3755102D01*
X5026129Y5456219D02*
G01*
X6681344Y3801004D01*
X5026129Y5528062D02*
G01*
X6723483Y3830707D01*
X6878632Y3675558D02*
G01*
X6908529Y3645662D01*
X5026129Y5599903D02*
G01*
X6787798Y3838234D01*
X6886296Y3739736D02*
G01*
X6904280Y3721753D01*
X5026129Y5671746D02*
G01*
X6919180Y3778694D01*
X5026129Y5743588D02*
G01*
X6952935Y3816781D01*
X7118760Y3650956D02*
G01*
X7124055Y3645662D01*
X5026129Y5815430D02*
G01*
X7003308Y3838250D01*
X7140159Y3701399D02*
G01*
X7168653Y3672905D01*
X5026129Y5887272D02*
G01*
X7162131Y3751269D01*
X5043506Y5941736D02*
G01*
X7186996Y3798246D01*
X5022119Y6034965D02*
G01*
X7227876Y3829209D01*
X7385160Y3671924D02*
G01*
X7411423Y3645662D01*
X5058040Y6070886D02*
G01*
X7289708Y3839219D01*
X7395052Y3733875D02*
G01*
X7483265Y3645662D01*
X5129872Y6070897D02*
G01*
X7555107Y3645662D01*
X5201714Y6070897D02*
G01*
X7626949Y3645662D01*
X5273556Y6070897D02*
G01*
X7661147Y3683305D01*
X5345398Y6070897D02*
G01*
X7661147Y3755147D01*
X5417240Y6070897D02*
G01*
X7661147Y3826989D01*
X5489082Y6070897D02*
G01*
X7661147Y3898831D01*
X5560924Y6070897D02*
G01*
X7661147Y3970673D01*
X5632766Y6070897D02*
G01*
X7661147Y4042515D01*
X5704608Y6070897D02*
G01*
X7661147Y4114358D01*
X5776450Y6070897D02*
G01*
X7661147Y4186199D01*
X5848292Y6070897D02*
G01*
X7661147Y4258042D01*
X5920134Y6070897D02*
G01*
X7661147Y4329884D01*
X5991977Y6070897D02*
G01*
X6938674Y5124200D01*
X7374782Y4688091D02*
G01*
X7661147Y4401726D01*
X6063818Y6070897D02*
G01*
X6972185Y5162530D01*
X7413113Y4721602D02*
G01*
X7661147Y4473568D01*
X6135661Y6070897D02*
G01*
X7008106Y5198451D01*
X7449034Y4757523D02*
G01*
X7661147Y4545410D01*
X6207503Y6070897D02*
G01*
X7044027Y5234372D01*
X7484955Y4793444D02*
G01*
X7661147Y4617252D01*
X6279345Y6070897D02*
G01*
X7079948Y5270293D01*
X7520876Y4829365D02*
G01*
X7661147Y4689094D01*
X6351187Y6070897D02*
G01*
X7115869Y5306214D01*
X7556797Y4865286D02*
G01*
X7661147Y4760936D01*
X6423029Y6070897D02*
G01*
X7151790Y5342135D01*
X7592718Y4901207D02*
G01*
X7661147Y4832778D01*
X6494871Y6070897D02*
G01*
X7187711Y5378056D01*
X7628639Y4937128D02*
G01*
X7661147Y4904620D01*
X6566713Y6070897D02*
G01*
X7223632Y5413977D01*
X6638555Y6070897D02*
G01*
X7259553Y5449898D01*
X6710397Y6070897D02*
G01*
X7295474Y5485819D01*
X6782239Y6070897D02*
G01*
X7331395Y5521741D01*
X6854081Y6070897D02*
G01*
X7381493Y5543485D01*
X6925923Y6070897D02*
G01*
X7661147Y5335672D01*
X6997765Y6070897D02*
G01*
X7661147Y5407514D01*
X7069607Y6070897D02*
G01*
X7661147Y5479356D01*
X7141449Y6070897D02*
G01*
X7661147Y5551198D01*
X7213291Y6070897D02*
G01*
X7661147Y5623041D01*
X7262687Y6093343D02*
G01*
X7661147Y5694882D01*
X7298608Y6129264D02*
G01*
X7661147Y5766725D01*
X7334529Y6165185D02*
G01*
X7661147Y5838567D01*
X7370450Y6201106D02*
G01*
X7661147Y5910409D01*
X7406371Y6237027D02*
G01*
X7416807Y6226592D01*
X7433092Y6210307D02*
G01*
X7661147Y5982251D01*
X7509503Y6205738D02*
G01*
X7661147Y6054093D01*
X7581345Y6205738D02*
G01*
X7661147Y6125935D01*
X7640019Y6218906D02*
G01*
X7661147Y6197777D01*
X7649961Y6280805D02*
G01*
X7661147Y6269619D01*
X7649961Y6352647D02*
G01*
X7661147Y6341461D01*
X7613541Y3645662D02*
G01*
X7661147Y3693268D01*
X7541699Y3645662D02*
G01*
X7661147Y3765110D01*
X7469857Y3645662D02*
G01*
X7661147Y3836952D01*
X7398015Y3645662D02*
G01*
X7661147Y3908794D01*
X7395717Y3715206D02*
G01*
X7661147Y3980636D01*
X7383164Y3774494D02*
G01*
X7661147Y4052478D01*
X7182489Y3645662D02*
G01*
X7184138Y3647310D01*
X7350839Y3814012D02*
G01*
X7661147Y4124320D01*
X7124618Y3659633D02*
G01*
X7161116Y3696131D01*
X7302187Y3837201D02*
G01*
X7661147Y4196162D01*
X7139187Y3746044D02*
G01*
X7175328Y3782185D01*
X7216327Y3823184D02*
G01*
X7661147Y4268004D01*
X7116104Y3794803D02*
G01*
X7661147Y4339847D01*
X6895121Y3645662D02*
G01*
X6917159Y3667701D01*
X7076597Y3827138D02*
G01*
X7661147Y4411688D01*
X6887216Y3709599D02*
G01*
X6904616Y3726999D01*
X7017328Y3839711D02*
G01*
X7661147Y4483531D01*
X6876840Y3771066D02*
G01*
X7661147Y4555373D01*
X6845679Y3811747D02*
G01*
X7661147Y4627215D01*
X6607752Y3645662D02*
G01*
X6653948Y3691857D01*
X6798266Y3836175D02*
G01*
X7661147Y4699057D01*
X6632032Y3741783D02*
G01*
X6661684Y3771436D01*
X6719002Y3828753D02*
G01*
X7661147Y4770899D01*
X6610286Y3791879D02*
G01*
X7661147Y4842741D01*
X6392226Y3645662D02*
G01*
X6410819Y3664254D01*
X6571926Y3825362D02*
G01*
X7661147Y4914583D01*
X6378460Y3703738D02*
G01*
X6396266Y3721543D01*
X6514519Y3839797D02*
G01*
X7360298Y4685576D01*
X6370312Y3767431D02*
G01*
X6417812Y3814932D01*
X6466175Y3863294D02*
G01*
X7316430Y4713549D01*
X6340520Y3809481D02*
G01*
X6357664Y3826626D01*
X6454481Y3923442D02*
G01*
X7280509Y4749470D01*
X6104858Y3645662D02*
G01*
X6147127Y3687931D01*
X6294203Y3835006D02*
G01*
X6330749Y3871553D01*
X6409553Y3950357D02*
G01*
X7244588Y4785391D01*
X6033016Y3645662D02*
G01*
X6149864Y3762509D01*
X6219563Y3832208D02*
G01*
X6301444Y3914090D01*
X6367011Y3979657D02*
G01*
X7208667Y4821312D01*
X7659755Y5272400D02*
G01*
X7661147Y5273793D01*
X5961174Y3645662D02*
G01*
X6265523Y3950011D01*
X6331090Y4015578D02*
G01*
X7172746Y4857233D01*
X7623834Y5308321D02*
G01*
X7661147Y5345635D01*
X5889332Y3645662D02*
G01*
X6229602Y3985932D01*
X6295169Y4051499D02*
G01*
X7136825Y4893154D01*
X7587913Y5344242D02*
G01*
X7661147Y5417477D01*
X5869614Y3697786D02*
G01*
X6193681Y4021853D01*
X6259248Y4087420D02*
G01*
X7100904Y4929075D01*
X7551992Y5380163D02*
G01*
X7661147Y5489319D01*
X5863783Y3763797D02*
G01*
X6157760Y4057774D01*
X6223327Y4123341D02*
G01*
X7064983Y4964996D01*
X7516071Y5416084D02*
G01*
X7661147Y5561161D01*
X5835089Y3806944D02*
G01*
X6121839Y4093695D01*
X6187406Y4159262D02*
G01*
X7029061Y5000917D01*
X7480150Y5452005D02*
G01*
X7661147Y5633003D01*
X5601964Y3645662D02*
G01*
X5640400Y3684098D01*
X5790140Y3833838D02*
G01*
X6085918Y4129616D01*
X6151485Y4195183D02*
G01*
X6993140Y5036838D01*
X7444228Y5487926D02*
G01*
X7661147Y5704845D01*
X5617198Y3732738D02*
G01*
X5639326Y3754866D01*
X5719576Y3835116D02*
G01*
X6049997Y4165537D01*
X6115564Y4231104D02*
G01*
X6957220Y5072759D01*
X7408308Y5523847D02*
G01*
X7661147Y5776687D01*
X5598650Y3786032D02*
G01*
X6014076Y4201458D01*
X6079643Y4267025D02*
G01*
X6940398Y5127780D01*
X7353287Y5540669D02*
G01*
X7661147Y5848529D01*
X5386438Y3645662D02*
G01*
X5398693Y3657917D01*
X5562284Y3821508D02*
G01*
X5978155Y4237379D01*
X6043722Y4302946D02*
G01*
X7661147Y5920371D01*
X5359799Y3690865D02*
G01*
X5380829Y3711895D01*
X5508413Y3839480D02*
G01*
X5942234Y4273300D01*
X6007801Y4338867D02*
G01*
X7661147Y5992214D01*
X5357255Y3760163D02*
G01*
X5906313Y4309221D01*
X5971880Y4374788D02*
G01*
X7661147Y6064056D01*
X5329600Y3804351D02*
G01*
X5870392Y4345142D01*
X5935959Y4410709D02*
G01*
X7661147Y6135898D01*
X5099069Y3645662D02*
G01*
X5133673Y3680265D01*
X5286077Y3832669D02*
G01*
X5834471Y4381063D01*
X5900038Y4446630D02*
G01*
X7661147Y6207740D01*
X5109717Y3728151D02*
G01*
X5129474Y3747909D01*
X5218192Y3836626D02*
G01*
X5798550Y4416984D01*
X5864117Y4482551D02*
G01*
X7587303Y6205738D01*
X7649961Y6268396D02*
G01*
X7661147Y6279582D01*
X5092500Y3782776D02*
G01*
X5762629Y4452906D01*
X5828196Y4518472D02*
G01*
X7515461Y6205738D01*
X7649961Y6340238D02*
G01*
X7661147Y6351424D01*
X4883543Y3645662D02*
G01*
X4892706Y3654825D01*
X5057462Y3819581D02*
G01*
X5726708Y4488826D01*
X5792275Y4554393D02*
G01*
X7444377Y6206495D01*
X4849985Y3683945D02*
G01*
X4873137Y3707097D01*
X5005043Y3839003D02*
G01*
X5690787Y4524747D01*
X5756354Y4590314D02*
G01*
X7242380Y6076340D01*
X4850497Y3756300D02*
G01*
X5654866Y4560669D01*
X5720433Y4626235D02*
G01*
X7165094Y6070897D01*
X4824113Y3801757D02*
G01*
X5618945Y4596589D01*
X5684512Y4662156D02*
G01*
X7093252Y6070897D01*
X4596175Y3645662D02*
G01*
X4626952Y3676438D01*
X4781623Y3831110D02*
G01*
X5583024Y4632510D01*
X5648591Y4698077D02*
G01*
X7021410Y6070897D01*
X4601717Y3723046D02*
G01*
X4620240Y3741568D01*
X4716807Y3838136D02*
G01*
X4920683Y4042011D01*
X4996857Y4118186D02*
G01*
X5547103Y4668432D01*
X5612670Y4733998D02*
G01*
X6949568Y6070897D01*
X4586339Y3779510D02*
G01*
X4874157Y4067328D01*
X4974470Y4167641D02*
G01*
X4997861Y4191032D01*
X5049030Y4242201D02*
G01*
X5511182Y4704353D01*
X5576749Y4769919D02*
G01*
X6877726Y6070897D01*
X4380649Y3645662D02*
G01*
X4386719Y3651732D01*
X4552477Y3817490D02*
G01*
X4860392Y4125404D01*
X5042207Y4307219D02*
G01*
X5475261Y4740273D01*
X5540828Y4805840D02*
G01*
X6805884Y6070897D01*
X4338583Y3675438D02*
G01*
X4365838Y3702693D01*
X4501438Y3838293D02*
G01*
X4881745Y4218600D01*
X5042207Y4379062D02*
G01*
X5439340Y4776195D01*
X5504906Y4841761D02*
G01*
X6734042Y6070897D01*
X4343558Y3752255D02*
G01*
X4883636Y4292333D01*
X5042207Y4450904D02*
G01*
X5403419Y4812116D01*
X5468986Y4877682D02*
G01*
X6662200Y6070897D01*
X4318624Y3799163D02*
G01*
X4917813Y4398352D01*
X5042207Y4522746D02*
G01*
X5367498Y4848037D01*
X5433065Y4913603D02*
G01*
X6590358Y6070897D01*
X4277163Y3829544D02*
G01*
X4726114Y4278495D01*
X5042207Y4594588D02*
G01*
X5324242Y4876623D01*
X5328461Y4880842D02*
G01*
X5331577Y4883958D01*
X5397143Y4949524D02*
G01*
X6518516Y6070897D01*
X4214651Y3838874D02*
G01*
X4654272Y4278495D01*
X5027847Y4652070D02*
G01*
X5177359Y4801582D01*
X5361222Y4985445D02*
G01*
X6446674Y6070897D01*
X4159848Y3855913D02*
G01*
X4582430Y4278495D01*
X5007923Y4703989D02*
G01*
X5105518Y4801582D01*
X5325301Y5021366D02*
G01*
X6374832Y6070897D01*
X4123927Y3891834D02*
G01*
X4510588Y4278495D01*
X4960087Y4727994D02*
G01*
X5033675Y4801582D01*
X5289380Y5057287D02*
G01*
X6302990Y6070897D01*
X4088006Y3927755D02*
G01*
X4438746Y4278495D01*
X4882323Y4722072D02*
G01*
X4961833Y4801582D01*
X5253459Y5093209D02*
G01*
X6231148Y6070897D01*
X4052085Y3963676D02*
G01*
X4366904Y4278495D01*
X4846420Y4758011D02*
G01*
X4889991Y4801582D01*
X5217538Y5129129D02*
G01*
X6159305Y6070897D01*
X4016164Y3999597D02*
G01*
X4295062Y4278495D01*
X4810516Y4793949D02*
G01*
X4818149Y4801582D01*
X5181617Y5165050D02*
G01*
X6087464Y6070897D01*
X3980243Y4035518D02*
G01*
X4223220Y4278495D01*
X5145696Y5200972D02*
G01*
X6015621Y6070897D01*
X3944322Y4071439D02*
G01*
X4151378Y4278495D01*
X5109775Y5236893D02*
G01*
X5943779Y6070897D01*
X3908401Y4107360D02*
G01*
X4079536Y4278495D01*
X5073854Y5272813D02*
G01*
X5871937Y6070897D01*
X3883702Y4154504D02*
G01*
X4007694Y4278495D01*
X5037933Y5308735D02*
G01*
X5800095Y6070897D01*
X5026129Y5368772D02*
G01*
X5728253Y6070897D01*
X5026129Y5440614D02*
G01*
X5656411Y6070897D01*
X5026129Y5512456D02*
G01*
X5584569Y6070897D01*
X5026129Y5584298D02*
G01*
X5512727Y6070897D01*
X5026129Y5656140D02*
G01*
X5440885Y6070897D01*
X5026129Y5727982D02*
G01*
X5369043Y6070897D01*
X5026129Y5799824D02*
G01*
X5297201Y6070897D01*
X5026129Y5871666D02*
G01*
X5225359Y6070897D01*
X5048849Y5966229D02*
G01*
X5153517Y6070897D01*
X5028477Y6017698D02*
G01*
X5081675Y6070897D01*
D27*
G01*
X2959100Y6324600D03*
G01*
X3213100Y6324600D03*
G01*
X3467100Y6324600D03*
G01*
X3721100Y6324600D03*
G01*
X3975100Y6324600D03*
G01*
X4229100Y6324600D03*
G01*
X4483100Y6324600D03*
G01*
X4737100Y6324600D03*
G01*
X4991100Y6324600D03*
G01*
X5245100Y6324600D03*
G01*
X5499100Y6324600D03*
G01*
X5753100Y6324600D03*
G01*
X6007100Y6324600D03*
G01*
X6261100Y6324600D03*
G01*
X6515100Y6324600D03*
G01*
X6769100Y6324600D03*
G01*
X7023100Y6324600D03*
G01*
X7277100Y6324600D03*
D28*
G01*
X7531100Y6324600D03*
D27*
G01*
X2959100Y3721100D03*
G01*
X3213100Y3721100D03*
G01*
X3467100Y3721100D03*
G01*
X3721100Y3721100D03*
G01*
X3975100Y3721100D03*
G01*
X4229100Y3721100D03*
G01*
X4483100Y3721100D03*
G01*
X4737100Y3721100D03*
G01*
X4991100Y3721100D03*
G01*
X5245100Y3721100D03*
G01*
X5499100Y3721100D03*
G01*
X5753100Y3721100D03*
G01*
X6007100Y3721100D03*
G01*
X6261100Y3721100D03*
G01*
X6515100Y3721100D03*
G01*
X6769100Y3721100D03*
G01*
X7023100Y3721100D03*
G01*
X7277100Y3721100D03*
D28*
G01*
X7531100Y3721100D03*
D13*
G01*
X4546600Y4813300D03*
G01*
X3632200Y4762500D03*
G01*
X4822748Y4913121D03*
G01*
X4152900Y4826000D03*
G01*
X4655058Y6097879D03*
G01*
X4420260Y5404129D03*
G01*
X4375886Y5203697D03*
G01*
X3839083Y5508015D03*
G01*
X4433900Y6024626D03*
G01*
X4761077Y5109311D03*
G01*
X4670526Y5715355D03*
G01*
X4744516Y4962220D03*
G01*
X4684445Y4778527D03*
G01*
X3736466Y4187545D03*
G01*
X3823944Y4119676D03*
G01*
X4979771Y5968593D03*
G01*
X6399352Y3881754D03*
G01*
X4928082Y4110786D03*
G01*
X3529939Y5670346D03*
G01*
X4981752Y4258310D03*
G01*
X4955311Y4659045D03*
G01*
X4905425Y4475734D03*
G01*
X4366844Y6158306D03*
G01*
X5277484Y4927600D03*
D14*
G01*
X3822700Y5232400D03*
G01*
X3848100Y4978400D03*
D29*
X2970103Y5574487D02*
G01*
X2850103Y5574487D01*
X2970103Y4458487D02*
G01*
X2850103Y4458487D01*
X3350102Y4458487D02*
G01*
X3270102Y4458487D01*
X3350102Y5574487D02*
G01*
X3270102Y5574487D01*
M02*
