G04 Layer: TopSolderMaskLayer*
G04 EasyEDA v6.5.3, 2022-05-09 22:00:40*
G04 d9374f8db1c04431a46586793fd7dc8a,036ae6e9a2b24cebb23d0048bde98d7c,10*
G04 Gerber Generator version 0.2*
G04 Scale: 100 percent, Rotated: No, Reflected: No *
G04 Dimensions in millimeters *
G04 leading zeros omitted , absolute positions ,4 integer and 5 decimal *
%FSLAX45Y45*%
%MOMM*%

%ADD35C,0.6616*%
%ADD36C,1.3016*%
%ADD44C,1.7016*%

%LPD*%
D35*
X3696301Y5867400D02*
G01*
X3577800Y5867400D01*
X3696301Y5740400D02*
G01*
X3577800Y5740400D01*
X3696301Y5613400D02*
G01*
X3577800Y5613400D01*
X3696301Y5486400D02*
G01*
X3577800Y5486400D01*
X3696301Y5359400D02*
G01*
X3577800Y5359400D01*
X3696301Y5232400D02*
G01*
X3577800Y5232400D01*
X3696301Y5105400D02*
G01*
X3577800Y5105400D01*
X3696301Y4978400D02*
G01*
X3577800Y4978400D01*
X4270799Y5867400D02*
G01*
X4152298Y5867400D01*
X4270799Y5740400D02*
G01*
X4152298Y5740400D01*
X4270799Y5613400D02*
G01*
X4152298Y5613400D01*
X4270799Y5486400D02*
G01*
X4152298Y5486400D01*
X4270799Y5359400D02*
G01*
X4152298Y5359400D01*
X4270799Y5232400D02*
G01*
X4152298Y5232400D01*
X4270799Y5105400D02*
G01*
X4152298Y5105400D01*
X4270799Y4978400D02*
G01*
X4152298Y4978400D01*
D36*
X2970103Y5574487D02*
G01*
X2850103Y5574487D01*
X2970103Y4458487D02*
G01*
X2850103Y4458487D01*
X3350102Y4458487D02*
G01*
X3270102Y4458487D01*
X3350102Y5574487D02*
G01*
X3270102Y5574487D01*
G36*
X4489195Y4168139D02*
G01*
X4489195Y4257294D01*
X4553204Y4257294D01*
X4553204Y4168139D01*
G37*
G36*
X4489195Y4277105D02*
G01*
X4489195Y4366260D01*
X4553204Y4366260D01*
X4553204Y4277105D01*
G37*
G36*
X4806695Y5298439D02*
G01*
X4806695Y5387594D01*
X4870704Y5387594D01*
X4870704Y5298439D01*
G37*
G36*
X4806695Y5407405D02*
G01*
X4806695Y5496560D01*
X4870704Y5496560D01*
X4870704Y5407405D01*
G37*
G36*
X4654295Y5966205D02*
G01*
X4654295Y6055360D01*
X4718304Y6055360D01*
X4718304Y5966205D01*
G37*
G36*
X4654295Y5857239D02*
G01*
X4654295Y5946394D01*
X4718304Y5946394D01*
X4718304Y5857239D01*
G37*
G36*
X4489195Y5857239D02*
G01*
X4489195Y5946394D01*
X4553204Y5946394D01*
X4553204Y5857239D01*
G37*
G36*
X4489195Y5966205D02*
G01*
X4489195Y6055360D01*
X4553204Y6055360D01*
X4553204Y5966205D01*
G37*
G36*
X3473195Y4175505D02*
G01*
X3473195Y4264660D01*
X3537204Y4264660D01*
X3537204Y4175505D01*
G37*
G36*
X3473195Y4066539D02*
G01*
X3473195Y4155694D01*
X3537204Y4155694D01*
X3537204Y4066539D01*
G37*
G36*
X4489195Y4523739D02*
G01*
X4489195Y4612894D01*
X4553204Y4612894D01*
X4553204Y4523739D01*
G37*
G36*
X4489195Y4632705D02*
G01*
X4489195Y4721860D01*
X4553204Y4721860D01*
X4553204Y4632705D01*
G37*
G36*
X4476241Y5113781D02*
G01*
X4476241Y5224018D01*
X4566158Y5224018D01*
X4566158Y5113781D01*
G37*
G36*
X4542281Y4910581D02*
G01*
X4542281Y5020818D01*
X4632197Y5020818D01*
X4632197Y4910581D01*
G37*
G36*
X4410202Y4910581D02*
G01*
X4410202Y5020818D01*
X4500118Y5020818D01*
X4500118Y4910581D01*
G37*
G36*
X4488941Y5672581D02*
G01*
X4488941Y5782818D01*
X4578858Y5782818D01*
X4578858Y5672581D01*
G37*
G36*
X4554981Y5469381D02*
G01*
X4554981Y5579618D01*
X4644897Y5579618D01*
X4644897Y5469381D01*
G37*
G36*
X4422902Y5469381D02*
G01*
X4422902Y5579618D01*
X4512818Y5579618D01*
X4512818Y5469381D01*
G37*
G36*
X4819395Y5866892D02*
G01*
X4819395Y5933694D01*
X4883404Y5933694D01*
X4883404Y5866892D01*
G37*
G36*
X4819395Y5953505D02*
G01*
X4819395Y6020307D01*
X4883404Y6020307D01*
X4883404Y5953505D01*
G37*
G36*
X4747006Y4082795D02*
G01*
X4747006Y4146804D01*
X4813808Y4146804D01*
X4813808Y4082795D01*
G37*
G36*
X4660391Y4082795D02*
G01*
X4660391Y4146804D01*
X4727193Y4146804D01*
X4727193Y4082795D01*
G37*
G36*
X3625595Y4162805D02*
G01*
X3625595Y4229607D01*
X3689604Y4229607D01*
X3689604Y4162805D01*
G37*
G36*
X3625595Y4076192D02*
G01*
X3625595Y4142994D01*
X3689604Y4142994D01*
X3689604Y4076192D01*
G37*
G36*
X4660391Y4501895D02*
G01*
X4660391Y4565904D01*
X4727193Y4565904D01*
X4727193Y4501895D01*
G37*
G36*
X4747006Y4501895D02*
G01*
X4747006Y4565904D01*
X4813808Y4565904D01*
X4813808Y4501895D01*
G37*
G36*
X4797806Y4666995D02*
G01*
X4797806Y4731004D01*
X4864608Y4731004D01*
X4864608Y4666995D01*
G37*
G36*
X4711191Y4666995D02*
G01*
X4711191Y4731004D01*
X4777993Y4731004D01*
X4777993Y4666995D01*
G37*
G36*
X4660391Y4222495D02*
G01*
X4660391Y4286504D01*
X4727193Y4286504D01*
X4727193Y4222495D01*
G37*
G36*
X4747006Y4222495D02*
G01*
X4747006Y4286504D01*
X4813808Y4286504D01*
X4813808Y4222495D01*
G37*
G36*
X4848606Y5594095D02*
G01*
X4848606Y5658104D01*
X4915408Y5658104D01*
X4915408Y5594095D01*
G37*
G36*
X4761991Y5594095D02*
G01*
X4761991Y5658104D01*
X4828793Y5658104D01*
X4828793Y5594095D01*
G37*
G36*
X4457191Y5301995D02*
G01*
X4457191Y5366004D01*
X4523993Y5366004D01*
X4523993Y5301995D01*
G37*
G36*
X4543806Y5301995D02*
G01*
X4543806Y5366004D01*
X4610608Y5366004D01*
X4610608Y5301995D01*
G37*
G36*
X4747006Y4362195D02*
G01*
X4747006Y4426204D01*
X4813808Y4426204D01*
X4813808Y4362195D01*
G37*
G36*
X4660391Y4362195D02*
G01*
X4660391Y4426204D01*
X4727193Y4426204D01*
X4727193Y4362195D01*
G37*
G36*
X4797806Y4806695D02*
G01*
X4797806Y4870704D01*
X4864608Y4870704D01*
X4864608Y4806695D01*
G37*
G36*
X4711191Y4806695D02*
G01*
X4711191Y4870704D01*
X4777993Y4870704D01*
X4777993Y4806695D01*
G37*
G36*
X2813811Y4073144D02*
G01*
X2813811Y4283455D01*
X2923793Y4283455D01*
X2923793Y4073144D01*
G37*
G36*
X3273806Y4073144D02*
G01*
X3273806Y4283455D01*
X3383788Y4283455D01*
X3383788Y4073144D01*
G37*
G36*
X2813811Y5762244D02*
G01*
X2813811Y5972555D01*
X2923793Y5972555D01*
X2923793Y5762244D01*
G37*
G36*
X3273806Y5762244D02*
G01*
X3273806Y5972555D01*
X3383788Y5972555D01*
X3383788Y5762244D01*
G37*
G36*
X4227322Y4574539D02*
G01*
X4227322Y4831587D01*
X4335272Y4831587D01*
X4335272Y4574539D01*
G37*
G36*
X3997197Y4574539D02*
G01*
X3997197Y4831587D01*
X4105402Y4831587D01*
X4105402Y4574539D01*
G37*
G36*
X3767327Y4574539D02*
G01*
X3767327Y4831587D01*
X3875277Y4831587D01*
X3875277Y4574539D01*
G37*
G36*
X3866134Y4007612D02*
G01*
X3866134Y4264660D01*
X4236465Y4264660D01*
X4236465Y4007612D01*
G37*
D44*
G01*
X2959100Y6324600D03*
G01*
X3213100Y6324600D03*
G01*
X3467100Y6324600D03*
G01*
X3721100Y6324600D03*
G01*
X3975100Y6324600D03*
G01*
X4229100Y6324600D03*
G01*
X4483100Y6324600D03*
G01*
X4737100Y6324600D03*
G01*
X4991100Y6324600D03*
G01*
X5245100Y6324600D03*
G01*
X5499100Y6324600D03*
G01*
X5753100Y6324600D03*
G01*
X6007100Y6324600D03*
G01*
X6261100Y6324600D03*
G01*
X6515100Y6324600D03*
G01*
X6769100Y6324600D03*
G01*
X7023100Y6324600D03*
G01*
X7277100Y6324600D03*
G36*
X7446009Y6239510D02*
G01*
X7446009Y6409689D01*
X7616190Y6409689D01*
X7616190Y6239510D01*
G37*
G01*
X2959100Y3721100D03*
G01*
X3213100Y3721100D03*
G01*
X3467100Y3721100D03*
G01*
X3721100Y3721100D03*
G01*
X3975100Y3721100D03*
G01*
X4229100Y3721100D03*
G01*
X4483100Y3721100D03*
G01*
X4737100Y3721100D03*
G01*
X4991100Y3721100D03*
G01*
X5245100Y3721100D03*
G01*
X5499100Y3721100D03*
G01*
X5753100Y3721100D03*
G01*
X6007100Y3721100D03*
G01*
X6261100Y3721100D03*
G01*
X6515100Y3721100D03*
G01*
X6769100Y3721100D03*
G01*
X7023100Y3721100D03*
G01*
X7277100Y3721100D03*
G36*
X7446009Y3636010D02*
G01*
X7446009Y3806189D01*
X7616190Y3806189D01*
X7616190Y3636010D01*
G37*
G36*
X6854697Y5819139D02*
G01*
X6854697Y6039357D01*
X6959854Y6039357D01*
X6959854Y5819139D01*
G37*
G36*
X6727697Y5819139D02*
G01*
X6727697Y6039357D01*
X6832854Y6039357D01*
X6832854Y5819139D01*
G37*
G36*
X6600697Y5819139D02*
G01*
X6600697Y6039357D01*
X6705854Y6039357D01*
X6705854Y5819139D01*
G37*
G36*
X6473697Y5819139D02*
G01*
X6473697Y6039357D01*
X6578854Y6039357D01*
X6578854Y5819139D01*
G37*
G36*
X6346697Y5819139D02*
G01*
X6346697Y6039357D01*
X6451854Y6039357D01*
X6451854Y5819139D01*
G37*
G36*
X6219697Y5819139D02*
G01*
X6219697Y6039357D01*
X6324854Y6039357D01*
X6324854Y5819139D01*
G37*
G36*
X6092697Y5819139D02*
G01*
X6092697Y6039357D01*
X6197854Y6039357D01*
X6197854Y5819139D01*
G37*
G36*
X5965697Y5819139D02*
G01*
X5965697Y6039357D01*
X6070854Y6039357D01*
X6070854Y5819139D01*
G37*
G36*
X5838697Y5819139D02*
G01*
X5838697Y6039357D01*
X5943854Y6039357D01*
X5943854Y5819139D01*
G37*
G36*
X5711697Y5819139D02*
G01*
X5711697Y6039357D01*
X5816854Y6039357D01*
X5816854Y5819139D01*
G37*
G36*
X5584697Y5819139D02*
G01*
X5584697Y6039357D01*
X5689854Y6039357D01*
X5689854Y5819139D01*
G37*
G36*
X5457697Y5819139D02*
G01*
X5457697Y6039357D01*
X5562854Y6039357D01*
X5562854Y5819139D01*
G37*
G36*
X5330697Y5819139D02*
G01*
X5330697Y6039357D01*
X5435854Y6039357D01*
X5435854Y5819139D01*
G37*
G36*
X5203697Y5819139D02*
G01*
X5203697Y6039357D01*
X5308854Y6039357D01*
X5308854Y5819139D01*
G37*
G36*
X4996688Y5548121D02*
G01*
X4996688Y5653278D01*
X5216906Y5653278D01*
X5216906Y5548121D01*
G37*
G36*
X4996688Y5421121D02*
G01*
X4996688Y5526278D01*
X5216906Y5526278D01*
X5216906Y5421121D01*
G37*
G36*
X4996688Y5294121D02*
G01*
X4996688Y5399278D01*
X5216906Y5399278D01*
X5216906Y5294121D01*
G37*
G36*
X4996688Y5167121D02*
G01*
X4996688Y5272278D01*
X5216906Y5272278D01*
X5216906Y5167121D01*
G37*
G36*
X4996688Y5040121D02*
G01*
X4996688Y5145278D01*
X5216906Y5145278D01*
X5216906Y5040121D01*
G37*
G36*
X4996688Y4913121D02*
G01*
X4996688Y5018278D01*
X5216906Y5018278D01*
X5216906Y4913121D01*
G37*
G36*
X4996688Y4786121D02*
G01*
X4996688Y4891278D01*
X5216906Y4891278D01*
X5216906Y4786121D01*
G37*
G36*
X4996688Y4659121D02*
G01*
X4996688Y4764278D01*
X5216906Y4764278D01*
X5216906Y4659121D01*
G37*
G36*
X4996688Y4532121D02*
G01*
X4996688Y4637278D01*
X5216906Y4637278D01*
X5216906Y4532121D01*
G37*
G36*
X4996688Y4405121D02*
G01*
X4996688Y4510278D01*
X5216906Y4510278D01*
X5216906Y4405121D01*
G37*
G36*
X5203697Y4019042D02*
G01*
X5203697Y4239260D01*
X5308854Y4239260D01*
X5308854Y4019042D01*
G37*
G36*
X5330697Y4019042D02*
G01*
X5330697Y4239260D01*
X5435854Y4239260D01*
X5435854Y4019042D01*
G37*
G36*
X5457697Y4019042D02*
G01*
X5457697Y4239260D01*
X5562854Y4239260D01*
X5562854Y4019042D01*
G37*
G36*
X5584697Y4019042D02*
G01*
X5584697Y4239260D01*
X5689854Y4239260D01*
X5689854Y4019042D01*
G37*
G36*
X5711697Y4019042D02*
G01*
X5711697Y4239260D01*
X5816854Y4239260D01*
X5816854Y4019042D01*
G37*
G36*
X5838697Y4019042D02*
G01*
X5838697Y4239260D01*
X5943854Y4239260D01*
X5943854Y4019042D01*
G37*
G36*
X5965697Y4019042D02*
G01*
X5965697Y4239260D01*
X6070854Y4239260D01*
X6070854Y4019042D01*
G37*
G36*
X6092697Y4019042D02*
G01*
X6092697Y4239260D01*
X6197854Y4239260D01*
X6197854Y4019042D01*
G37*
G36*
X6219697Y4019042D02*
G01*
X6219697Y4239260D01*
X6324854Y4239260D01*
X6324854Y4019042D01*
G37*
G36*
X6346697Y4019042D02*
G01*
X6346697Y4239260D01*
X6451854Y4239260D01*
X6451854Y4019042D01*
G37*
G36*
X6473697Y4019042D02*
G01*
X6473697Y4239260D01*
X6578854Y4239260D01*
X6578854Y4019042D01*
G37*
G36*
X6600697Y4019042D02*
G01*
X6600697Y4239260D01*
X6705854Y4239260D01*
X6705854Y4019042D01*
G37*
G36*
X6727697Y4019042D02*
G01*
X6727697Y4239260D01*
X6832854Y4239260D01*
X6832854Y4019042D01*
G37*
G36*
X6854697Y4019042D02*
G01*
X6854697Y4239260D01*
X6959854Y4239260D01*
X6959854Y4019042D01*
G37*
G36*
X6085840Y5057647D02*
G01*
X6085840Y5200904D01*
X6228841Y5200904D01*
X6228841Y5057647D01*
G37*
G36*
X6085840Y5241036D02*
G01*
X6085840Y5384292D01*
X6228841Y5384292D01*
X6228841Y5241036D01*
G37*
G36*
X6085840Y4874005D02*
G01*
X6085840Y5017262D01*
X6228841Y5017262D01*
X6228841Y4874005D01*
G37*
G36*
X6269227Y4874005D02*
G01*
X6269227Y5017262D01*
X6412484Y5017262D01*
X6412484Y4874005D01*
G37*
G36*
X6269227Y5057647D02*
G01*
X6269227Y5200650D01*
X6412484Y5200650D01*
X6412484Y5057647D01*
G37*
G36*
X6269227Y5241036D02*
G01*
X6269227Y5384292D01*
X6412484Y5384292D01*
X6412484Y5241036D01*
G37*
G36*
X5902197Y5241036D02*
G01*
X5902197Y5384292D01*
X6045454Y5384292D01*
X6045454Y5241036D01*
G37*
G36*
X5902197Y5057647D02*
G01*
X5902197Y5200650D01*
X6045454Y5200650D01*
X6045454Y5057647D01*
G37*
G36*
X5902197Y4874005D02*
G01*
X5902197Y5017262D01*
X6045454Y5017262D01*
X6045454Y4874005D01*
G37*
G36*
X3326638Y5171439D02*
G01*
X3326638Y5211571D01*
X3451606Y5211571D01*
X3451606Y5171439D01*
G37*
G36*
X3326638Y5121402D02*
G01*
X3326638Y5161534D01*
X3451606Y5161534D01*
X3451606Y5121402D01*
G37*
G36*
X3326384Y5071363D02*
G01*
X3326384Y5111495D01*
X3451606Y5111495D01*
X3451606Y5071363D01*
G37*
G36*
X3326638Y5021326D02*
G01*
X3326638Y5061457D01*
X3451606Y5061457D01*
X3451606Y5021326D01*
G37*
G36*
X3326384Y4971287D02*
G01*
X3326384Y5011673D01*
X3451606Y5011673D01*
X3451606Y4971287D01*
G37*
G36*
X3326638Y4921504D02*
G01*
X3326638Y4961636D01*
X3451606Y4961636D01*
X3451606Y4921504D01*
G37*
G36*
X3326638Y4871465D02*
G01*
X3326638Y4911597D01*
X3451606Y4911597D01*
X3451606Y4871465D01*
G37*
G36*
X3326638Y4821428D02*
G01*
X3326638Y4861560D01*
X3451606Y4861560D01*
X3451606Y4821428D01*
G37*
G36*
X3326638Y4740402D02*
G01*
X3326638Y4810505D01*
X3451606Y4810505D01*
X3451606Y4740402D01*
G37*
G36*
X3326638Y4660392D02*
G01*
X3326638Y4730495D01*
X3451606Y4730495D01*
X3451606Y4660392D01*
G37*
G36*
X3326638Y5222494D02*
G01*
X3326638Y5292597D01*
X3451606Y5292597D01*
X3451606Y5222494D01*
G37*
G36*
X3326638Y5302504D02*
G01*
X3326638Y5372607D01*
X3451606Y5372607D01*
X3451606Y5302504D01*
G37*
M02*
