G04 Layer: BottomSilkscreenLayer*
G04 EasyEDA v6.5.3, 2022-05-09 22:00:40*
G04 d9374f8db1c04431a46586793fd7dc8a,036ae6e9a2b24cebb23d0048bde98d7c,10*
G04 Gerber Generator version 0.2*
G04 Scale: 100 percent, Rotated: No, Reflected: No *
G04 Dimensions in millimeters *
G04 leading zeros omitted , absolute positions ,4 integer and 5 decimal *
%FSLAX45Y45*%
%MOMM*%

%ADD30C,0.2032*%

%LPD*%
D30*
X8216900Y4977637D02*
G01*
X8216900Y4882134D01*
X8216900Y4977637D02*
G01*
X8176006Y4977637D01*
X8162290Y4973065D01*
X8157718Y4968494D01*
X8153145Y4959604D01*
X8153145Y4950460D01*
X8157718Y4941315D01*
X8162290Y4936744D01*
X8176006Y4932171D01*
X8216900Y4932171D02*
G01*
X8176006Y4932171D01*
X8162290Y4927600D01*
X8157718Y4923281D01*
X8153145Y4914137D01*
X8153145Y4900421D01*
X8157718Y4891278D01*
X8162290Y4886705D01*
X8176006Y4882134D01*
X8216900Y4882134D01*
X8095995Y4977637D02*
G01*
X8105140Y4973065D01*
X8114284Y4964176D01*
X8118602Y4955031D01*
X8123174Y4941315D01*
X8123174Y4918710D01*
X8118602Y4904994D01*
X8114284Y4895850D01*
X8105140Y4886705D01*
X8095995Y4882134D01*
X8077708Y4882134D01*
X8068818Y4886705D01*
X8059674Y4895850D01*
X8055102Y4904994D01*
X8050529Y4918710D01*
X8050529Y4941315D01*
X8055102Y4955031D01*
X8059674Y4964176D01*
X8068818Y4973065D01*
X8077708Y4977637D01*
X8095995Y4977637D01*
X7993379Y4977637D02*
G01*
X8002270Y4973065D01*
X8011413Y4964176D01*
X8015986Y4955031D01*
X8020558Y4941315D01*
X8020558Y4918710D01*
X8015986Y4904994D01*
X8011413Y4895850D01*
X8002270Y4886705D01*
X7993379Y4882134D01*
X7975091Y4882134D01*
X7965947Y4886705D01*
X7956804Y4895850D01*
X7952231Y4904994D01*
X7947913Y4918710D01*
X7947913Y4941315D01*
X7952231Y4955031D01*
X7956804Y4964176D01*
X7965947Y4973065D01*
X7975091Y4977637D01*
X7993379Y4977637D01*
X7885938Y4977637D02*
G01*
X7885938Y4882134D01*
X7917688Y4977637D02*
G01*
X7854188Y4977637D01*
M02*
